<?xml version="1.0" encoding="utf-8" standalone="no"?>
<!DOCTYPE svg PUBLIC "-//W3C//DTD SVG 1.1//EN"
  "http://www.w3.org/Graphics/SVG/1.1/DTD/svg11.dtd">
<svg xmlns:xlink="http://www.w3.org/1999/xlink" width="559.44pt" height="529.707661pt" viewBox="0 0 559.44 529.707661" xmlns="http://www.w3.org/2000/svg" version="1.1">
 <metadata>
  <rdf:RDF xmlns:dc="http://purl.org/dc/elements/1.1/" xmlns:cc="http://creativecommons.org/ns#" xmlns:rdf="http://www.w3.org/1999/02/22-rdf-syntax-ns#">
   <cc:Work>
    <dc:type rdf:resource="http://purl.org/dc/dcmitype/StillImage"/>
    <dc:date>2026-06-11T12:34:36.604797</dc:date>
    <dc:format>image/svg+xml</dc:format>
    <dc:creator>
     <cc:Agent>
      <dc:title>Matplotlib v3.6.3, https://matplotlib.org/</dc:title>
     </cc:Agent>
    </dc:creator>
   </cc:Work>
  </rdf:RDF>
 </metadata>
 <defs>
  <style type="text/css">*{stroke-linejoin: round; stroke-linecap: butt}</style>
 </defs>
 <g id="figure_1">
  <g id="patch_1">
   <path d="M 0 529.707661 
L 559.44 529.707661 
L 559.44 -0 
L 0 -0 
z
" style="fill: #ffffff"/>
  </g>
  <g id="axes_1">
   <g id="patch_2">
    <path d="M 131.225252 505.521508 
L 126.270261 506.782901 
L 122.795249 503.236003 
L 124.366244 509.998935 
L 124.798638 515.664276 
L 128.199163 518.828668 
L 136.105836 518.561864 
L 136.513976 514.438967 
z
" clip-path="url(#pe71bbdda98)" style="fill: #ff7f0e; fill-opacity: 0.18"/>
   </g>
   <g id="patch_3">
    <path d="M 134.552061 500.286314 
L 137.763129 492.696679 
L 132.668627 494.714795 
L 129.48952 494.933359 
L 124.425245 502.677376 
L 129.872806 507.159812 
L 132.675641 505.264608 
L 137.406905 507.294869 
z
" clip-path="url(#pe71bbdda98)" style="fill: #ff7f0e; fill-opacity: 0.18"/>
   </g>
   <g id="patch_4">
    <path d="M 169.565844 483.123843 
L 163.416517 488.854761 
L 169.51096 490.421275 
z
" clip-path="url(#pe71bbdda98)" style="fill: #ff7f0e; fill-opacity: 0.18"/>
   </g>
   <g id="patch_5">
    <path d="M 174.419193 484.105668 
L 161.536501 485.839341 
L 163.507516 496.497206 
z
" clip-path="url(#pe71bbdda98)" style="fill: #ff7f0e; fill-opacity: 0.18"/>
   </g>
   <g id="patch_6">
    <path d="M 163.416517 477.753271 
L 159.663928 483.489261 
L 164.414491 482.274723 
z
" clip-path="url(#pe71bbdda98)" style="fill: #ff7f0e; fill-opacity: 0.18"/>
   </g>
   <g id="patch_7">
    <path d="M 175.981876 463.849176 
L 170.155944 460.871073 
L 167.004499 461.781591 
L 162.085555 467.297497 
L 162.061415 471.643406 
L 165.587308 470.963227 
z
" clip-path="url(#pe71bbdda98)" style="fill: #ff7f0e; fill-opacity: 0.18"/>
   </g>
   <g id="patch_8">
    <path d="M 187.446221 466.236334 
L 182.698045 459.451385 
L 177.618898 460.271997 
L 175.211737 458.834757 
L 174.585478 468.353735 
L 178.517955 473.61589 
L 184.519787 474.374854 
L 187.547223 470.534634 
z
" clip-path="url(#pe71bbdda98)" style="fill: #ff7f0e; fill-opacity: 0.18"/>
   </g>
   <g id="patch_9">
    <path d="M 246.725769 461.302754 
L 246.677688 466.651782 
L 251.008859 465.998084 
z
" clip-path="url(#pe71bbdda98)" style="fill: #ff7f0e; fill-opacity: 0.18"/>
   </g>
   <g id="patch_10">
    <path d="M 190.435269 472.276729 
L 187.759551 473.025411 
L 184.574702 473.431447 
L 179.434597 471.248365 
L 179.054964 477.904798 
L 177.944679 482.559454 
L 188.877586 482.613386 
L 191.646702 485.516982 
z
" clip-path="url(#pe71bbdda98)" style="fill: #ff7f0e; fill-opacity: 0.18"/>
   </g>
   <g id="patch_11">
    <path d="M 182.315972 475.606602 
L 173.815136 475.762208 
L 172.935879 482.83188 
L 184.083235 491.017147 
z
" clip-path="url(#pe71bbdda98)" style="fill: #ff7f0e; fill-opacity: 0.18"/>
   </g>
   <g id="patch_12">
    <path d="M 192.553907 485.415955 
L 184.5022 482.90086 
L 181.222543 487.297651 
L 182.033975 496.302202 
L 191.302984 493.690679 
z
" clip-path="url(#pe71bbdda98)" style="fill: #ff7f0e; fill-opacity: 0.18"/>
   </g>
   <g id="patch_13">
    <path d="M 252.162945 476.163428 
L 252.228432 483.304016 
L 256.516543 483.911541 
z
" clip-path="url(#pe71bbdda98)" style="fill: #ff7f0e; fill-opacity: 0.18"/>
   </g>
   <g id="patch_14">
    <path d="M 220.064973 485.797328 
L 206.428023 480.899536 
L 206.631255 484.8861 
L 206.151527 488.079716 
L 207.606829 496.626356 
L 212.480633 495.185614 
L 219.620321 493.480783 
z
" clip-path="url(#pe71bbdda98)" style="fill: #ff7f0e; fill-opacity: 0.18"/>
   </g>
   <g id="patch_15">
    <path d="M 207.109228 494.404987 
L 203.088629 493.143536 
L 202.818381 507.690734 
L 214.322631 506.062547 
L 212.318686 502.991603 
z
" clip-path="url(#pe71bbdda98)" style="fill: #ff7f0e; fill-opacity: 0.18"/>
   </g>
   <g id="patch_16">
    <path d="M 198.616884 492.913164 
L 190.840954 495.297098 
L 188.858037 492.010875 
L 183.644914 496.868994 
L 189.925107 507.254719 
L 192.797742 504.242632 
L 197.540415 507.199707 
L 197.330541 502.442997 
z
" clip-path="url(#pe71bbdda98)" style="fill: #ff7f0e; fill-opacity: 0.18"/>
   </g>
   <g id="patch_17">
    <path d="M 400.951746 479.632755 
L 392.358024 483.575351 
L 399.467671 489.069238 
L 403.777678 490.92479 
z
" clip-path="url(#pe71bbdda98)" style="fill: #d62728; fill-opacity: 0.18"/>
   </g>
   <g id="patch_18">
    <path d="M 401.408458 466.859921 
L 389.693318 464.755946 
L 391.38448 474.799693 
L 391.435781 479.544338 
L 401.71259 476.866599 
z
" clip-path="url(#pe71bbdda98)" style="fill: #d62728; fill-opacity: 0.18"/>
   </g>
   <g id="patch_19">
    <path d="M 130.089628 312.487505 
L 124.527253 311.094703 
L 117.712392 312.115655 
L 120.242703 314.861157 
L 117.683373 318.193953 
L 120.338761 321.973461 
L 129.959189 321.300263 
L 131.575679 317.998435 
z
" clip-path="url(#pe71bbdda98)" style="fill: #98df8a; fill-opacity: 0.18"/>
   </g>
   <g id="patch_20">
    <path d="M 420.666561 479.159546 
L 417.984318 477.18557 
L 413.135442 477.091014 
L 406.686507 477.059707 
L 406.136874 483.118282 
L 408.930958 483.813838 
L 407.411883 487.473299 
L 420.108526 481.935012 
z
" clip-path="url(#pe71bbdda98)" style="fill: #d62728; fill-opacity: 0.18"/>
   </g>
   <g id="patch_21">
    <path d="M 414.416393 455.68835 
L 409.686932 455.460866 
L 406.089456 455.122048 
L 408.175297 462.509968 
L 406.813759 467.509366 
L 416.158125 466.713686 
L 419.198607 468.379345 
L 419.610662 462.671303 
z
" clip-path="url(#pe71bbdda98)" style="fill: #d62728; fill-opacity: 0.18"/>
   </g>
   <g id="patch_22">
    <path d="M 420.399928 442.259096 
L 419.876676 438.417594 
L 417.002376 437.30083 
L 412.096023 439.909542 
L 406.681328 444.971394 
L 408.4828 447.355426 
L 420.887621 449.700632 
L 418.089943 445.19383 
z
" clip-path="url(#pe71bbdda98)" style="fill: #d62728; fill-opacity: 0.18"/>
   </g>
   <g id="patch_23">
    <path d="M 430.309374 495.810314 
L 426.367139 493.979009 
L 419.666851 495.981085 
L 420.231202 499.434856 
L 421.343584 507.704611 
L 430.061343 506.215369 
z
" clip-path="url(#pe71bbdda98)" style="fill: #d62728; fill-opacity: 0.18"/>
   </g>
   <g id="patch_24">
    <path d="M 429.687361 464.868128 
L 429.478345 461.764145 
L 422.4534 461.57216 
L 417.403089 459.395343 
L 417.235499 466.445126 
L 427.486989 471.86186 
L 431.241036 473.733721 
z
" clip-path="url(#pe71bbdda98)" style="fill: #d62728; fill-opacity: 0.18"/>
   </g>
   <g id="patch_25">
    <path d="M 433.454791 495.665954 
L 429.654018 492.427465 
L 425.384888 493.922087 
L 424.569807 498.075784 
L 421.887124 503.506249 
L 426.827542 506.343569 
L 436.728294 498.375178 
z
" clip-path="url(#pe71bbdda98)" style="fill: #d62728; fill-opacity: 0.18"/>
   </g>
   <g id="patch_26">
    <path d="M 435.881955 486.971557 
L 437.163292 481.281929 
L 434.106455 481.562138 
L 424.562394 483.126651 
L 422.31154 487.660495 
L 422.429571 494.739737 
L 436.464078 496.766147 
z
" clip-path="url(#pe71bbdda98)" style="fill: #d62728; fill-opacity: 0.18"/>
   </g>
   <g id="patch_27">
    <path d="M 437.862275 452.430518 
L 435.337666 450.176947 
L 425.724099 447.927495 
L 427.346877 451.329115 
L 423.452901 457.217965 
L 424.907435 462.63295 
L 437.358647 455.925547 
z
" clip-path="url(#pe71bbdda98)" style="fill: #d62728; fill-opacity: 0.18"/>
   </g>
   <g id="patch_28">
    <path d="M 451.795852 496.780909 
L 450.532277 492.937676 
L 439.143586 495.016379 
L 442.142406 506.520458 
L 451.622665 501.580005 
z
" clip-path="url(#pe71bbdda98)" style="fill: #d62728; fill-opacity: 0.18"/>
   </g>
   <g id="patch_29">
    <path d="M 452.848742 471.262084 
L 449.539705 471.748671 
L 443.289389 472.980559 
L 440.642928 479.707556 
L 451.96523 485.633956 
L 451.242433 480.052765 
z
" clip-path="url(#pe71bbdda98)" style="fill: #d62728; fill-opacity: 0.18"/>
   </g>
   <g id="patch_30">
    <path d="M 488.199899 425.598538 
L 486.185073 428.793767 
L 486.456042 434.241539 
L 485.856809 439.063849 
L 496.961857 435.83667 
z
" clip-path="url(#pe71bbdda98)" style="fill: #d62728; fill-opacity: 0.18"/>
   </g>
   <g id="patch_31">
    <path d="M 464.452565 495.684932 
L 461.728992 497.982099 
L 455.794325 492.242505 
L 450.01515 506.162306 
L 458.440436 507.448267 
L 461.992234 504.852588 
z
" clip-path="url(#pe71bbdda98)" style="fill: #d62728; fill-opacity: 0.18"/>
   </g>
   <g id="patch_32">
    <path d="M 459.150015 483.25735 
L 451.020761 483.611442 
L 457.605987 488.854761 
z
" clip-path="url(#pe71bbdda98)" style="fill: #d62728; fill-opacity: 0.18"/>
   </g>
   <g id="patch_33">
    <path d="M 456.542284 459.057547 
L 449.698667 461.729814 
L 451.317324 470.176793 
L 457.605987 466.651782 
z
" clip-path="url(#pe71bbdda98)" style="fill: #d62728; fill-opacity: 0.18"/>
   </g>
   <g id="patch_34">
    <path d="M 463.156732 511.05774 
L 458.064225 511.642771 
L 456.196444 515.925016 
z
" clip-path="url(#pe71bbdda98)" style="fill: #d62728; fill-opacity: 0.18"/>
   </g>
   <g id="patch_35">
    <path d="M 482.151948 481.429059 
L 469.739375 480.93027 
L 466.675604 485.358365 
L 469.349152 488.965002 
L 466.364856 490.227915 
L 467.098326 493.034434 
L 466.487721 496.320516 
L 480.316159 493.878924 
z
" clip-path="url(#pe71bbdda98)" style="fill: #d62728; fill-opacity: 0.18"/>
   </g>
   <g id="patch_36">
    <path d="M 469.652948 464.271343 
L 457.936187 473.354298 
L 467.65031 471.330531 
z
" clip-path="url(#pe71bbdda98)" style="fill: #d62728; fill-opacity: 0.18"/>
   </g>
   <g id="patch_37">
    <path d="M 480.518063 476.976017 
L 471.42247 470.955294 
L 469.183079 475.476324 
L 468.801537 482.124799 
L 478.490687 482.38308 
z
" clip-path="url(#pe71bbdda98)" style="fill: #d62728; fill-opacity: 0.18"/>
   </g>
   <g id="patch_38">
    <path d="M 467.576805 283.107554 
L 462.774737 283.017429 
L 463.517691 286.97011 
L 463.951116 291.361735 
L 463.71584 296.120878 
L 466.544485 293.923299 
L 474.640258 294.354546 
L 476.722903 291.219376 
z
" clip-path="url(#pe71bbdda98)" style="fill: #ffbb78; fill-opacity: 0.18"/>
   </g>
   <g id="patch_39">
    <path d="M 470.394792 266.799328 
L 462.031246 271.430959 
L 461.122429 277.611612 
L 466.434597 277.830292 
L 472.042909 277.817308 
z
" clip-path="url(#pe71bbdda98)" style="fill: #ffbb78; fill-opacity: 0.18"/>
   </g>
   <g id="patch_40">
    <path d="M 475.162481 255.629129 
L 460.839914 262.462617 
L 468.707477 261.274227 
z
" clip-path="url(#pe71bbdda98)" style="fill: #ffbb78; fill-opacity: 0.18"/>
   </g>
   <g id="patch_41">
    <path d="M 470.58022 208.119895 
L 463.156732 211.317524 
L 469.63596 215.965285 
z
" clip-path="url(#pe71bbdda98)" style="fill: #ffbb78; fill-opacity: 0.18"/>
   </g>
   <g id="patch_42">
    <path d="M 490.361352 279.306503 
L 490.46576 274.511157 
L 483.343471 272.769349 
L 480.014898 280.497735 
L 480.77219 284.297186 
L 488.112333 285.102315 
z
" clip-path="url(#pe71bbdda98)" style="fill: #ffbb78; fill-opacity: 0.18"/>
   </g>
   <g id="patch_43">
    <path d="M 492.266338 259.212459 
L 481.582042 255.048297 
L 477.74079 257.838595 
L 480.69419 262.096166 
L 478.322002 266.901867 
L 483.486205 265.450106 
L 490.815706 268.502922 
z
" clip-path="url(#pe71bbdda98)" style="fill: #ffbb78; fill-opacity: 0.18"/>
   </g>
   <g id="patch_44">
    <path d="M 480.504578 220.642192 
L 485.359711 227.969758 
L 492.474296 230.739798 
z
" clip-path="url(#pe71bbdda98)" style="fill: #ffbb78; fill-opacity: 0.18"/>
   </g>
   <g id="patch_45">
    <path d="M 507.070087 282.495607 
L 509.983704 281.064006 
L 503.676317 278.190314 
L 497.884391 281.643106 
L 494.395596 284.978643 
L 506.593127 287.312086 
L 509.146417 289.165463 
z
" clip-path="url(#pe71bbdda98)" style="fill: #ffbb78; fill-opacity: 0.18"/>
   </g>
   <g id="patch_46">
    <path d="M 509.851238 220.259377 
L 501.102986 220.486768 
L 495.396093 223.704592 
L 495.709183 227.628884 
L 494.472609 235.561774 
L 505.025428 233.881684 
L 508.670993 228.730053 
z
" clip-path="url(#pe71bbdda98)" style="fill: #ffbb78; fill-opacity: 0.18"/>
   </g>
   <g id="patch_47">
    <path d="M 519.257898 279.217068 
L 516.512711 275.510456 
L 513.113435 283.477206 
L 517.566664 286.439228 
L 519.298267 291.102679 
z
" clip-path="url(#pe71bbdda98)" style="fill: #ffbb78; fill-opacity: 0.18"/>
   </g>
   <g id="patch_48">
    <path d="M 519.953297 268.568912 
L 512.723186 264.78512 
L 506.91933 276.100603 
L 520.038631 279.314722 
L 520.260528 274.659322 
z
" clip-path="url(#pe71bbdda98)" style="fill: #ffbb78; fill-opacity: 0.18"/>
   </g>
   <g id="patch_49">
    <path d="M 517.877439 247.815877 
L 517.19088 243.265714 
L 506.091383 249.515588 
L 505.774754 256.898309 
L 516.499547 254.734505 
L 520.441962 253.534951 
z
" clip-path="url(#pe71bbdda98)" style="fill: #ffbb78; fill-opacity: 0.18"/>
   </g>
   <g id="patch_50">
    <path d="M 530.76354 277.888468 
L 528.426142 275.96336 
L 521.986773 275.706342 
L 516.355523 275.929788 
L 517.130052 279.021067 
L 519.391739 285.081351 
L 520.465105 290.827515 
L 526.107995 287.6285 
z
" clip-path="url(#pe71bbdda98)" style="fill: #ffbb78; fill-opacity: 0.18"/>
   </g>
   <g id="patch_51">
    <path d="M 536.644444 253.291598 
L 535.11917 264.807972 
L 533.311602 268.549992 
L 547.989231 266.647826 
z
" clip-path="url(#pe71bbdda98)" style="fill: #ffbb78; fill-opacity: 0.18"/>
   </g>
   <g id="patch_52">
    <path d="M 541.904847 234.369809 
L 537.168722 233.75567 
L 533.73783 243.265296 
L 544.022035 244.714651 
z
" clip-path="url(#pe71bbdda98)" style="fill: #ffbb78; fill-opacity: 0.18"/>
   </g>
   <g id="patch_53">
    <path d="M 453.258179 68.030567 
L 446.83353 77.265413 
L 459.748594 77.327027 
z
" clip-path="url(#pe71bbdda98)" style="fill: #1f77b4; fill-opacity: 0.18"/>
   </g>
   <g id="patch_54">
    <path d="M 458.567344 53.906942 
L 455.049374 49.882239 
L 444.805444 61.904102 
L 450.896228 60.752106 
L 456.561099 57.378545 
z
" clip-path="url(#pe71bbdda98)" style="fill: #1f77b4; fill-opacity: 0.18"/>
   </g>
   <g id="patch_55">
    <path d="M 461.232341 59.423524 
L 456.954884 72.43464 
L 465.563501 75.016881 
L 470.027724 69.825746 
z
" clip-path="url(#pe71bbdda98)" style="fill: #1f77b4; fill-opacity: 0.18"/>
   </g>
   <g id="patch_56">
    <path d="M 468.03648 39.787236 
L 462.926767 40.561683 
L 455.367645 43.546399 
L 467.573406 52.056724 
z
" clip-path="url(#pe71bbdda98)" style="fill: #1f77b4; fill-opacity: 0.18"/>
   </g>
   <g id="patch_57">
    <path d="M 467.559916 15.762148 
L 455.977552 29.785727 
L 464.509001 28.881534 
L 468.8508 26.216187 
z
" clip-path="url(#pe71bbdda98)" style="fill: #1f77b4; fill-opacity: 0.18"/>
   </g>
   <g id="patch_58">
    <path d="M 474.258222 72.548906 
L 469.52868 73.677399 
L 467.447829 78.748536 
z
" clip-path="url(#pe71bbdda98)" style="fill: #1f77b4; fill-opacity: 0.18"/>
   </g>
   <g id="patch_59">
    <path d="M 481.681942 32.142163 
L 476.331404 34.604181 
L 472.270765 31.976249 
L 468.24231 34.301499 
L 469.30866 45.599714 
L 472.532731 44.239841 
L 475.017177 47.203086 
L 479.048844 39.047757 
z
" clip-path="url(#pe71bbdda98)" style="fill: #1f77b4; fill-opacity: 0.18"/>
   </g>
   <g id="patch_60">
    <path d="M 492.265419 82.324286 
L 484.756206 81.333459 
L 490.910456 89.20114 
z
" clip-path="url(#pe71bbdda98)" style="fill: #1f77b4; fill-opacity: 0.18"/>
   </g>
   <g id="patch_61">
    <path d="M 498.838279 25.6231 
L 485.126657 23.457597 
L 484.739495 28.216762 
L 490.910456 28.142948 
z
" clip-path="url(#pe71bbdda98)" style="fill: #1f77b4; fill-opacity: 0.18"/>
   </g>
   <g id="patch_62">
    <path d="M 514.281255 57.31248 
L 512.941255 53.526985 
L 506.437678 56.731022 
L 501.358736 54.111525 
L 502.021305 60.475702 
L 504.078559 66.667782 
L 507.348467 65.567896 
L 513.41556 61.216388 
z
" clip-path="url(#pe71bbdda98)" style="fill: #1f77b4; fill-opacity: 0.18"/>
   </g>
   <g id="patch_63">
    <path d="M 513.039577 43.600016 
L 508.339663 44.472018 
L 502.069388 43.990066 
L 500.288577 47.572724 
L 499.900184 56.959014 
L 508.179507 55.020885 
L 515.054593 53.262685 
z
" clip-path="url(#pe71bbdda98)" style="fill: #1f77b4; fill-opacity: 0.18"/>
   </g>
   <g id="patch_64">
    <path d="M 514.863034 17.986041 
L 504.211102 15.754631 
L 506.289955 28.196893 
z
" clip-path="url(#pe71bbdda98)" style="fill: #1f77b4; fill-opacity: 0.18"/>
   </g>
   <g id="patch_65">
    <path d="M 518.580654 34.420292 
L 505.132722 31.603229 
L 508.373277 42.185106 
L 508.833496 45.790364 
L 520.607951 46.400894 
z
" clip-path="url(#pe71bbdda98)" style="fill: #1f77b4; fill-opacity: 0.18"/>
   </g>
   <g id="patch_66">
    <path d="M 523.606864 69.393218 
L 511.977607 68.79923 
L 521.503764 79.144165 
z
" clip-path="url(#pe71bbdda98)" style="fill: #1f77b4; fill-opacity: 0.18"/>
   </g>
   <g id="patch_67">
    <path d="M 544.087715 16.089987 
L 536.291677 19.275766 
L 537.285645 26.915259 
L 546.228071 22.36081 
z
" clip-path="url(#pe71bbdda98)" style="fill: #1f77b4; fill-opacity: 0.18"/>
   </g>
   <g id="patch_68">
    <path d="M 202.527256 52.155386 
L 198.152303 50.124866 
L 193.738914 51.869225 
L 189.855959 49.145846 
L 191.988579 57.003237 
L 195.594351 62.402014 
L 199.721924 63.908475 
L 202.036877 57.755639 
z
" clip-path="url(#pe71bbdda98)" style="fill: #2ca02c; fill-opacity: 0.18"/>
   </g>
   <g id="patch_69">
    <path d="M 263.940277 69.244097 
L 274.346231 79.492959 
L 273.281405 74.707347 
z
" clip-path="url(#pe71bbdda98)" style="fill: #2ca02c; fill-opacity: 0.18"/>
   </g>
   <g id="patch_70">
    <path d="M 180.923767 39.554096 
L 178.805323 50.305148 
L 191.465363 49.878093 
z
" clip-path="url(#pe71bbdda98)" style="fill: #2ca02c; fill-opacity: 0.18"/>
   </g>
   <g id="patch_71">
    <path d="M 193.211851 34.088573 
L 193.561716 30.022685 
L 178.671976 32.674183 
L 179.585695 40.431766 
L 190.755507 40.452885 
L 189.849261 35.541495 
z
" clip-path="url(#pe71bbdda98)" style="fill: #2ca02c; fill-opacity: 0.18"/>
   </g>
   <g id="patch_72">
    <path d="M 242.094208 34.283534 
L 228.715052 31.504562 
L 235.576198 39.244438 
z
" clip-path="url(#pe71bbdda98)" style="fill: #2ca02c; fill-opacity: 0.18"/>
   </g>
   <g id="patch_73">
    <path d="M 254.063988 18.259735 
L 250.663358 16.87257 
L 244.903138 17.273338 
L 241.075456 16.753749 
L 239.243856 23.023112 
L 243.880389 27.763102 
L 253.063247 28.146227 
z
" clip-path="url(#pe71bbdda98)" style="fill: #2ca02c; fill-opacity: 0.18"/>
   </g>
   <g id="patch_74">
    <path d="M 250.593728 48.440609 
L 239.09045 49.773785 
L 241.507834 55.998235 
L 244.114451 60.667913 
L 251.486087 61.980749 
z
" clip-path="url(#pe71bbdda98)" style="fill: #2ca02c; fill-opacity: 0.18"/>
   </g>
   <g id="patch_75">
    <path d="M 252.326316 30.385551 
L 246.904495 26.775212 
L 241.145208 27.545796 
L 241.778108 34.860505 
L 239.216771 39.810529 
L 249.793401 39.301924 
L 254.177957 40.490157 
z
" clip-path="url(#pe71bbdda98)" style="fill: #2ca02c; fill-opacity: 0.18"/>
   </g>
   <g id="patch_76">
    <path d="M 254.645704 18.857057 
L 253.301887 15.004127 
L 248.256978 18.371344 
L 246.079127 16.115417 
L 240.549924 19.127094 
L 239.635232 27.718134 
L 254.070038 28.97099 
z
" clip-path="url(#pe71bbdda98)" style="fill: #2ca02c; fill-opacity: 0.18"/>
   </g>
   <g id="patch_77">
    <path d="M 264.06111 53.093385 
L 260.969252 47.939728 
L 250.487113 49.781217 
L 251.213875 52.950471 
L 252.505171 56.489863 
L 250.104231 62.884932 
L 256.656367 62.353094 
L 264.429451 59.614003 
z
" clip-path="url(#pe71bbdda98)" style="fill: #2ca02c; fill-opacity: 0.18"/>
   </g>
   <g id="patch_78">
    <path d="M 269.08268 37.154026 
L 268.880667 44.795182 
L 269.277764 49.656255 
z
" clip-path="url(#pe71bbdda98)" style="fill: #2ca02c; fill-opacity: 0.18"/>
   </g>
   <g id="patch_79">
    <path d="M 276.385317 25.523237 
L 271.086831 20.12534 
L 264.127583 23.563154 
L 263.184426 28.915246 
L 275.483905 35.696788 
L 273.834455 31.033276 
z
" clip-path="url(#pe71bbdda98)" style="fill: #2ca02c; fill-opacity: 0.18"/>
   </g>
   <g id="patch_80">
    <path d="M 298.332489 33.232338 
L 286.623859 34.101696 
L 286.308914 45.281924 
z
" clip-path="url(#pe71bbdda98)" style="fill: #2ca02c; fill-opacity: 0.18"/>
   </g>
   <g id="patch_81">
    <path d="M 284.039951 10.878993 
L 286.214634 18.202415 
L 291.083645 17.041459 
z
" clip-path="url(#pe71bbdda98)" style="fill: #2ca02c; fill-opacity: 0.18"/>
   </g>
   <g id="patch_82">
    <path d="M 52.385809 319.385517 
L 45.770762 317.624811 
L 39.344623 319.795065 
L 40.669192 326.042126 
L 46.315561 328.593298 
L 51.680432 326.07317 
z
" clip-path="url(#pe71bbdda98)" style="fill: #98df8a; fill-opacity: 0.18"/>
   </g>
   <g id="patch_83">
    <path d="M 52.524489 288.804549 
L 40.477725 289.218577 
L 41.100999 297.769869 
L 43.712554 299.720161 
L 51.23604 301.631457 
L 53.759159 296.811892 
z
" clip-path="url(#pe71bbdda98)" style="fill: #98df8a; fill-opacity: 0.18"/>
   </g>
   <g id="patch_84">
    <path d="M 84.813894 345.658073 
L 87.224286 357.006727 
L 93.536747 354.876296 
L 97.557488 353.757013 
z
" clip-path="url(#pe71bbdda98)" style="fill: #98df8a; fill-opacity: 0.18"/>
   </g>
   <g id="patch_85">
    <path d="M 90.762546 317.567511 
L 88.461428 315.975058 
L 83.644153 314.574794 
L 78.066225 317.700236 
L 80.552519 321.716239 
L 84.240472 326.621643 
L 86.369618 328.645917 
L 92.855922 326.757958 
z
" clip-path="url(#pe71bbdda98)" style="fill: #98df8a; fill-opacity: 0.18"/>
   </g>
   <g id="patch_86">
    <path d="M 87.933181 303.373381 
L 84.490583 300.91774 
L 82.688195 297.875395 
L 72.981376 305.56977 
L 72.849139 312.494685 
L 85.187632 305.76945 
z
" clip-path="url(#pe71bbdda98)" style="fill: #98df8a; fill-opacity: 0.18"/>
   </g>
   <g id="patch_87">
    <path d="M 73.618159 293.114435 
L 72.040315 289.083037 
L 66.362372 287.379947 
L 63.726587 291.285655 
L 61.932323 296.20458 
L 65.47038 299.770719 
L 76.618056 302.57568 
L 74.739208 300.207019 
z
" clip-path="url(#pe71bbdda98)" style="fill: #98df8a; fill-opacity: 0.18"/>
   </g>
   <g id="patch_88">
    <path d="M 81.082507 278.232443 
L 69.185548 281.51417 
L 70.246397 288.918669 
L 81.412334 289.869781 
z
" clip-path="url(#pe71bbdda98)" style="fill: #aec7e8; fill-opacity: 0.18"/>
   </g>
   <g id="patch_89">
    <path d="M 56.658447 280.085146 
L 49.129358 276.011623 
L 46.402572 284.133591 
L 49.024332 291.177307 
L 51.458514 288.008725 
L 56.049435 288.721169 
z
" clip-path="url(#pe71bbdda98)" style="fill: #ff7f0e; fill-opacity: 0.18"/>
   </g>
   <g id="patch_90">
    <path d="M 96.466104 290.281842 
L 84.154684 291.546695 
L 85.672263 296.973886 
L 85.503899 301.002714 
L 88.394564 300.008755 
L 95.577038 301.680905 
L 93.090669 298.91841 
z
" clip-path="url(#pe71bbdda98)" style="fill: #98df8a; fill-opacity: 0.18"/>
   </g>
   <g id="patch_91">
    <path d="M 115.711984 293.745644 
L 107.281814 294.271483 
L 100.103367 305.204755 
L 104.744939 305.533198 
L 115.470527 306.05272 
L 113.35582 302.175393 
z
" clip-path="url(#pe71bbdda98)" style="fill: #98df8a; fill-opacity: 0.18"/>
   </g>
   <g id="patch_92">
    <path d="M 107.883583 293.651065 
L 101.694751 289.038838 
L 96.562826 293.873755 
L 95.445011 296.641446 
L 103.63227 300.741388 
L 107.813518 299.224837 
L 109.656348 296.860751 
z
" clip-path="url(#pe71bbdda98)" style="fill: #98df8a; fill-opacity: 0.18"/>
   </g>
   <g id="patch_93">
    <path d="M 99.238284 284.304468 
L 95.077342 281.693535 
L 83.742965 286.050769 
L 86.872962 292.411787 
L 87.323626 296.066843 
L 95.931644 292.660221 
z
" clip-path="url(#pe71bbdda98)" style="fill: #aec7e8; fill-opacity: 0.18"/>
   </g>
   <g id="patch_94">
    <path d="M 107.305088 264.891139 
L 96.629118 265.290358 
L 102.429548 279.45637 
L 106.073985 277.21093 
L 109.848346 274.814827 
z
" clip-path="url(#pe71bbdda98)" style="fill: #aec7e8; fill-opacity: 0.18"/>
   </g>
   <g id="patch_95">
    <path d="M 118.435818 271.147774 
L 112.402783 265.010317 
L 113.459814 272.375716 
L 117.345403 278.998213 
z
" clip-path="url(#pe71bbdda98)" style="fill: #aec7e8; fill-opacity: 0.18"/>
   </g>
   <g id="patch_96">
    <path d="M 86.015914 265.653102 
L 86.312233 262.464336 
L 77.995857 261.013424 
L 74.543372 264.174356 
L 72.255244 269.024142 
L 74.891639 270.927865 
L 79.029782 271.394284 
z
" clip-path="url(#pe71bbdda98)" style="fill: #aec7e8; fill-opacity: 0.18"/>
   </g>
   <g id="patch_97">
    <path d="M 107.226627 261.523373 
L 102.093089 261.35829 
L 98.133869 272.059312 
L 108.795623 269.772603 
z
" clip-path="url(#pe71bbdda98)" style="fill: #aec7e8; fill-opacity: 0.18"/>
   </g>
   <g id="patch_98">
    <path d="M 135.929055 259.262581 
L 128.684313 260.558845 
L 125.792674 261.866035 
L 125.081766 265.172508 
L 122.351488 267.77285 
L 124.737471 271.934771 
L 127.888893 271.428979 
L 134.219657 266.718303 
z
" clip-path="url(#pe71bbdda98)" style="fill: #aec7e8; fill-opacity: 0.18"/>
   </g>
   <g id="patch_99">
    <path d="M 160.51317 204.885768 
L 150.60838 216.503395 
L 158.450075 216.592882 
z
" clip-path="url(#pe71bbdda98)" style="fill: #2ca02c; fill-opacity: 0.18"/>
   </g>
   <g id="patch_100">
    <path d="M 107.831089 237.387533 
L 109.978693 234.233323 
L 94.951425 236.398132 
L 95.601373 246.181662 
L 101.591826 245.515726 
L 106.42545 245.062601 
z
" clip-path="url(#pe71bbdda98)" style="fill: #aec7e8; fill-opacity: 0.18"/>
   </g>
   <g id="patch_101">
    <path d="M 117.221041 227.09525 
L 113.459814 233.520503 
L 119.049109 232.014911 
z
" clip-path="url(#pe71bbdda98)" style="fill: #aec7e8; fill-opacity: 0.18"/>
   </g>
   <g id="patch_102">
    <path d="M 97.54947 238.556502 
L 84.739376 240.331241 
L 92.288113 251.337071 
L 96.083444 249.703893 
L 99.131825 247.045146 
z
" clip-path="url(#pe71bbdda98)" style="fill: #ffbb78; fill-opacity: 0.18"/>
   </g>
   <g id="patch_103">
    <path d="M 85.83185 243.951961 
L 82.616456 243.954979 
L 76.037609 243.892517 
L 80.047056 255.990494 
L 87.125718 252.423521 
L 84.217133 249.554651 
z
" clip-path="url(#pe71bbdda98)" style="fill: #aec7e8; fill-opacity: 0.18"/>
   </g>
   <g id="patch_104">
    <path d="M 108.987847 210.608663 
L 101.377558 206.578824 
L 96.862089 206.104784 
L 95.51851 214.310729 
L 95.000523 218.320615 
L 102.281449 218.975782 
z
" clip-path="url(#pe71bbdda98)" style="fill: #aec7e8; fill-opacity: 0.18"/>
   </g>
   <g id="patch_105">
    <path d="M 98.634506 218.638346 
L 92.056739 216.461175 
L 87.92619 216.799604 
L 85.139428 221.497089 
L 84.764457 230.07435 
L 87.274992 228.032053 
z
" clip-path="url(#pe71bbdda98)" style="fill: #aec7e8; fill-opacity: 0.18"/>
   </g>
   <g id="patch_106">
    <path d="M 72.527483 233.788703 
L 68.659606 234.52173 
L 62.74743 236.098375 
L 62.850124 244.058352 
L 66.280358 245.604622 
L 73.929102 245.513159 
z
" clip-path="url(#pe71bbdda98)" style="fill: #aec7e8; fill-opacity: 0.18"/>
   </g>
   <g id="patch_107">
    <path d="M 71.750766 225.59276 
L 69.876344 229.113027 
L 67.330314 233.681156 
L 71.949508 240.839823 
L 79.824811 237.997578 
L 79.187892 234.023755 
z
" clip-path="url(#pe71bbdda98)" style="fill: #aec7e8; fill-opacity: 0.18"/>
   </g>
   <g id="patch_108">
    <path d="M 80.126172 209.484218 
L 72.630813 216.495501 
L 80.873445 221.13145 
L 83.811664 223.650785 
L 86.829609 218.778873 
z
" clip-path="url(#pe71bbdda98)" style="fill: #aec7e8; fill-opacity: 0.18"/>
   </g>
   <g id="patch_109">
    <path d="M 153.972766 331.445185 
L 150.665853 328.348335 
L 144.706072 327.26587 
L 140.162472 333.982298 
L 144.74256 340.155861 
L 153.773501 341.048025 
z
" clip-path="url(#pe71bbdda98)" style="fill: #98df8a; fill-opacity: 0.18"/>
   </g>
   <g id="patch_110">
    <path d="M 179.685143 303.086747 
L 172.823737 299.695761 
L 168.595403 305.906273 
L 173.109491 313.53971 
L 179.984747 308.897788 
z
" clip-path="url(#pe71bbdda98)" style="fill: #d62728; fill-opacity: 0.18"/>
   </g>
   <g id="patch_111">
    <path d="M 165.482198 236.272325 
L 161.217155 233.300846 
L 152.790442 239.955587 
L 158.234071 246.301865 
z
" clip-path="url(#pe71bbdda98)" style="fill: #1f77b4; fill-opacity: 0.18"/>
   </g>
   <g id="patch_112">
    <path d="M 68.212904 288.221616 
L 61.771481 290.381854 
L 57.940789 292.293825 
L 60.946532 299.849176 
z
" clip-path="url(#pe71bbdda98)" style="fill: #98df8a; fill-opacity: 0.18"/>
   </g>
   <g id="patch_113">
    <path d="M 82.26663 318.1842 
L 67.110059 310.055452 
L 68.190189 314.514958 
L 66.912851 317.20912 
L 66.91638 322.111655 
L 74.074045 323.322236 
L 77.268513 321.792452 
L 81.373143 323.590169 
z
" clip-path="url(#pe71bbdda98)" style="fill: #98df8a; fill-opacity: 0.18"/>
   </g>
   <g id="patch_114">
    <path d="M 98.373925 337.316245 
L 90.07931 339.386598 
L 86.603603 347.528257 
L 90.702457 350.079132 
z
" clip-path="url(#pe71bbdda98)" style="fill: #98df8a; fill-opacity: 0.18"/>
   </g>
   <g id="patch_115">
    <path d="M 134.827047 313.708969 
L 130.112048 311.230929 
L 128.363497 318.492592 
z
" clip-path="url(#pe71bbdda98)" style="fill: #98df8a; fill-opacity: 0.18"/>
   </g>
   <g id="patch_116">
    <path d="M 157.865772 261.274227 
L 153.147573 264.415673 
L 164.464339 267.070462 
z
" clip-path="url(#pe71bbdda98)" style="fill: #aec7e8; fill-opacity: 0.18"/>
   </g>
   <g id="patch_117">
    <path d="M 136.907633 229.81269 
L 137.551795 224.452454 
L 134.465273 225.93098 
L 130.112048 227.969758 
L 131.372632 233.935886 
L 134.505785 235.421909 
L 138.090849 235.649877 
z
" clip-path="url(#pe71bbdda98)" style="fill: #aec7e8; fill-opacity: 0.18"/>
   </g>
   <g id="patch_118">
    <path d="M 87.515081 326.052773 
L 80.155346 333.433908 
L 87.848968 333.657384 
z
" clip-path="url(#pe71bbdda98)" style="fill: #98df8a; fill-opacity: 0.18"/>
   </g>
   <g id="patch_119">
    <path d="M 137.611692 323.598149 
L 130.808695 317.879616 
L 123.409224 318.800389 
L 124.280954 325.84434 
L 124.304572 330.26356 
L 128.055944 328.932354 
L 136.0353 327.274306 
z
" clip-path="url(#pe71bbdda98)" style="fill: #98df8a; fill-opacity: 0.18"/>
   </g>
   <g id="patch_120">
    <path d="M 25.251925 293.667928 
L 21.93169 289.692849 
L 16.04732 289.540504 
L 12.319536 295.804471 
L 21.993072 301.633962 
z
" clip-path="url(#pe71bbdda98)" style="fill: #98df8a; fill-opacity: 0.18"/>
   </g>
   <g id="patch_121">
    <path d="M 25.802549 231.50533 
L 11.450769 231.618022 
L 19.013775 243.634415 
L 24.3841 245.757644 
z
" clip-path="url(#pe71bbdda98)" style="fill: #aec7e8; fill-opacity: 0.18"/>
   </g>
   <g id="line2d_1">
    <path d="M 131.225252 505.521508 
L 126.270261 506.782901 
L 122.795249 503.236003 
L 124.366244 509.998935 
L 124.798638 515.664276 
L 128.199163 518.828668 
L 136.105836 518.561864 
L 136.513976 514.438967 
L 131.225252 505.521508 
" clip-path="url(#pe71bbdda98)" style="fill: none; stroke: #ff7f0e; stroke-width: 0.6; stroke-linecap: square"/>
   </g>
   <g id="line2d_2">
    <path d="M 134.552061 500.286314 
L 137.763129 492.696679 
L 132.668627 494.714795 
L 129.48952 494.933359 
L 124.425245 502.677376 
L 129.872806 507.159812 
L 132.675641 505.264608 
L 137.406905 507.294869 
L 134.552061 500.286314 
" clip-path="url(#pe71bbdda98)" style="fill: none; stroke: #ff7f0e; stroke-width: 0.6; stroke-linecap: square"/>
   </g>
   <g id="line2d_3">
    <path d="M 169.565844 483.123843 
L 163.416517 488.854761 
L 169.51096 490.421275 
L 169.565844 483.123843 
" clip-path="url(#pe71bbdda98)" style="fill: none; stroke: #ff7f0e; stroke-width: 0.6; stroke-linecap: square"/>
   </g>
   <g id="line2d_4">
    <path d="M 174.419193 484.105668 
L 161.536501 485.839341 
L 163.507516 496.497206 
L 174.419193 484.105668 
" clip-path="url(#pe71bbdda98)" style="fill: none; stroke: #ff7f0e; stroke-width: 0.6; stroke-linecap: square"/>
   </g>
   <g id="line2d_5">
    <path d="M 163.416517 477.753271 
L 159.663928 483.489261 
L 164.414491 482.274723 
L 163.416517 477.753271 
" clip-path="url(#pe71bbdda98)" style="fill: none; stroke: #ff7f0e; stroke-width: 0.6; stroke-linecap: square"/>
   </g>
   <g id="line2d_6">
    <path d="M 175.981876 463.849176 
L 170.155944 460.871073 
L 167.004499 461.781591 
L 162.085555 467.297497 
L 162.061415 471.643406 
L 165.587308 470.963227 
L 175.981876 463.849176 
" clip-path="url(#pe71bbdda98)" style="fill: none; stroke: #ff7f0e; stroke-width: 0.6; stroke-linecap: square"/>
   </g>
   <g id="line2d_7">
    <path d="M 187.446221 466.236334 
L 182.698045 459.451385 
L 177.618898 460.271997 
L 175.211737 458.834757 
L 174.585478 468.353735 
L 178.517955 473.61589 
L 184.519787 474.374854 
L 187.547223 470.534634 
L 187.446221 466.236334 
" clip-path="url(#pe71bbdda98)" style="fill: none; stroke: #ff7f0e; stroke-width: 0.6; stroke-linecap: square"/>
   </g>
   <g id="line2d_8">
    <path d="M 246.725769 461.302754 
L 246.677688 466.651782 
L 251.008859 465.998084 
L 246.725769 461.302754 
" clip-path="url(#pe71bbdda98)" style="fill: none; stroke: #ff7f0e; stroke-width: 0.6; stroke-linecap: square"/>
   </g>
   <g id="line2d_9">
    <path d="M 190.435269 472.276729 
L 187.759551 473.025411 
L 184.574702 473.431447 
L 179.434597 471.248365 
L 179.054964 477.904798 
L 177.944679 482.559454 
L 188.877586 482.613386 
L 191.646702 485.516982 
L 190.435269 472.276729 
" clip-path="url(#pe71bbdda98)" style="fill: none; stroke: #ff7f0e; stroke-width: 0.6; stroke-linecap: square"/>
   </g>
   <g id="line2d_10">
    <path d="M 182.315972 475.606602 
L 173.815136 475.762208 
L 172.935879 482.83188 
L 184.083235 491.017147 
L 182.315972 475.606602 
" clip-path="url(#pe71bbdda98)" style="fill: none; stroke: #ff7f0e; stroke-width: 0.6; stroke-linecap: square"/>
   </g>
   <g id="line2d_11">
    <path d="M 192.553907 485.415955 
L 184.5022 482.90086 
L 181.222543 487.297651 
L 182.033975 496.302202 
L 191.302984 493.690679 
L 192.553907 485.415955 
" clip-path="url(#pe71bbdda98)" style="fill: none; stroke: #ff7f0e; stroke-width: 0.6; stroke-linecap: square"/>
   </g>
   <g id="line2d_12">
    <path d="M 252.162945 476.163428 
L 252.228432 483.304016 
L 256.516543 483.911541 
L 252.162945 476.163428 
" clip-path="url(#pe71bbdda98)" style="fill: none; stroke: #ff7f0e; stroke-width: 0.6; stroke-linecap: square"/>
   </g>
   <g id="line2d_13">
    <path d="M 220.064973 485.797328 
L 206.428023 480.899536 
L 206.631255 484.8861 
L 206.151527 488.079716 
L 207.606829 496.626356 
L 212.480633 495.185614 
L 219.620321 493.480783 
L 220.064973 485.797328 
" clip-path="url(#pe71bbdda98)" style="fill: none; stroke: #ff7f0e; stroke-width: 0.6; stroke-linecap: square"/>
   </g>
   <g id="line2d_14">
    <path d="M 207.109228 494.404987 
L 203.088629 493.143536 
L 202.818381 507.690734 
L 214.322631 506.062547 
L 212.318686 502.991603 
L 207.109228 494.404987 
" clip-path="url(#pe71bbdda98)" style="fill: none; stroke: #ff7f0e; stroke-width: 0.6; stroke-linecap: square"/>
   </g>
   <g id="line2d_15">
    <path d="M 198.616884 492.913164 
L 190.840954 495.297098 
L 188.858037 492.010875 
L 183.644914 496.868994 
L 189.925107 507.254719 
L 192.797742 504.242632 
L 197.540415 507.199707 
L 197.330541 502.442997 
L 198.616884 492.913164 
" clip-path="url(#pe71bbdda98)" style="fill: none; stroke: #ff7f0e; stroke-width: 0.6; stroke-linecap: square"/>
   </g>
   <g id="line2d_16">
    <path d="M 400.951746 479.632755 
L 392.358024 483.575351 
L 399.467671 489.069238 
L 403.777678 490.92479 
L 400.951746 479.632755 
" clip-path="url(#pe71bbdda98)" style="fill: none; stroke: #d62728; stroke-width: 0.6; stroke-linecap: square"/>
   </g>
   <g id="line2d_17">
    <path d="M 401.408458 466.859921 
L 389.693318 464.755946 
L 391.38448 474.799693 
L 391.435781 479.544338 
L 401.71259 476.866599 
L 401.408458 466.859921 
" clip-path="url(#pe71bbdda98)" style="fill: none; stroke: #d62728; stroke-width: 0.6; stroke-linecap: square"/>
   </g>
   <g id="line2d_18">
    <path d="M 130.089628 312.487505 
L 124.527253 311.094703 
L 117.712392 312.115655 
L 120.242703 314.861157 
L 117.683373 318.193953 
L 120.338761 321.973461 
L 129.959189 321.300263 
L 131.575679 317.998435 
L 130.089628 312.487505 
" clip-path="url(#pe71bbdda98)" style="fill: none; stroke: #98df8a; stroke-width: 0.6; stroke-linecap: square"/>
   </g>
   <g id="line2d_19">
    <path d="M 420.666561 479.159546 
L 417.984318 477.18557 
L 413.135442 477.091014 
L 406.686507 477.059707 
L 406.136874 483.118282 
L 408.930958 483.813838 
L 407.411883 487.473299 
L 420.108526 481.935012 
L 420.666561 479.159546 
" clip-path="url(#pe71bbdda98)" style="fill: none; stroke: #d62728; stroke-width: 0.6; stroke-linecap: square"/>
   </g>
   <g id="line2d_20">
    <path d="M 414.416393 455.68835 
L 409.686932 455.460866 
L 406.089456 455.122048 
L 408.175297 462.509968 
L 406.813759 467.509366 
L 416.158125 466.713686 
L 419.198607 468.379345 
L 419.610662 462.671303 
L 414.416393 455.68835 
" clip-path="url(#pe71bbdda98)" style="fill: none; stroke: #d62728; stroke-width: 0.6; stroke-linecap: square"/>
   </g>
   <g id="line2d_21">
    <path d="M 420.399928 442.259096 
L 419.876676 438.417594 
L 417.002376 437.30083 
L 412.096023 439.909542 
L 406.681328 444.971394 
L 408.4828 447.355426 
L 420.887621 449.700632 
L 418.089943 445.19383 
L 420.399928 442.259096 
" clip-path="url(#pe71bbdda98)" style="fill: none; stroke: #d62728; stroke-width: 0.6; stroke-linecap: square"/>
   </g>
   <g id="line2d_22">
    <path d="M 430.309374 495.810314 
L 426.367139 493.979009 
L 419.666851 495.981085 
L 420.231202 499.434856 
L 421.343584 507.704611 
L 430.061343 506.215369 
L 430.309374 495.810314 
" clip-path="url(#pe71bbdda98)" style="fill: none; stroke: #d62728; stroke-width: 0.6; stroke-linecap: square"/>
   </g>
   <g id="line2d_23">
    <path d="M 429.687361 464.868128 
L 429.478345 461.764145 
L 422.4534 461.57216 
L 417.403089 459.395343 
L 417.235499 466.445126 
L 427.486989 471.86186 
L 431.241036 473.733721 
L 429.687361 464.868128 
" clip-path="url(#pe71bbdda98)" style="fill: none; stroke: #d62728; stroke-width: 0.6; stroke-linecap: square"/>
   </g>
   <g id="line2d_24">
    <path d="M 433.454791 495.665954 
L 429.654018 492.427465 
L 425.384888 493.922087 
L 424.569807 498.075784 
L 421.887124 503.506249 
L 426.827542 506.343569 
L 436.728294 498.375178 
L 433.454791 495.665954 
" clip-path="url(#pe71bbdda98)" style="fill: none; stroke: #d62728; stroke-width: 0.6; stroke-linecap: square"/>
   </g>
   <g id="line2d_25">
    <path d="M 435.881955 486.971557 
L 437.163292 481.281929 
L 434.106455 481.562138 
L 424.562394 483.126651 
L 422.31154 487.660495 
L 422.429571 494.739737 
L 436.464078 496.766147 
L 435.881955 486.971557 
" clip-path="url(#pe71bbdda98)" style="fill: none; stroke: #d62728; stroke-width: 0.6; stroke-linecap: square"/>
   </g>
   <g id="line2d_26">
    <path d="M 437.862275 452.430518 
L 435.337666 450.176947 
L 425.724099 447.927495 
L 427.346877 451.329115 
L 423.452901 457.217965 
L 424.907435 462.63295 
L 437.358647 455.925547 
L 437.862275 452.430518 
" clip-path="url(#pe71bbdda98)" style="fill: none; stroke: #d62728; stroke-width: 0.6; stroke-linecap: square"/>
   </g>
   <g id="line2d_27">
    <path d="M 451.795852 496.780909 
L 450.532277 492.937676 
L 439.143586 495.016379 
L 442.142406 506.520458 
L 451.622665 501.580005 
L 451.795852 496.780909 
" clip-path="url(#pe71bbdda98)" style="fill: none; stroke: #d62728; stroke-width: 0.6; stroke-linecap: square"/>
   </g>
   <g id="line2d_28">
    <path d="M 452.848742 471.262084 
L 449.539705 471.748671 
L 443.289389 472.980559 
L 440.642928 479.707556 
L 451.96523 485.633956 
L 451.242433 480.052765 
L 452.848742 471.262084 
" clip-path="url(#pe71bbdda98)" style="fill: none; stroke: #d62728; stroke-width: 0.6; stroke-linecap: square"/>
   </g>
   <g id="line2d_29">
    <path d="M 488.199899 425.598538 
L 486.185073 428.793767 
L 486.456042 434.241539 
L 485.856809 439.063849 
L 496.961857 435.83667 
L 488.199899 425.598538 
" clip-path="url(#pe71bbdda98)" style="fill: none; stroke: #d62728; stroke-width: 0.6; stroke-linecap: square"/>
   </g>
   <g id="line2d_30">
    <path d="M 464.452565 495.684932 
L 461.728992 497.982099 
L 455.794325 492.242505 
L 450.01515 506.162306 
L 458.440436 507.448267 
L 461.992234 504.852588 
L 464.452565 495.684932 
" clip-path="url(#pe71bbdda98)" style="fill: none; stroke: #d62728; stroke-width: 0.6; stroke-linecap: square"/>
   </g>
   <g id="line2d_31">
    <path d="M 459.150015 483.25735 
L 451.020761 483.611442 
L 457.605987 488.854761 
L 459.150015 483.25735 
" clip-path="url(#pe71bbdda98)" style="fill: none; stroke: #d62728; stroke-width: 0.6; stroke-linecap: square"/>
   </g>
   <g id="line2d_32">
    <path d="M 456.542284 459.057547 
L 449.698667 461.729814 
L 451.317324 470.176793 
L 457.605987 466.651782 
L 456.542284 459.057547 
" clip-path="url(#pe71bbdda98)" style="fill: none; stroke: #d62728; stroke-width: 0.6; stroke-linecap: square"/>
   </g>
   <g id="line2d_33">
    <path d="M 463.156732 511.05774 
L 458.064225 511.642771 
L 456.196444 515.925016 
L 463.156732 511.05774 
" clip-path="url(#pe71bbdda98)" style="fill: none; stroke: #d62728; stroke-width: 0.6; stroke-linecap: square"/>
   </g>
   <g id="line2d_34">
    <path d="M 482.151948 481.429059 
L 469.739375 480.93027 
L 466.675604 485.358365 
L 469.349152 488.965002 
L 466.364856 490.227915 
L 467.098326 493.034434 
L 466.487721 496.320516 
L 480.316159 493.878924 
L 482.151948 481.429059 
" clip-path="url(#pe71bbdda98)" style="fill: none; stroke: #d62728; stroke-width: 0.6; stroke-linecap: square"/>
   </g>
   <g id="line2d_35">
    <path d="M 469.652948 464.271343 
L 457.936187 473.354298 
L 467.65031 471.330531 
L 469.652948 464.271343 
" clip-path="url(#pe71bbdda98)" style="fill: none; stroke: #d62728; stroke-width: 0.6; stroke-linecap: square"/>
   </g>
   <g id="line2d_36">
    <path d="M 480.518063 476.976017 
L 471.42247 470.955294 
L 469.183079 475.476324 
L 468.801537 482.124799 
L 478.490687 482.38308 
L 480.518063 476.976017 
" clip-path="url(#pe71bbdda98)" style="fill: none; stroke: #d62728; stroke-width: 0.6; stroke-linecap: square"/>
   </g>
   <g id="line2d_37">
    <path d="M 467.576805 283.107554 
L 462.774737 283.017429 
L 463.517691 286.97011 
L 463.951116 291.361735 
L 463.71584 296.120878 
L 466.544485 293.923299 
L 474.640258 294.354546 
L 476.722903 291.219376 
L 467.576805 283.107554 
" clip-path="url(#pe71bbdda98)" style="fill: none; stroke: #ffbb78; stroke-width: 0.6; stroke-linecap: square"/>
   </g>
   <g id="line2d_38">
    <path d="M 470.394792 266.799328 
L 462.031246 271.430959 
L 461.122429 277.611612 
L 466.434597 277.830292 
L 472.042909 277.817308 
L 470.394792 266.799328 
" clip-path="url(#pe71bbdda98)" style="fill: none; stroke: #ffbb78; stroke-width: 0.6; stroke-linecap: square"/>
   </g>
   <g id="line2d_39">
    <path d="M 475.162481 255.629129 
L 460.839914 262.462617 
L 468.707477 261.274227 
L 475.162481 255.629129 
" clip-path="url(#pe71bbdda98)" style="fill: none; stroke: #ffbb78; stroke-width: 0.6; stroke-linecap: square"/>
   </g>
   <g id="line2d_40">
    <path d="M 470.58022 208.119895 
L 463.156732 211.317524 
L 469.63596 215.965285 
L 470.58022 208.119895 
" clip-path="url(#pe71bbdda98)" style="fill: none; stroke: #ffbb78; stroke-width: 0.6; stroke-linecap: square"/>
   </g>
   <g id="line2d_41">
    <path d="M 490.361352 279.306503 
L 490.46576 274.511157 
L 483.343471 272.769349 
L 480.014898 280.497735 
L 480.77219 284.297186 
L 488.112333 285.102315 
L 490.361352 279.306503 
" clip-path="url(#pe71bbdda98)" style="fill: none; stroke: #ffbb78; stroke-width: 0.6; stroke-linecap: square"/>
   </g>
   <g id="line2d_42">
    <path d="M 492.266338 259.212459 
L 481.582042 255.048297 
L 477.74079 257.838595 
L 480.69419 262.096166 
L 478.322002 266.901867 
L 483.486205 265.450106 
L 490.815706 268.502922 
L 492.266338 259.212459 
" clip-path="url(#pe71bbdda98)" style="fill: none; stroke: #ffbb78; stroke-width: 0.6; stroke-linecap: square"/>
   </g>
   <g id="line2d_43">
    <path d="M 480.504578 220.642192 
L 485.359711 227.969758 
L 492.474296 230.739798 
L 480.504578 220.642192 
" clip-path="url(#pe71bbdda98)" style="fill: none; stroke: #ffbb78; stroke-width: 0.6; stroke-linecap: square"/>
   </g>
   <g id="line2d_44">
    <path d="M 507.070087 282.495607 
L 509.983704 281.064006 
L 503.676317 278.190314 
L 497.884391 281.643106 
L 494.395596 284.978643 
L 506.593127 287.312086 
L 509.146417 289.165463 
L 507.070087 282.495607 
" clip-path="url(#pe71bbdda98)" style="fill: none; stroke: #ffbb78; stroke-width: 0.6; stroke-linecap: square"/>
   </g>
   <g id="line2d_45">
    <path d="M 509.851238 220.259377 
L 501.102986 220.486768 
L 495.396093 223.704592 
L 495.709183 227.628884 
L 494.472609 235.561774 
L 505.025428 233.881684 
L 508.670993 228.730053 
L 509.851238 220.259377 
" clip-path="url(#pe71bbdda98)" style="fill: none; stroke: #ffbb78; stroke-width: 0.6; stroke-linecap: square"/>
   </g>
   <g id="line2d_46">
    <path d="M 519.257898 279.217068 
L 516.512711 275.510456 
L 513.113435 283.477206 
L 517.566664 286.439228 
L 519.298267 291.102679 
L 519.257898 279.217068 
" clip-path="url(#pe71bbdda98)" style="fill: none; stroke: #ffbb78; stroke-width: 0.6; stroke-linecap: square"/>
   </g>
   <g id="line2d_47">
    <path d="M 519.953297 268.568912 
L 512.723186 264.78512 
L 506.91933 276.100603 
L 520.038631 279.314722 
L 520.260528 274.659322 
L 519.953297 268.568912 
" clip-path="url(#pe71bbdda98)" style="fill: none; stroke: #ffbb78; stroke-width: 0.6; stroke-linecap: square"/>
   </g>
   <g id="line2d_48">
    <path d="M 517.877439 247.815877 
L 517.19088 243.265714 
L 506.091383 249.515588 
L 505.774754 256.898309 
L 516.499547 254.734505 
L 520.441962 253.534951 
L 517.877439 247.815877 
" clip-path="url(#pe71bbdda98)" style="fill: none; stroke: #ffbb78; stroke-width: 0.6; stroke-linecap: square"/>
   </g>
   <g id="line2d_49">
    <path d="M 530.76354 277.888468 
L 528.426142 275.96336 
L 521.986773 275.706342 
L 516.355523 275.929788 
L 517.130052 279.021067 
L 519.391739 285.081351 
L 520.465105 290.827515 
L 526.107995 287.6285 
L 530.76354 277.888468 
" clip-path="url(#pe71bbdda98)" style="fill: none; stroke: #ffbb78; stroke-width: 0.6; stroke-linecap: square"/>
   </g>
   <g id="line2d_50">
    <path d="M 536.644444 253.291598 
L 535.11917 264.807972 
L 533.311602 268.549992 
L 547.989231 266.647826 
L 536.644444 253.291598 
" clip-path="url(#pe71bbdda98)" style="fill: none; stroke: #ffbb78; stroke-width: 0.6; stroke-linecap: square"/>
   </g>
   <g id="line2d_51">
    <path d="M 541.904847 234.369809 
L 537.168722 233.75567 
L 533.73783 243.265296 
L 544.022035 244.714651 
L 541.904847 234.369809 
" clip-path="url(#pe71bbdda98)" style="fill: none; stroke: #ffbb78; stroke-width: 0.6; stroke-linecap: square"/>
   </g>
   <g id="line2d_52">
    <path d="M 453.258179 68.030567 
L 446.83353 77.265413 
L 459.748594 77.327027 
L 453.258179 68.030567 
" clip-path="url(#pe71bbdda98)" style="fill: none; stroke: #1f77b4; stroke-width: 0.6; stroke-linecap: square"/>
   </g>
   <g id="line2d_53">
    <path d="M 458.567344 53.906942 
L 455.049374 49.882239 
L 444.805444 61.904102 
L 450.896228 60.752106 
L 456.561099 57.378545 
L 458.567344 53.906942 
" clip-path="url(#pe71bbdda98)" style="fill: none; stroke: #1f77b4; stroke-width: 0.6; stroke-linecap: square"/>
   </g>
   <g id="line2d_54">
    <path d="M 461.232341 59.423524 
L 456.954884 72.43464 
L 465.563501 75.016881 
L 470.027724 69.825746 
L 461.232341 59.423524 
" clip-path="url(#pe71bbdda98)" style="fill: none; stroke: #1f77b4; stroke-width: 0.6; stroke-linecap: square"/>
   </g>
   <g id="line2d_55">
    <path d="M 468.03648 39.787236 
L 462.926767 40.561683 
L 455.367645 43.546399 
L 467.573406 52.056724 
L 468.03648 39.787236 
" clip-path="url(#pe71bbdda98)" style="fill: none; stroke: #1f77b4; stroke-width: 0.6; stroke-linecap: square"/>
   </g>
   <g id="line2d_56">
    <path d="M 467.559916 15.762148 
L 455.977552 29.785727 
L 464.509001 28.881534 
L 468.8508 26.216187 
L 467.559916 15.762148 
" clip-path="url(#pe71bbdda98)" style="fill: none; stroke: #1f77b4; stroke-width: 0.6; stroke-linecap: square"/>
   </g>
   <g id="line2d_57">
    <path d="M 474.258222 72.548906 
L 469.52868 73.677399 
L 467.447829 78.748536 
L 474.258222 72.548906 
" clip-path="url(#pe71bbdda98)" style="fill: none; stroke: #1f77b4; stroke-width: 0.6; stroke-linecap: square"/>
   </g>
   <g id="line2d_58">
    <path d="M 481.681942 32.142163 
L 476.331404 34.604181 
L 472.270765 31.976249 
L 468.24231 34.301499 
L 469.30866 45.599714 
L 472.532731 44.239841 
L 475.017177 47.203086 
L 479.048844 39.047757 
L 481.681942 32.142163 
" clip-path="url(#pe71bbdda98)" style="fill: none; stroke: #1f77b4; stroke-width: 0.6; stroke-linecap: square"/>
   </g>
   <g id="line2d_59">
    <path d="M 492.265419 82.324286 
L 484.756206 81.333459 
L 490.910456 89.20114 
L 492.265419 82.324286 
" clip-path="url(#pe71bbdda98)" style="fill: none; stroke: #1f77b4; stroke-width: 0.6; stroke-linecap: square"/>
   </g>
   <g id="line2d_60">
    <path d="M 498.838279 25.6231 
L 485.126657 23.457597 
L 484.739495 28.216762 
L 490.910456 28.142948 
L 498.838279 25.6231 
" clip-path="url(#pe71bbdda98)" style="fill: none; stroke: #1f77b4; stroke-width: 0.6; stroke-linecap: square"/>
   </g>
   <g id="line2d_61">
    <path d="M 514.281255 57.31248 
L 512.941255 53.526985 
L 506.437678 56.731022 
L 501.358736 54.111525 
L 502.021305 60.475702 
L 504.078559 66.667782 
L 507.348467 65.567896 
L 513.41556 61.216388 
L 514.281255 57.31248 
" clip-path="url(#pe71bbdda98)" style="fill: none; stroke: #1f77b4; stroke-width: 0.6; stroke-linecap: square"/>
   </g>
   <g id="line2d_62">
    <path d="M 513.039577 43.600016 
L 508.339663 44.472018 
L 502.069388 43.990066 
L 500.288577 47.572724 
L 499.900184 56.959014 
L 508.179507 55.020885 
L 515.054593 53.262685 
L 513.039577 43.600016 
" clip-path="url(#pe71bbdda98)" style="fill: none; stroke: #1f77b4; stroke-width: 0.6; stroke-linecap: square"/>
   </g>
   <g id="line2d_63">
    <path d="M 514.863034 17.986041 
L 504.211102 15.754631 
L 506.289955 28.196893 
L 514.863034 17.986041 
" clip-path="url(#pe71bbdda98)" style="fill: none; stroke: #1f77b4; stroke-width: 0.6; stroke-linecap: square"/>
   </g>
   <g id="line2d_64">
    <path d="M 518.580654 34.420292 
L 505.132722 31.603229 
L 508.373277 42.185106 
L 508.833496 45.790364 
L 520.607951 46.400894 
L 518.580654 34.420292 
" clip-path="url(#pe71bbdda98)" style="fill: none; stroke: #1f77b4; stroke-width: 0.6; stroke-linecap: square"/>
   </g>
   <g id="line2d_65">
    <path d="M 523.606864 69.393218 
L 511.977607 68.79923 
L 521.503764 79.144165 
L 523.606864 69.393218 
" clip-path="url(#pe71bbdda98)" style="fill: none; stroke: #1f77b4; stroke-width: 0.6; stroke-linecap: square"/>
   </g>
   <g id="line2d_66">
    <path d="M 544.087715 16.089987 
L 536.291677 19.275766 
L 537.285645 26.915259 
L 546.228071 22.36081 
L 544.087715 16.089987 
" clip-path="url(#pe71bbdda98)" style="fill: none; stroke: #1f77b4; stroke-width: 0.6; stroke-linecap: square"/>
   </g>
   <g id="line2d_67">
    <path d="M 202.527256 52.155386 
L 198.152303 50.124866 
L 193.738914 51.869225 
L 189.855959 49.145846 
L 191.988579 57.003237 
L 195.594351 62.402014 
L 199.721924 63.908475 
L 202.036877 57.755639 
L 202.527256 52.155386 
" clip-path="url(#pe71bbdda98)" style="fill: none; stroke: #2ca02c; stroke-width: 0.6; stroke-linecap: square"/>
   </g>
   <g id="line2d_68">
    <path d="M 263.940277 69.244097 
L 274.346231 79.492959 
L 273.281405 74.707347 
L 263.940277 69.244097 
" clip-path="url(#pe71bbdda98)" style="fill: none; stroke: #2ca02c; stroke-width: 0.6; stroke-linecap: square"/>
   </g>
   <g id="line2d_69">
    <path d="M 180.923767 39.554096 
L 178.805323 50.305148 
L 191.465363 49.878093 
L 180.923767 39.554096 
" clip-path="url(#pe71bbdda98)" style="fill: none; stroke: #2ca02c; stroke-width: 0.6; stroke-linecap: square"/>
   </g>
   <g id="line2d_70">
    <path d="M 193.211851 34.088573 
L 193.561716 30.022685 
L 178.671976 32.674183 
L 179.585695 40.431766 
L 190.755507 40.452885 
L 189.849261 35.541495 
L 193.211851 34.088573 
" clip-path="url(#pe71bbdda98)" style="fill: none; stroke: #2ca02c; stroke-width: 0.6; stroke-linecap: square"/>
   </g>
   <g id="line2d_71">
    <path d="M 242.094208 34.283534 
L 228.715052 31.504562 
L 235.576198 39.244438 
L 242.094208 34.283534 
" clip-path="url(#pe71bbdda98)" style="fill: none; stroke: #2ca02c; stroke-width: 0.6; stroke-linecap: square"/>
   </g>
   <g id="line2d_72">
    <path d="M 254.063988 18.259735 
L 250.663358 16.87257 
L 244.903138 17.273338 
L 241.075456 16.753749 
L 239.243856 23.023112 
L 243.880389 27.763102 
L 253.063247 28.146227 
L 254.063988 18.259735 
" clip-path="url(#pe71bbdda98)" style="fill: none; stroke: #2ca02c; stroke-width: 0.6; stroke-linecap: square"/>
   </g>
   <g id="line2d_73">
    <path d="M 250.593728 48.440609 
L 239.09045 49.773785 
L 241.507834 55.998235 
L 244.114451 60.667913 
L 251.486087 61.980749 
L 250.593728 48.440609 
" clip-path="url(#pe71bbdda98)" style="fill: none; stroke: #2ca02c; stroke-width: 0.6; stroke-linecap: square"/>
   </g>
   <g id="line2d_74">
    <path d="M 252.326316 30.385551 
L 246.904495 26.775212 
L 241.145208 27.545796 
L 241.778108 34.860505 
L 239.216771 39.810529 
L 249.793401 39.301924 
L 254.177957 40.490157 
L 252.326316 30.385551 
" clip-path="url(#pe71bbdda98)" style="fill: none; stroke: #2ca02c; stroke-width: 0.6; stroke-linecap: square"/>
   </g>
   <g id="line2d_75">
    <path d="M 254.645704 18.857057 
L 253.301887 15.004127 
L 248.256978 18.371344 
L 246.079127 16.115417 
L 240.549924 19.127094 
L 239.635232 27.718134 
L 254.070038 28.97099 
L 254.645704 18.857057 
" clip-path="url(#pe71bbdda98)" style="fill: none; stroke: #2ca02c; stroke-width: 0.6; stroke-linecap: square"/>
   </g>
   <g id="line2d_76">
    <path d="M 264.06111 53.093385 
L 260.969252 47.939728 
L 250.487113 49.781217 
L 251.213875 52.950471 
L 252.505171 56.489863 
L 250.104231 62.884932 
L 256.656367 62.353094 
L 264.429451 59.614003 
L 264.06111 53.093385 
" clip-path="url(#pe71bbdda98)" style="fill: none; stroke: #2ca02c; stroke-width: 0.6; stroke-linecap: square"/>
   </g>
   <g id="line2d_77">
    <path d="M 269.08268 37.154026 
L 268.880667 44.795182 
L 269.277764 49.656255 
L 269.08268 37.154026 
" clip-path="url(#pe71bbdda98)" style="fill: none; stroke: #2ca02c; stroke-width: 0.6; stroke-linecap: square"/>
   </g>
   <g id="line2d_78">
    <path d="M 276.385317 25.523237 
L 271.086831 20.12534 
L 264.127583 23.563154 
L 263.184426 28.915246 
L 275.483905 35.696788 
L 273.834455 31.033276 
L 276.385317 25.523237 
" clip-path="url(#pe71bbdda98)" style="fill: none; stroke: #2ca02c; stroke-width: 0.6; stroke-linecap: square"/>
   </g>
   <g id="line2d_79">
    <path d="M 298.332489 33.232338 
L 286.623859 34.101696 
L 286.308914 45.281924 
L 298.332489 33.232338 
" clip-path="url(#pe71bbdda98)" style="fill: none; stroke: #2ca02c; stroke-width: 0.6; stroke-linecap: square"/>
   </g>
   <g id="line2d_80">
    <path d="M 284.039951 10.878993 
L 286.214634 18.202415 
L 291.083645 17.041459 
L 284.039951 10.878993 
" clip-path="url(#pe71bbdda98)" style="fill: none; stroke: #2ca02c; stroke-width: 0.6; stroke-linecap: square"/>
   </g>
   <g id="line2d_81">
    <path d="M 52.385809 319.385517 
L 45.770762 317.624811 
L 39.344623 319.795065 
L 40.669192 326.042126 
L 46.315561 328.593298 
L 51.680432 326.07317 
L 52.385809 319.385517 
" clip-path="url(#pe71bbdda98)" style="fill: none; stroke: #98df8a; stroke-width: 0.6; stroke-linecap: square"/>
   </g>
   <g id="line2d_82">
    <path d="M 52.524489 288.804549 
L 40.477725 289.218577 
L 41.100999 297.769869 
L 43.712554 299.720161 
L 51.23604 301.631457 
L 53.759159 296.811892 
L 52.524489 288.804549 
" clip-path="url(#pe71bbdda98)" style="fill: none; stroke: #98df8a; stroke-width: 0.6; stroke-linecap: square"/>
   </g>
   <g id="line2d_83">
    <path d="M 84.813894 345.658073 
L 87.224286 357.006727 
L 93.536747 354.876296 
L 97.557488 353.757013 
L 84.813894 345.658073 
" clip-path="url(#pe71bbdda98)" style="fill: none; stroke: #98df8a; stroke-width: 0.6; stroke-linecap: square"/>
   </g>
   <g id="line2d_84">
    <path d="M 90.762546 317.567511 
L 88.461428 315.975058 
L 83.644153 314.574794 
L 78.066225 317.700236 
L 80.552519 321.716239 
L 84.240472 326.621643 
L 86.369618 328.645917 
L 92.855922 326.757958 
L 90.762546 317.567511 
" clip-path="url(#pe71bbdda98)" style="fill: none; stroke: #98df8a; stroke-width: 0.6; stroke-linecap: square"/>
   </g>
   <g id="line2d_85">
    <path d="M 87.933181 303.373381 
L 84.490583 300.91774 
L 82.688195 297.875395 
L 72.981376 305.56977 
L 72.849139 312.494685 
L 85.187632 305.76945 
L 87.933181 303.373381 
" clip-path="url(#pe71bbdda98)" style="fill: none; stroke: #98df8a; stroke-width: 0.6; stroke-linecap: square"/>
   </g>
   <g id="line2d_86">
    <path d="M 73.618159 293.114435 
L 72.040315 289.083037 
L 66.362372 287.379947 
L 63.726587 291.285655 
L 61.932323 296.20458 
L 65.47038 299.770719 
L 76.618056 302.57568 
L 74.739208 300.207019 
L 73.618159 293.114435 
" clip-path="url(#pe71bbdda98)" style="fill: none; stroke: #98df8a; stroke-width: 0.6; stroke-linecap: square"/>
   </g>
   <g id="line2d_87">
    <path d="M 81.082507 278.232443 
L 69.185548 281.51417 
L 70.246397 288.918669 
L 81.412334 289.869781 
L 81.082507 278.232443 
" clip-path="url(#pe71bbdda98)" style="fill: none; stroke: #aec7e8; stroke-width: 0.6; stroke-linecap: square"/>
   </g>
   <g id="line2d_88">
    <path d="M 56.658447 280.085146 
L 49.129358 276.011623 
L 46.402572 284.133591 
L 49.024332 291.177307 
L 51.458514 288.008725 
L 56.049435 288.721169 
L 56.658447 280.085146 
" clip-path="url(#pe71bbdda98)" style="fill: none; stroke: #ff7f0e; stroke-width: 0.6; stroke-linecap: square"/>
   </g>
   <g id="line2d_89">
    <path d="M 96.466104 290.281842 
L 84.154684 291.546695 
L 85.672263 296.973886 
L 85.503899 301.002714 
L 88.394564 300.008755 
L 95.577038 301.680905 
L 93.090669 298.91841 
L 96.466104 290.281842 
" clip-path="url(#pe71bbdda98)" style="fill: none; stroke: #98df8a; stroke-width: 0.6; stroke-linecap: square"/>
   </g>
   <g id="line2d_90">
    <path d="M 115.711984 293.745644 
L 107.281814 294.271483 
L 100.103367 305.204755 
L 104.744939 305.533198 
L 115.470527 306.05272 
L 113.35582 302.175393 
L 115.711984 293.745644 
" clip-path="url(#pe71bbdda98)" style="fill: none; stroke: #98df8a; stroke-width: 0.6; stroke-linecap: square"/>
   </g>
   <g id="line2d_91">
    <path d="M 107.883583 293.651065 
L 101.694751 289.038838 
L 96.562826 293.873755 
L 95.445011 296.641446 
L 103.63227 300.741388 
L 107.813518 299.224837 
L 109.656348 296.860751 
L 107.883583 293.651065 
" clip-path="url(#pe71bbdda98)" style="fill: none; stroke: #98df8a; stroke-width: 0.6; stroke-linecap: square"/>
   </g>
   <g id="line2d_92">
    <path d="M 99.238284 284.304468 
L 95.077342 281.693535 
L 83.742965 286.050769 
L 86.872962 292.411787 
L 87.323626 296.066843 
L 95.931644 292.660221 
L 99.238284 284.304468 
" clip-path="url(#pe71bbdda98)" style="fill: none; stroke: #aec7e8; stroke-width: 0.6; stroke-linecap: square"/>
   </g>
   <g id="line2d_93">
    <path d="M 107.305088 264.891139 
L 96.629118 265.290358 
L 102.429548 279.45637 
L 106.073985 277.21093 
L 109.848346 274.814827 
L 107.305088 264.891139 
" clip-path="url(#pe71bbdda98)" style="fill: none; stroke: #aec7e8; stroke-width: 0.6; stroke-linecap: square"/>
   </g>
   <g id="line2d_94">
    <path d="M 118.435818 271.147774 
L 112.402783 265.010317 
L 113.459814 272.375716 
L 117.345403 278.998213 
L 118.435818 271.147774 
" clip-path="url(#pe71bbdda98)" style="fill: none; stroke: #aec7e8; stroke-width: 0.6; stroke-linecap: square"/>
   </g>
   <g id="line2d_95">
    <path d="M 86.015914 265.653102 
L 86.312233 262.464336 
L 77.995857 261.013424 
L 74.543372 264.174356 
L 72.255244 269.024142 
L 74.891639 270.927865 
L 79.029782 271.394284 
L 86.015914 265.653102 
" clip-path="url(#pe71bbdda98)" style="fill: none; stroke: #aec7e8; stroke-width: 0.6; stroke-linecap: square"/>
   </g>
   <g id="line2d_96">
    <path d="M 107.226627 261.523373 
L 102.093089 261.35829 
L 98.133869 272.059312 
L 108.795623 269.772603 
L 107.226627 261.523373 
" clip-path="url(#pe71bbdda98)" style="fill: none; stroke: #aec7e8; stroke-width: 0.6; stroke-linecap: square"/>
   </g>
   <g id="line2d_97">
    <path d="M 135.929055 259.262581 
L 128.684313 260.558845 
L 125.792674 261.866035 
L 125.081766 265.172508 
L 122.351488 267.77285 
L 124.737471 271.934771 
L 127.888893 271.428979 
L 134.219657 266.718303 
L 135.929055 259.262581 
" clip-path="url(#pe71bbdda98)" style="fill: none; stroke: #aec7e8; stroke-width: 0.6; stroke-linecap: square"/>
   </g>
   <g id="line2d_98">
    <path d="M 160.51317 204.885768 
L 150.60838 216.503395 
L 158.450075 216.592882 
L 160.51317 204.885768 
" clip-path="url(#pe71bbdda98)" style="fill: none; stroke: #2ca02c; stroke-width: 0.6; stroke-linecap: square"/>
   </g>
   <g id="line2d_99">
    <path d="M 107.831089 237.387533 
L 109.978693 234.233323 
L 94.951425 236.398132 
L 95.601373 246.181662 
L 101.591826 245.515726 
L 106.42545 245.062601 
L 107.831089 237.387533 
" clip-path="url(#pe71bbdda98)" style="fill: none; stroke: #aec7e8; stroke-width: 0.6; stroke-linecap: square"/>
   </g>
   <g id="line2d_100">
    <path d="M 117.221041 227.09525 
L 113.459814 233.520503 
L 119.049109 232.014911 
L 117.221041 227.09525 
" clip-path="url(#pe71bbdda98)" style="fill: none; stroke: #aec7e8; stroke-width: 0.6; stroke-linecap: square"/>
   </g>
   <g id="line2d_101">
    <path d="M 97.54947 238.556502 
L 84.739376 240.331241 
L 92.288113 251.337071 
L 96.083444 249.703893 
L 99.131825 247.045146 
L 97.54947 238.556502 
" clip-path="url(#pe71bbdda98)" style="fill: none; stroke: #ffbb78; stroke-width: 0.6; stroke-linecap: square"/>
   </g>
   <g id="line2d_102">
    <path d="M 85.83185 243.951961 
L 82.616456 243.954979 
L 76.037609 243.892517 
L 80.047056 255.990494 
L 87.125718 252.423521 
L 84.217133 249.554651 
L 85.83185 243.951961 
" clip-path="url(#pe71bbdda98)" style="fill: none; stroke: #aec7e8; stroke-width: 0.6; stroke-linecap: square"/>
   </g>
   <g id="line2d_103">
    <path d="M 108.987847 210.608663 
L 101.377558 206.578824 
L 96.862089 206.104784 
L 95.51851 214.310729 
L 95.000523 218.320615 
L 102.281449 218.975782 
L 108.987847 210.608663 
" clip-path="url(#pe71bbdda98)" style="fill: none; stroke: #aec7e8; stroke-width: 0.6; stroke-linecap: square"/>
   </g>
   <g id="line2d_104">
    <path d="M 98.634506 218.638346 
L 92.056739 216.461175 
L 87.92619 216.799604 
L 85.139428 221.497089 
L 84.764457 230.07435 
L 87.274992 228.032053 
L 98.634506 218.638346 
" clip-path="url(#pe71bbdda98)" style="fill: none; stroke: #aec7e8; stroke-width: 0.6; stroke-linecap: square"/>
   </g>
   <g id="line2d_105">
    <path d="M 72.527483 233.788703 
L 68.659606 234.52173 
L 62.74743 236.098375 
L 62.850124 244.058352 
L 66.280358 245.604622 
L 73.929102 245.513159 
L 72.527483 233.788703 
" clip-path="url(#pe71bbdda98)" style="fill: none; stroke: #aec7e8; stroke-width: 0.6; stroke-linecap: square"/>
   </g>
   <g id="line2d_106">
    <path d="M 71.750766 225.59276 
L 69.876344 229.113027 
L 67.330314 233.681156 
L 71.949508 240.839823 
L 79.824811 237.997578 
L 79.187892 234.023755 
L 71.750766 225.59276 
" clip-path="url(#pe71bbdda98)" style="fill: none; stroke: #aec7e8; stroke-width: 0.6; stroke-linecap: square"/>
   </g>
   <g id="line2d_107">
    <path d="M 80.126172 209.484218 
L 72.630813 216.495501 
L 80.873445 221.13145 
L 83.811664 223.650785 
L 86.829609 218.778873 
L 80.126172 209.484218 
" clip-path="url(#pe71bbdda98)" style="fill: none; stroke: #aec7e8; stroke-width: 0.6; stroke-linecap: square"/>
   </g>
   <g id="line2d_108">
    <path d="M 153.972766 331.445185 
L 150.665853 328.348335 
L 144.706072 327.26587 
L 140.162472 333.982298 
L 144.74256 340.155861 
L 153.773501 341.048025 
L 153.972766 331.445185 
" clip-path="url(#pe71bbdda98)" style="fill: none; stroke: #98df8a; stroke-width: 0.6; stroke-linecap: square"/>
   </g>
   <g id="line2d_109">
    <path d="M 179.685143 303.086747 
L 172.823737 299.695761 
L 168.595403 305.906273 
L 173.109491 313.53971 
L 179.984747 308.897788 
L 179.685143 303.086747 
" clip-path="url(#pe71bbdda98)" style="fill: none; stroke: #d62728; stroke-width: 0.6; stroke-linecap: square"/>
   </g>
   <g id="line2d_110">
    <path d="M 165.482198 236.272325 
L 161.217155 233.300846 
L 152.790442 239.955587 
L 158.234071 246.301865 
L 165.482198 236.272325 
" clip-path="url(#pe71bbdda98)" style="fill: none; stroke: #1f77b4; stroke-width: 0.6; stroke-linecap: square"/>
   </g>
   <g id="line2d_111">
    <path d="M 68.212904 288.221616 
L 61.771481 290.381854 
L 57.940789 292.293825 
L 60.946532 299.849176 
L 68.212904 288.221616 
" clip-path="url(#pe71bbdda98)" style="fill: none; stroke: #98df8a; stroke-width: 0.6; stroke-linecap: square"/>
   </g>
   <g id="line2d_112">
    <path d="M 82.26663 318.1842 
L 67.110059 310.055452 
L 68.190189 314.514958 
L 66.912851 317.20912 
L 66.91638 322.111655 
L 74.074045 323.322236 
L 77.268513 321.792452 
L 81.373143 323.590169 
L 82.26663 318.1842 
" clip-path="url(#pe71bbdda98)" style="fill: none; stroke: #98df8a; stroke-width: 0.6; stroke-linecap: square"/>
   </g>
   <g id="line2d_113">
    <path d="M 98.373925 337.316245 
L 90.07931 339.386598 
L 86.603603 347.528257 
L 90.702457 350.079132 
L 98.373925 337.316245 
" clip-path="url(#pe71bbdda98)" style="fill: none; stroke: #98df8a; stroke-width: 0.6; stroke-linecap: square"/>
   </g>
   <g id="line2d_114">
    <path d="M 134.827047 313.708969 
L 130.112048 311.230929 
L 128.363497 318.492592 
L 134.827047 313.708969 
" clip-path="url(#pe71bbdda98)" style="fill: none; stroke: #98df8a; stroke-width: 0.6; stroke-linecap: square"/>
   </g>
   <g id="line2d_115">
    <path d="M 157.865772 261.274227 
L 153.147573 264.415673 
L 164.464339 267.070462 
L 157.865772 261.274227 
" clip-path="url(#pe71bbdda98)" style="fill: none; stroke: #aec7e8; stroke-width: 0.6; stroke-linecap: square"/>
   </g>
   <g id="line2d_116">
    <path d="M 136.907633 229.81269 
L 137.551795 224.452454 
L 134.465273 225.93098 
L 130.112048 227.969758 
L 131.372632 233.935886 
L 134.505785 235.421909 
L 138.090849 235.649877 
L 136.907633 229.81269 
" clip-path="url(#pe71bbdda98)" style="fill: none; stroke: #aec7e8; stroke-width: 0.6; stroke-linecap: square"/>
   </g>
   <g id="line2d_117">
    <path d="M 87.515081 326.052773 
L 80.155346 333.433908 
L 87.848968 333.657384 
L 87.515081 326.052773 
" clip-path="url(#pe71bbdda98)" style="fill: none; stroke: #98df8a; stroke-width: 0.6; stroke-linecap: square"/>
   </g>
   <g id="line2d_118">
    <path d="M 137.611692 323.598149 
L 130.808695 317.879616 
L 123.409224 318.800389 
L 124.280954 325.84434 
L 124.304572 330.26356 
L 128.055944 328.932354 
L 136.0353 327.274306 
L 137.611692 323.598149 
" clip-path="url(#pe71bbdda98)" style="fill: none; stroke: #98df8a; stroke-width: 0.6; stroke-linecap: square"/>
   </g>
   <g id="line2d_119">
    <path d="M 25.251925 293.667928 
L 21.93169 289.692849 
L 16.04732 289.540504 
L 12.319536 295.804471 
L 21.993072 301.633962 
L 25.251925 293.667928 
" clip-path="url(#pe71bbdda98)" style="fill: none; stroke: #98df8a; stroke-width: 0.6; stroke-linecap: square"/>
   </g>
   <g id="line2d_120">
    <path d="M 25.802549 231.50533 
L 11.450769 231.618022 
L 19.013775 243.634415 
L 24.3841 245.757644 
L 25.802549 231.50533 
" clip-path="url(#pe71bbdda98)" style="fill: none; stroke: #aec7e8; stroke-width: 0.6; stroke-linecap: square"/>
   </g>
   <g id="line2d_121">
    <path d="M 46.850877 266.824972 
L 161.217155 233.300846 
L 459.748594 77.327027 
L 465.563501 75.016881 
L 468.572671 76.007239 
L 484.756206 81.333459 
L 511.977607 68.79923 
L 514.26284 57.26046 
L 515.054593 53.262685 
L 520.607951 46.400894 
L 537.285645 26.915259 
L 506.213256 27.737837 
L 490.910456 28.142948 
L 472.270765 31.976249 
L 464.509001 28.881534 
L 458.451861 42.328598 
L 455.049374 49.882239 
L 46.850877 266.824972 
" clip-path="url(#pe71bbdda98)" style="fill: none; stroke: #1f77b4; stroke-width: 0.6; stroke-linecap: square"/>
   </g>
   <g id="line2d_122">
    <path d="M 46.850877 266.824972 
L 24.3841 245.757644 
L 63.487532 244.34568 
L 76.037609 243.892517 
L 78.056521 238.635765 
L 83.811664 223.650785 
L 85.071512 223.050616 
L 95.000523 218.320615 
L 109.978693 234.233323 
L 113.459814 233.520503 
L 131.372632 233.935886 
L 153.147573 264.415673 
L 122.547876 268.115413 
L 116.206235 268.879601 
L 108.795623 269.772603 
L 101.175699 276.394176 
L 95.077342 281.693535 
L 81.082507 278.232443 
L 74.891639 270.927865 
L 46.850877 266.824972 
" clip-path="url(#pe71bbdda98)" style="fill: none; stroke: #aec7e8; stroke-width: 0.6; stroke-linecap: square"/>
   </g>
   <g id="line2d_123">
    <path d="M 46.850877 266.824972 
L 50.327267 276.659738 
L 131.225252 505.521508 
L 135.733733 503.187282 
L 163.416517 488.854761 
L 163.88864 485.522805 
L 164.346422 482.292126 
L 165.990847 470.687044 
L 178.517955 473.61589 
L 180.625285 475.63755 
L 187.88922 482.60851 
L 189.972443 484.609589 
L 198.616884 492.913164 
L 203.088629 493.143536 
L 206.795389 491.860967 
L 252.162945 476.163428 
L 246.677688 466.651782 
L 46.850877 266.824972 
" clip-path="url(#pe71bbdda98)" style="fill: none; stroke: #ff7f0e; stroke-width: 0.6; stroke-linecap: square"/>
   </g>
   <g id="line2d_124">
    <path d="M 46.850877 266.824972 
L 462.774737 283.017429 
L 466.631239 268.883539 
L 468.707477 261.274227 
L 478.322002 266.901867 
L 490.46576 274.511157 
L 503.676317 278.190314 
L 516.355523 275.929788 
L 516.611633 275.644022 
L 520.113116 271.7371 
L 536.644444 253.291598 
L 533.73783 243.265296 
L 517.19088 243.265714 
L 495.236481 230.661369 
L 482.175118 223.16344 
L 469.63596 215.965285 
L 92.288113 251.337071 
L 46.850877 266.824972 
" clip-path="url(#pe71bbdda98)" style="fill: none; stroke: #ffbb78; stroke-width: 0.6; stroke-linecap: square"/>
   </g>
   <g id="line2d_125">
    <path d="M 46.850877 266.824972 
L 189.327531 49.950208 
L 189.855959 49.145846 
L 190.755507 40.452885 
L 228.845738 31.531707 
L 244.78287 27.800755 
L 246.139383 27.484888 
L 247.497716 27.170232 
L 272.351285 21.413517 
L 286.214634 18.202415 
L 286.623859 34.101696 
L 269.277764 49.656255 
L 263.940277 69.244097 
L 251.486087 61.980749 
L 250.954418 62.815923 
L 160.51317 204.885768 
L 46.850877 266.824972 
" clip-path="url(#pe71bbdda98)" style="fill: none; stroke: #2ca02c; stroke-width: 0.6; stroke-linecap: square"/>
   </g>
   <g id="line2d_126">
    <path d="M 46.850877 266.824972 
L 68.212904 288.221616 
L 72.936 291.371516 
L 82.688195 297.875395 
L 85.617836 298.276288 
L 103.63227 300.741388 
L 110.710894 305.822175 
L 128.363497 318.492592 
L 130.171637 320.866319 
L 135.187055 327.450565 
L 140.162472 333.982298 
L 88.104228 347.74918 
L 87.625924 345.133523 
L 84.660078 328.916077 
L 84.240472 326.621643 
L 66.91638 322.111655 
L 52.385809 319.385517 
L 41.100999 297.769869 
L 25.251925 293.667928 
L 46.850877 266.824972 
" clip-path="url(#pe71bbdda98)" style="fill: none; stroke: #98df8a; stroke-width: 0.6; stroke-linecap: square"/>
   </g>
   <g id="line2d_127">
    <path d="M 46.850877 266.824972 
L 391.212752 473.779808 
L 400.951746 479.632755 
L 406.187723 482.557782 
L 422.377359 491.608197 
L 427.784522 494.637432 
L 435.791554 499.129091 
L 440.974788 502.041239 
L 458.064225 511.642771 
L 454.33766 495.751048 
L 451.96523 485.633956 
L 453.162847 485.317023 
L 469.739375 480.93027 
L 469.651609 474.530425 
L 469.517468 464.748901 
L 485.856809 439.063849 
L 456.542284 459.057547 
L 429.478345 461.764145 
L 424.090235 459.590652 
L 414.416393 455.68835 
L 408.4828 447.355426 
L 173.109491 313.53971 
L 46.850877 266.824972 
" clip-path="url(#pe71bbdda98)" style="fill: none; stroke: #d62728; stroke-width: 0.6; stroke-linecap: square"/>
   </g>
   <g id="PathCollection_1">
    <defs>
     <path id="C0_0_dd97620524" d="M 0 1.322876 
C 0.350831 1.322876 0.68734 1.183489 0.935414 0.935414 
C 1.183489 0.68734 1.322876 0.350831 1.322876 -0 
C 1.322876 -0.350831 1.183489 -0.68734 0.935414 -0.935414 
C 0.68734 -1.183489 0.350831 -1.322876 0 -1.322876 
C -0.350831 -1.322876 -0.68734 -1.183489 -0.935414 -0.935414 
C -1.183489 -0.68734 -1.322876 -0.350831 -1.322876 0 
C -1.322876 0.350831 -1.183489 0.68734 -0.935414 0.935414 
C -0.68734 1.183489 -0.350831 1.322876 0 1.322876 
z
"/>
    </defs>
    <g clip-path="url(#pe71bbdda98)">
     <use xlink:href="#C0_0_dd97620524" x="161.217155" y="233.300846" style="fill: #1f77b4"/>
    </g>
    <g clip-path="url(#pe71bbdda98)">
     <use xlink:href="#C0_0_dd97620524" x="459.748594" y="77.327027" style="fill: #1f77b4"/>
    </g>
    <g clip-path="url(#pe71bbdda98)">
     <use xlink:href="#C0_0_dd97620524" x="465.563501" y="75.016881" style="fill: #1f77b4"/>
    </g>
    <g clip-path="url(#pe71bbdda98)">
     <use xlink:href="#C0_0_dd97620524" x="468.572671" y="76.007239" style="fill: #1f77b4"/>
    </g>
    <g clip-path="url(#pe71bbdda98)">
     <use xlink:href="#C0_0_dd97620524" x="484.756206" y="81.333459" style="fill: #1f77b4"/>
    </g>
    <g clip-path="url(#pe71bbdda98)">
     <use xlink:href="#C0_0_dd97620524" x="511.977607" y="68.79923" style="fill: #1f77b4"/>
    </g>
    <g clip-path="url(#pe71bbdda98)">
     <use xlink:href="#C0_0_dd97620524" x="514.26284" y="57.26046" style="fill: #1f77b4"/>
    </g>
    <g clip-path="url(#pe71bbdda98)">
     <use xlink:href="#C0_0_dd97620524" x="515.054593" y="53.262685" style="fill: #1f77b4"/>
    </g>
    <g clip-path="url(#pe71bbdda98)">
     <use xlink:href="#C0_0_dd97620524" x="520.607951" y="46.400894" style="fill: #1f77b4"/>
    </g>
    <g clip-path="url(#pe71bbdda98)">
     <use xlink:href="#C0_0_dd97620524" x="537.285645" y="26.915259" style="fill: #1f77b4"/>
    </g>
    <g clip-path="url(#pe71bbdda98)">
     <use xlink:href="#C0_0_dd97620524" x="506.213256" y="27.737837" style="fill: #1f77b4"/>
    </g>
    <g clip-path="url(#pe71bbdda98)">
     <use xlink:href="#C0_0_dd97620524" x="490.910456" y="28.142948" style="fill: #1f77b4"/>
    </g>
    <g clip-path="url(#pe71bbdda98)">
     <use xlink:href="#C0_0_dd97620524" x="472.270765" y="31.976249" style="fill: #1f77b4"/>
    </g>
    <g clip-path="url(#pe71bbdda98)">
     <use xlink:href="#C0_0_dd97620524" x="464.509001" y="28.881534" style="fill: #1f77b4"/>
    </g>
    <g clip-path="url(#pe71bbdda98)">
     <use xlink:href="#C0_0_dd97620524" x="458.451861" y="42.328598" style="fill: #1f77b4"/>
    </g>
    <g clip-path="url(#pe71bbdda98)">
     <use xlink:href="#C0_0_dd97620524" x="455.049374" y="49.882239" style="fill: #1f77b4"/>
    </g>
   </g>
   <g id="PathCollection_2">
    <defs>
     <path id="C1_0_93d944b69c" d="M 0 1.322876 
C 0.350831 1.322876 0.68734 1.183489 0.935414 0.935414 
C 1.183489 0.68734 1.322876 0.350831 1.322876 -0 
C 1.322876 -0.350831 1.183489 -0.68734 0.935414 -0.935414 
C 0.68734 -1.183489 0.350831 -1.322876 0 -1.322876 
C -0.350831 -1.322876 -0.68734 -1.183489 -0.935414 -0.935414 
C -1.183489 -0.68734 -1.322876 -0.350831 -1.322876 0 
C -1.322876 0.350831 -1.183489 0.68734 -0.935414 0.935414 
C -0.68734 1.183489 -0.350831 1.322876 0 1.322876 
z
"/>
    </defs>
    <g clip-path="url(#pe71bbdda98)">
     <use xlink:href="#C1_0_93d944b69c" x="24.3841" y="245.757644" style="fill: #aec7e8"/>
    </g>
    <g clip-path="url(#pe71bbdda98)">
     <use xlink:href="#C1_0_93d944b69c" x="63.487532" y="244.34568" style="fill: #aec7e8"/>
    </g>
    <g clip-path="url(#pe71bbdda98)">
     <use xlink:href="#C1_0_93d944b69c" x="76.037609" y="243.892517" style="fill: #aec7e8"/>
    </g>
    <g clip-path="url(#pe71bbdda98)">
     <use xlink:href="#C1_0_93d944b69c" x="78.056521" y="238.635765" style="fill: #aec7e8"/>
    </g>
    <g clip-path="url(#pe71bbdda98)">
     <use xlink:href="#C1_0_93d944b69c" x="83.811664" y="223.650785" style="fill: #aec7e8"/>
    </g>
    <g clip-path="url(#pe71bbdda98)">
     <use xlink:href="#C1_0_93d944b69c" x="85.071512" y="223.050616" style="fill: #aec7e8"/>
    </g>
    <g clip-path="url(#pe71bbdda98)">
     <use xlink:href="#C1_0_93d944b69c" x="95.000523" y="218.320615" style="fill: #aec7e8"/>
    </g>
    <g clip-path="url(#pe71bbdda98)">
     <use xlink:href="#C1_0_93d944b69c" x="109.978693" y="234.233323" style="fill: #aec7e8"/>
    </g>
    <g clip-path="url(#pe71bbdda98)">
     <use xlink:href="#C1_0_93d944b69c" x="113.459814" y="233.520503" style="fill: #aec7e8"/>
    </g>
    <g clip-path="url(#pe71bbdda98)">
     <use xlink:href="#C1_0_93d944b69c" x="131.372632" y="233.935886" style="fill: #aec7e8"/>
    </g>
    <g clip-path="url(#pe71bbdda98)">
     <use xlink:href="#C1_0_93d944b69c" x="153.147573" y="264.415673" style="fill: #aec7e8"/>
    </g>
    <g clip-path="url(#pe71bbdda98)">
     <use xlink:href="#C1_0_93d944b69c" x="122.547876" y="268.115413" style="fill: #aec7e8"/>
    </g>
    <g clip-path="url(#pe71bbdda98)">
     <use xlink:href="#C1_0_93d944b69c" x="116.206235" y="268.879601" style="fill: #aec7e8"/>
    </g>
    <g clip-path="url(#pe71bbdda98)">
     <use xlink:href="#C1_0_93d944b69c" x="108.795623" y="269.772603" style="fill: #aec7e8"/>
    </g>
    <g clip-path="url(#pe71bbdda98)">
     <use xlink:href="#C1_0_93d944b69c" x="101.175699" y="276.394176" style="fill: #aec7e8"/>
    </g>
    <g clip-path="url(#pe71bbdda98)">
     <use xlink:href="#C1_0_93d944b69c" x="95.077342" y="281.693535" style="fill: #aec7e8"/>
    </g>
    <g clip-path="url(#pe71bbdda98)">
     <use xlink:href="#C1_0_93d944b69c" x="81.082507" y="278.232443" style="fill: #aec7e8"/>
    </g>
    <g clip-path="url(#pe71bbdda98)">
     <use xlink:href="#C1_0_93d944b69c" x="74.891639" y="270.927865" style="fill: #aec7e8"/>
    </g>
   </g>
   <g id="PathCollection_3">
    <defs>
     <path id="C2_0_ee9e220ed1" d="M 0 1.322876 
C 0.350831 1.322876 0.68734 1.183489 0.935414 0.935414 
C 1.183489 0.68734 1.322876 0.350831 1.322876 -0 
C 1.322876 -0.350831 1.183489 -0.68734 0.935414 -0.935414 
C 0.68734 -1.183489 0.350831 -1.322876 0 -1.322876 
C -0.350831 -1.322876 -0.68734 -1.183489 -0.935414 -0.935414 
C -1.183489 -0.68734 -1.322876 -0.350831 -1.322876 0 
C -1.322876 0.350831 -1.183489 0.68734 -0.935414 0.935414 
C -0.68734 1.183489 -0.350831 1.322876 0 1.322876 
z
"/>
    </defs>
    <g clip-path="url(#pe71bbdda98)">
     <use xlink:href="#C2_0_ee9e220ed1" x="50.327267" y="276.659738" style="fill: #ff7f0e"/>
    </g>
    <g clip-path="url(#pe71bbdda98)">
     <use xlink:href="#C2_0_ee9e220ed1" x="131.225252" y="505.521508" style="fill: #ff7f0e"/>
    </g>
    <g clip-path="url(#pe71bbdda98)">
     <use xlink:href="#C2_0_ee9e220ed1" x="135.733733" y="503.187282" style="fill: #ff7f0e"/>
    </g>
    <g clip-path="url(#pe71bbdda98)">
     <use xlink:href="#C2_0_ee9e220ed1" x="163.416517" y="488.854761" style="fill: #ff7f0e"/>
    </g>
    <g clip-path="url(#pe71bbdda98)">
     <use xlink:href="#C2_0_ee9e220ed1" x="163.88864" y="485.522805" style="fill: #ff7f0e"/>
    </g>
    <g clip-path="url(#pe71bbdda98)">
     <use xlink:href="#C2_0_ee9e220ed1" x="164.346422" y="482.292126" style="fill: #ff7f0e"/>
    </g>
    <g clip-path="url(#pe71bbdda98)">
     <use xlink:href="#C2_0_ee9e220ed1" x="165.990847" y="470.687044" style="fill: #ff7f0e"/>
    </g>
    <g clip-path="url(#pe71bbdda98)">
     <use xlink:href="#C2_0_ee9e220ed1" x="178.517955" y="473.61589" style="fill: #ff7f0e"/>
    </g>
    <g clip-path="url(#pe71bbdda98)">
     <use xlink:href="#C2_0_ee9e220ed1" x="180.625285" y="475.63755" style="fill: #ff7f0e"/>
    </g>
    <g clip-path="url(#pe71bbdda98)">
     <use xlink:href="#C2_0_ee9e220ed1" x="187.88922" y="482.60851" style="fill: #ff7f0e"/>
    </g>
    <g clip-path="url(#pe71bbdda98)">
     <use xlink:href="#C2_0_ee9e220ed1" x="189.972443" y="484.609589" style="fill: #ff7f0e"/>
    </g>
    <g clip-path="url(#pe71bbdda98)">
     <use xlink:href="#C2_0_ee9e220ed1" x="198.616884" y="492.913164" style="fill: #ff7f0e"/>
    </g>
    <g clip-path="url(#pe71bbdda98)">
     <use xlink:href="#C2_0_ee9e220ed1" x="203.088629" y="493.143536" style="fill: #ff7f0e"/>
    </g>
    <g clip-path="url(#pe71bbdda98)">
     <use xlink:href="#C2_0_ee9e220ed1" x="206.795389" y="491.860967" style="fill: #ff7f0e"/>
    </g>
    <g clip-path="url(#pe71bbdda98)">
     <use xlink:href="#C2_0_ee9e220ed1" x="252.162945" y="476.163428" style="fill: #ff7f0e"/>
    </g>
    <g clip-path="url(#pe71bbdda98)">
     <use xlink:href="#C2_0_ee9e220ed1" x="246.677688" y="466.651782" style="fill: #ff7f0e"/>
    </g>
   </g>
   <g id="PathCollection_4">
    <defs>
     <path id="C3_0_fcb471cd9a" d="M 0 1.322876 
C 0.350831 1.322876 0.68734 1.183489 0.935414 0.935414 
C 1.183489 0.68734 1.322876 0.350831 1.322876 -0 
C 1.322876 -0.350831 1.183489 -0.68734 0.935414 -0.935414 
C 0.68734 -1.183489 0.350831 -1.322876 0 -1.322876 
C -0.350831 -1.322876 -0.68734 -1.183489 -0.935414 -0.935414 
C -1.183489 -0.68734 -1.322876 -0.350831 -1.322876 0 
C -1.322876 0.350831 -1.183489 0.68734 -0.935414 0.935414 
C -0.68734 1.183489 -0.350831 1.322876 0 1.322876 
z
"/>
    </defs>
    <g clip-path="url(#pe71bbdda98)">
     <use xlink:href="#C3_0_fcb471cd9a" x="462.774737" y="283.017429" style="fill: #ffbb78"/>
    </g>
    <g clip-path="url(#pe71bbdda98)">
     <use xlink:href="#C3_0_fcb471cd9a" x="466.631239" y="268.883539" style="fill: #ffbb78"/>
    </g>
    <g clip-path="url(#pe71bbdda98)">
     <use xlink:href="#C3_0_fcb471cd9a" x="468.707477" y="261.274227" style="fill: #ffbb78"/>
    </g>
    <g clip-path="url(#pe71bbdda98)">
     <use xlink:href="#C3_0_fcb471cd9a" x="478.322002" y="266.901867" style="fill: #ffbb78"/>
    </g>
    <g clip-path="url(#pe71bbdda98)">
     <use xlink:href="#C3_0_fcb471cd9a" x="490.46576" y="274.511157" style="fill: #ffbb78"/>
    </g>
    <g clip-path="url(#pe71bbdda98)">
     <use xlink:href="#C3_0_fcb471cd9a" x="503.676317" y="278.190314" style="fill: #ffbb78"/>
    </g>
    <g clip-path="url(#pe71bbdda98)">
     <use xlink:href="#C3_0_fcb471cd9a" x="516.355523" y="275.929788" style="fill: #ffbb78"/>
    </g>
    <g clip-path="url(#pe71bbdda98)">
     <use xlink:href="#C3_0_fcb471cd9a" x="516.611633" y="275.644022" style="fill: #ffbb78"/>
    </g>
    <g clip-path="url(#pe71bbdda98)">
     <use xlink:href="#C3_0_fcb471cd9a" x="520.113116" y="271.7371" style="fill: #ffbb78"/>
    </g>
    <g clip-path="url(#pe71bbdda98)">
     <use xlink:href="#C3_0_fcb471cd9a" x="536.644444" y="253.291598" style="fill: #ffbb78"/>
    </g>
    <g clip-path="url(#pe71bbdda98)">
     <use xlink:href="#C3_0_fcb471cd9a" x="533.73783" y="243.265296" style="fill: #ffbb78"/>
    </g>
    <g clip-path="url(#pe71bbdda98)">
     <use xlink:href="#C3_0_fcb471cd9a" x="517.19088" y="243.265714" style="fill: #ffbb78"/>
    </g>
    <g clip-path="url(#pe71bbdda98)">
     <use xlink:href="#C3_0_fcb471cd9a" x="495.236481" y="230.661369" style="fill: #ffbb78"/>
    </g>
    <g clip-path="url(#pe71bbdda98)">
     <use xlink:href="#C3_0_fcb471cd9a" x="482.175118" y="223.16344" style="fill: #ffbb78"/>
    </g>
    <g clip-path="url(#pe71bbdda98)">
     <use xlink:href="#C3_0_fcb471cd9a" x="469.63596" y="215.965285" style="fill: #ffbb78"/>
    </g>
    <g clip-path="url(#pe71bbdda98)">
     <use xlink:href="#C3_0_fcb471cd9a" x="92.288113" y="251.337071" style="fill: #ffbb78"/>
    </g>
   </g>
   <g id="PathCollection_5">
    <defs>
     <path id="C4_0_e2101e3149" d="M 0 1.322876 
C 0.350831 1.322876 0.68734 1.183489 0.935414 0.935414 
C 1.183489 0.68734 1.322876 0.350831 1.322876 -0 
C 1.322876 -0.350831 1.183489 -0.68734 0.935414 -0.935414 
C 0.68734 -1.183489 0.350831 -1.322876 0 -1.322876 
C -0.350831 -1.322876 -0.68734 -1.183489 -0.935414 -0.935414 
C -1.183489 -0.68734 -1.322876 -0.350831 -1.322876 0 
C -1.322876 0.350831 -1.183489 0.68734 -0.935414 0.935414 
C -0.68734 1.183489 -0.350831 1.322876 0 1.322876 
z
"/>
    </defs>
    <g clip-path="url(#pe71bbdda98)">
     <use xlink:href="#C4_0_e2101e3149" x="189.327531" y="49.950208" style="fill: #2ca02c"/>
    </g>
    <g clip-path="url(#pe71bbdda98)">
     <use xlink:href="#C4_0_e2101e3149" x="189.855959" y="49.145846" style="fill: #2ca02c"/>
    </g>
    <g clip-path="url(#pe71bbdda98)">
     <use xlink:href="#C4_0_e2101e3149" x="190.755507" y="40.452885" style="fill: #2ca02c"/>
    </g>
    <g clip-path="url(#pe71bbdda98)">
     <use xlink:href="#C4_0_e2101e3149" x="228.845738" y="31.531707" style="fill: #2ca02c"/>
    </g>
    <g clip-path="url(#pe71bbdda98)">
     <use xlink:href="#C4_0_e2101e3149" x="244.78287" y="27.800755" style="fill: #2ca02c"/>
    </g>
    <g clip-path="url(#pe71bbdda98)">
     <use xlink:href="#C4_0_e2101e3149" x="246.139383" y="27.484888" style="fill: #2ca02c"/>
    </g>
    <g clip-path="url(#pe71bbdda98)">
     <use xlink:href="#C4_0_e2101e3149" x="247.497716" y="27.170232" style="fill: #2ca02c"/>
    </g>
    <g clip-path="url(#pe71bbdda98)">
     <use xlink:href="#C4_0_e2101e3149" x="272.351285" y="21.413517" style="fill: #2ca02c"/>
    </g>
    <g clip-path="url(#pe71bbdda98)">
     <use xlink:href="#C4_0_e2101e3149" x="286.214634" y="18.202415" style="fill: #2ca02c"/>
    </g>
    <g clip-path="url(#pe71bbdda98)">
     <use xlink:href="#C4_0_e2101e3149" x="286.623859" y="34.101696" style="fill: #2ca02c"/>
    </g>
    <g clip-path="url(#pe71bbdda98)">
     <use xlink:href="#C4_0_e2101e3149" x="269.277764" y="49.656255" style="fill: #2ca02c"/>
    </g>
    <g clip-path="url(#pe71bbdda98)">
     <use xlink:href="#C4_0_e2101e3149" x="263.940277" y="69.244097" style="fill: #2ca02c"/>
    </g>
    <g clip-path="url(#pe71bbdda98)">
     <use xlink:href="#C4_0_e2101e3149" x="251.486087" y="61.980749" style="fill: #2ca02c"/>
    </g>
    <g clip-path="url(#pe71bbdda98)">
     <use xlink:href="#C4_0_e2101e3149" x="250.954418" y="62.815923" style="fill: #2ca02c"/>
    </g>
    <g clip-path="url(#pe71bbdda98)">
     <use xlink:href="#C4_0_e2101e3149" x="160.51317" y="204.885768" style="fill: #2ca02c"/>
    </g>
   </g>
   <g id="PathCollection_6">
    <defs>
     <path id="C5_0_136c92da0b" d="M 0 1.322876 
C 0.350831 1.322876 0.68734 1.183489 0.935414 0.935414 
C 1.183489 0.68734 1.322876 0.350831 1.322876 -0 
C 1.322876 -0.350831 1.183489 -0.68734 0.935414 -0.935414 
C 0.68734 -1.183489 0.350831 -1.322876 0 -1.322876 
C -0.350831 -1.322876 -0.68734 -1.183489 -0.935414 -0.935414 
C -1.183489 -0.68734 -1.322876 -0.350831 -1.322876 0 
C -1.322876 0.350831 -1.183489 0.68734 -0.935414 0.935414 
C -0.68734 1.183489 -0.350831 1.322876 0 1.322876 
z
"/>
    </defs>
    <g clip-path="url(#pe71bbdda98)">
     <use xlink:href="#C5_0_136c92da0b" x="68.212904" y="288.221616" style="fill: #98df8a"/>
    </g>
    <g clip-path="url(#pe71bbdda98)">
     <use xlink:href="#C5_0_136c92da0b" x="72.936" y="291.371516" style="fill: #98df8a"/>
    </g>
    <g clip-path="url(#pe71bbdda98)">
     <use xlink:href="#C5_0_136c92da0b" x="82.688195" y="297.875395" style="fill: #98df8a"/>
    </g>
    <g clip-path="url(#pe71bbdda98)">
     <use xlink:href="#C5_0_136c92da0b" x="85.617836" y="298.276288" style="fill: #98df8a"/>
    </g>
    <g clip-path="url(#pe71bbdda98)">
     <use xlink:href="#C5_0_136c92da0b" x="103.63227" y="300.741388" style="fill: #98df8a"/>
    </g>
    <g clip-path="url(#pe71bbdda98)">
     <use xlink:href="#C5_0_136c92da0b" x="110.710894" y="305.822175" style="fill: #98df8a"/>
    </g>
    <g clip-path="url(#pe71bbdda98)">
     <use xlink:href="#C5_0_136c92da0b" x="128.363497" y="318.492592" style="fill: #98df8a"/>
    </g>
    <g clip-path="url(#pe71bbdda98)">
     <use xlink:href="#C5_0_136c92da0b" x="130.171637" y="320.866319" style="fill: #98df8a"/>
    </g>
    <g clip-path="url(#pe71bbdda98)">
     <use xlink:href="#C5_0_136c92da0b" x="135.187055" y="327.450565" style="fill: #98df8a"/>
    </g>
    <g clip-path="url(#pe71bbdda98)">
     <use xlink:href="#C5_0_136c92da0b" x="140.162472" y="333.982298" style="fill: #98df8a"/>
    </g>
    <g clip-path="url(#pe71bbdda98)">
     <use xlink:href="#C5_0_136c92da0b" x="88.104228" y="347.74918" style="fill: #98df8a"/>
    </g>
    <g clip-path="url(#pe71bbdda98)">
     <use xlink:href="#C5_0_136c92da0b" x="87.625924" y="345.133523" style="fill: #98df8a"/>
    </g>
    <g clip-path="url(#pe71bbdda98)">
     <use xlink:href="#C5_0_136c92da0b" x="84.660078" y="328.916077" style="fill: #98df8a"/>
    </g>
    <g clip-path="url(#pe71bbdda98)">
     <use xlink:href="#C5_0_136c92da0b" x="84.240472" y="326.621643" style="fill: #98df8a"/>
    </g>
    <g clip-path="url(#pe71bbdda98)">
     <use xlink:href="#C5_0_136c92da0b" x="66.91638" y="322.111655" style="fill: #98df8a"/>
    </g>
    <g clip-path="url(#pe71bbdda98)">
     <use xlink:href="#C5_0_136c92da0b" x="52.385809" y="319.385517" style="fill: #98df8a"/>
    </g>
    <g clip-path="url(#pe71bbdda98)">
     <use xlink:href="#C5_0_136c92da0b" x="41.100999" y="297.769869" style="fill: #98df8a"/>
    </g>
    <g clip-path="url(#pe71bbdda98)">
     <use xlink:href="#C5_0_136c92da0b" x="25.251925" y="293.667928" style="fill: #98df8a"/>
    </g>
   </g>
   <g id="PathCollection_7">
    <defs>
     <path id="C6_0_1feefb64a8" d="M 0 1.322876 
C 0.350831 1.322876 0.68734 1.183489 0.935414 0.935414 
C 1.183489 0.68734 1.322876 0.350831 1.322876 -0 
C 1.322876 -0.350831 1.183489 -0.68734 0.935414 -0.935414 
C 0.68734 -1.183489 0.350831 -1.322876 0 -1.322876 
C -0.350831 -1.322876 -0.68734 -1.183489 -0.935414 -0.935414 
C -1.183489 -0.68734 -1.322876 -0.350831 -1.322876 0 
C -1.322876 0.350831 -1.183489 0.68734 -0.935414 0.935414 
C -0.68734 1.183489 -0.350831 1.322876 0 1.322876 
z
"/>
    </defs>
    <g clip-path="url(#pe71bbdda98)">
     <use xlink:href="#C6_0_1feefb64a8" x="391.212752" y="473.779808" style="fill: #d62728"/>
    </g>
    <g clip-path="url(#pe71bbdda98)">
     <use xlink:href="#C6_0_1feefb64a8" x="400.951746" y="479.632755" style="fill: #d62728"/>
    </g>
    <g clip-path="url(#pe71bbdda98)">
     <use xlink:href="#C6_0_1feefb64a8" x="406.187723" y="482.557782" style="fill: #d62728"/>
    </g>
    <g clip-path="url(#pe71bbdda98)">
     <use xlink:href="#C6_0_1feefb64a8" x="422.377359" y="491.608197" style="fill: #d62728"/>
    </g>
    <g clip-path="url(#pe71bbdda98)">
     <use xlink:href="#C6_0_1feefb64a8" x="427.784522" y="494.637432" style="fill: #d62728"/>
    </g>
    <g clip-path="url(#pe71bbdda98)">
     <use xlink:href="#C6_0_1feefb64a8" x="435.791554" y="499.129091" style="fill: #d62728"/>
    </g>
    <g clip-path="url(#pe71bbdda98)">
     <use xlink:href="#C6_0_1feefb64a8" x="440.974788" y="502.041239" style="fill: #d62728"/>
    </g>
    <g clip-path="url(#pe71bbdda98)">
     <use xlink:href="#C6_0_1feefb64a8" x="458.064225" y="511.642771" style="fill: #d62728"/>
    </g>
    <g clip-path="url(#pe71bbdda98)">
     <use xlink:href="#C6_0_1feefb64a8" x="454.33766" y="495.751048" style="fill: #d62728"/>
    </g>
    <g clip-path="url(#pe71bbdda98)">
     <use xlink:href="#C6_0_1feefb64a8" x="451.96523" y="485.633956" style="fill: #d62728"/>
    </g>
    <g clip-path="url(#pe71bbdda98)">
     <use xlink:href="#C6_0_1feefb64a8" x="453.162847" y="485.317023" style="fill: #d62728"/>
    </g>
    <g clip-path="url(#pe71bbdda98)">
     <use xlink:href="#C6_0_1feefb64a8" x="469.739375" y="480.93027" style="fill: #d62728"/>
    </g>
    <g clip-path="url(#pe71bbdda98)">
     <use xlink:href="#C6_0_1feefb64a8" x="469.651609" y="474.530425" style="fill: #d62728"/>
    </g>
    <g clip-path="url(#pe71bbdda98)">
     <use xlink:href="#C6_0_1feefb64a8" x="469.517468" y="464.748901" style="fill: #d62728"/>
    </g>
    <g clip-path="url(#pe71bbdda98)">
     <use xlink:href="#C6_0_1feefb64a8" x="485.856809" y="439.063849" style="fill: #d62728"/>
    </g>
    <g clip-path="url(#pe71bbdda98)">
     <use xlink:href="#C6_0_1feefb64a8" x="456.542284" y="459.057547" style="fill: #d62728"/>
    </g>
    <g clip-path="url(#pe71bbdda98)">
     <use xlink:href="#C6_0_1feefb64a8" x="429.478345" y="461.764145" style="fill: #d62728"/>
    </g>
    <g clip-path="url(#pe71bbdda98)">
     <use xlink:href="#C6_0_1feefb64a8" x="424.090235" y="459.590652" style="fill: #d62728"/>
    </g>
    <g clip-path="url(#pe71bbdda98)">
     <use xlink:href="#C6_0_1feefb64a8" x="414.416393" y="455.68835" style="fill: #d62728"/>
    </g>
    <g clip-path="url(#pe71bbdda98)">
     <use xlink:href="#C6_0_1feefb64a8" x="408.4828" y="447.355426" style="fill: #d62728"/>
    </g>
    <g clip-path="url(#pe71bbdda98)">
     <use xlink:href="#C6_0_1feefb64a8" x="173.109491" y="313.53971" style="fill: #d62728"/>
    </g>
   </g>
   <g id="PathCollection_8">
    <defs>
     <path id="mb624e99302" d="M 0 1.414214 
C 0.375054 1.414214 0.734797 1.265203 1 1 
C 1.265203 0.734797 1.414214 0.375054 1.414214 0 
C 1.414214 -0.375054 1.265203 -0.734797 1 -1 
C 0.734797 -1.265203 0.375054 -1.414214 0 -1.414214 
C -0.375054 -1.414214 -0.734797 -1.265203 -1 -1 
C -1.265203 -0.734797 -1.414214 -0.375054 -1.414214 0 
C -1.414214 0.375054 -1.265203 0.734797 -1 1 
C -0.734797 1.265203 -0.375054 1.414214 0 1.414214 
z
" style="stroke: #000000"/>
    </defs>
    <g clip-path="url(#pe71bbdda98)">
     <use xlink:href="#mb624e99302" x="46.850877" y="266.824972" style="stroke: #000000"/>
    </g>
   </g>
  </g>
 </g>
 <defs>
  <clipPath id="pe71bbdda98">
   <rect x="0.72" y="0.72" width="558" height="528.267661"/>
  </clipPath>
 </defs>
</svg>
