<?xml version="1.0" encoding="utf-8" standalone="no"?>
<!DOCTYPE svg PUBLIC "-//W3C//DTD SVG 1.1//EN"
  "http://www.w3.org/Graphics/SVG/1.1/DTD/svg11.dtd">
<svg xmlns:xlink="http://www.w3.org/1999/xlink" width="559.44pt" height="475.238644pt" viewBox="0 0 559.44 475.238644" xmlns="http://www.w3.org/2000/svg" version="1.1">
 <metadata>
  <rdf:RDF xmlns:dc="http://purl.org/dc/elements/1.1/" xmlns:cc="http://creativecommons.org/ns#" xmlns:rdf="http://www.w3.org/1999/02/22-rdf-syntax-ns#">
   <cc:Work>
    <dc:type rdf:resource="http://purl.org/dc/dcmitype/StillImage"/>
    <dc:date>2026-06-11T12:34:36.468617</dc:date>
    <dc:format>image/svg+xml</dc:format>
    <dc:creator>
     <cc:Agent>
      <dc:title>Matplotlib v3.6.3, https://matplotlib.org/</dc:title>
     </cc:Agent>
    </dc:creator>
   </cc:Work>
  </rdf:RDF>
 </metadata>
 <defs>
  <style type="text/css">*{stroke-linejoin: round; stroke-linecap: butt}</style>
 </defs>
 <g id="figure_1">
  <g id="patch_1">
   <path d="M 0 475.238644 
L 559.44 475.238644 
L 559.44 0 
L 0 0 
z
" style="fill: #ffffff"/>
  </g>
  <g id="axes_1">
   <g id="patch_2">
    <path d="M 271.043075 107.311965 
L 271.746952 104.0437 
L 265.088224 103.702574 
L 260.229106 108.336148 
L 260.883633 113.591431 
L 261.164653 118.173245 
L 273.224211 115.035316 
L 273.204475 112.303499 
z
" clip-path="url(#p7a6f576de7)" style="fill: #2ca02c; fill-opacity: 0.18"/>
   </g>
   <g id="patch_3">
    <path d="M 269.545421 93.642617 
L 264.966925 94.343347 
L 259.612032 101.029383 
L 270.791245 102.777403 
L 272.535264 99.57898 
z
" clip-path="url(#p7a6f576de7)" style="fill: #2ca02c; fill-opacity: 0.18"/>
   </g>
   <g id="patch_4">
    <path d="M 250.72724 115.855802 
L 243.10881 116.409347 
L 243.487191 126.393263 
L 248.520544 127.291868 
L 254.300286 124.877703 
z
" clip-path="url(#p7a6f576de7)" style="fill: #2ca02c; fill-opacity: 0.18"/>
   </g>
   <g id="patch_5">
    <path d="M 257.29649 104.08133 
L 247.491048 104.468431 
L 243.751638 109.652004 
L 242.850361 116.69637 
L 248.902332 114.593889 
L 252.101391 115.776933 
z
" clip-path="url(#p7a6f576de7)" style="fill: #2ca02c; fill-opacity: 0.18"/>
   </g>
   <g id="patch_6">
    <path d="M 250.251445 122.053619 
L 246.732217 120.611721 
L 245.79984 133.501486 
L 257.216409 128.803114 
z
" clip-path="url(#p7a6f576de7)" style="fill: #2ca02c; fill-opacity: 0.18"/>
   </g>
   <g id="patch_7">
    <path d="M 243.813173 102.418668 
L 242.325494 99.344939 
L 237.621277 100.015277 
L 232.231977 107.324562 
L 235.183883 112.394794 
L 241.564223 109.532583 
z
" clip-path="url(#p7a6f576de7)" style="fill: #2ca02c; fill-opacity: 0.18"/>
   </g>
   <g id="patch_8">
    <path d="M 240.09947 117.732686 
L 234.077973 124.511477 
L 239.043299 128.618817 
L 246.66621 128.765288 
z
" clip-path="url(#p7a6f576de7)" style="fill: #2ca02c; fill-opacity: 0.18"/>
   </g>
   <g id="patch_9">
    <path d="M 227.42063 103.862212 
L 221.041258 105.650239 
L 222.730985 118.043075 
L 229.383565 115.306236 
z
" clip-path="url(#p7a6f576de7)" style="fill: #2ca02c; fill-opacity: 0.18"/>
   </g>
   <g id="patch_10">
    <path d="M 225.900185 93.201062 
L 220.654893 97.203599 
L 222.601191 99.437921 
L 221.395377 101.941591 
L 224.019201 102.932814 
L 226.145517 104.720582 
L 229.815734 107.134507 
L 235.221104 103.366807 
z
" clip-path="url(#p7a6f576de7)" style="fill: #2ca02c; fill-opacity: 0.18"/>
   </g>
   <g id="patch_11">
    <path d="M 215.54151 116.286224 
L 205.01607 117.281952 
L 207.456797 124.876982 
L 210.898116 128.418449 
L 217.023321 126.783967 
L 218.616325 123.038724 
z
" clip-path="url(#p7a6f576de7)" style="fill: #2ca02c; fill-opacity: 0.18"/>
   </g>
   <g id="patch_12">
    <path d="M 217.291271 106.450026 
L 216.837594 100.240162 
L 209.971844 98.166004 
L 208.800728 110.357928 
L 213.545491 112.291735 
L 217.986452 112.517725 
z
" clip-path="url(#p7a6f576de7)" style="fill: #98df8a; fill-opacity: 0.18"/>
   </g>
   <g id="patch_13">
    <path d="M 154.210443 12.111289 
L 150.886022 20.073404 
L 155.489575 23.89289 
L 161.444003 19.42461 
z
" clip-path="url(#p7a6f576de7)" style="fill: #98df8a; fill-opacity: 0.18"/>
   </g>
   <g id="patch_14">
    <path d="M 145.222247 64.968161 
L 133.466676 66.699083 
L 134.596207 69.365827 
L 133.036526 75.512087 
L 136.451629 78.812765 
L 139.334221 78.320786 
L 146.880548 73.491421 
z
" clip-path="url(#p7a6f576de7)" style="fill: #98df8a; fill-opacity: 0.18"/>
   </g>
   <g id="patch_15">
    <path d="M 147.158537 13.055407 
L 141.5508 12.856105 
L 140.020606 9.865309 
L 132.495814 17.597495 
L 140.885449 22.302892 
L 144.698629 23.79343 
L 146.86958 20.271002 
z
" clip-path="url(#p7a6f576de7)" style="fill: #98df8a; fill-opacity: 0.18"/>
   </g>
   <g id="patch_16">
    <path d="M 133.95673 40.811443 
L 136.52294 37.219266 
L 129.884851 39.639007 
L 123.218813 40.547053 
L 124.009911 45.879249 
L 134.457314 49.136258 
z
" clip-path="url(#p7a6f576de7)" style="fill: #98df8a; fill-opacity: 0.18"/>
   </g>
   <g id="patch_17">
    <path d="M 131.670227 13.052069 
L 125.965866 10.262607 
L 124.721128 13.282469 
L 124.095668 21.136262 
L 128.162035 23.741603 
L 132.753114 24.387925 
L 135.956849 23.004115 
L 133.563836 19.142203 
z
" clip-path="url(#p7a6f576de7)" style="fill: #98df8a; fill-opacity: 0.18"/>
   </g>
   <g id="patch_18">
    <path d="M 123.001452 71.719917 
L 114.283456 67.641119 
L 110.675265 71.651201 
L 114.602237 76.024003 
z
" clip-path="url(#p7a6f576de7)" style="fill: #98df8a; fill-opacity: 0.18"/>
   </g>
   <g id="patch_19">
    <path d="M 105.697352 72.053864 
L 101.376668 72.135292 
L 106.990503 76.252208 
z
" clip-path="url(#p7a6f576de7)" style="fill: #98df8a; fill-opacity: 0.18"/>
   </g>
   <g id="patch_20">
    <path d="M 106.706089 40.335996 
L 95.478497 46.015806 
L 104.018214 51.739491 
z
" clip-path="url(#p7a6f576de7)" style="fill: #98df8a; fill-opacity: 0.18"/>
   </g>
   <g id="patch_21">
    <path d="M 187.698389 204.870135 
L 176.799324 207.143785 
L 179.728664 211.451971 
L 176.804463 211.991687 
L 180.581275 216.647523 
L 188.771257 217.375034 
L 189.00133 211.727264 
z
" clip-path="url(#p7a6f576de7)" style="fill: #d62728; fill-opacity: 0.18"/>
   </g>
   <g id="patch_22">
    <path d="M 184.866441 194.441021 
L 181.027828 194.750453 
L 176.560706 193.366872 
L 176.6046 200.518591 
L 182.012295 203.271487 
L 186.842 206.541579 
L 191.312062 204.105245 
L 191.205504 201.252052 
z
" clip-path="url(#p7a6f576de7)" style="fill: #d62728; fill-opacity: 0.18"/>
   </g>
   <g id="patch_23">
    <path d="M 176.079408 194.140036 
L 166.396811 197.276709 
L 174.854114 204.798149 
L 177.77038 200.799835 
z
" clip-path="url(#p7a6f576de7)" style="fill: #d62728; fill-opacity: 0.18"/>
   </g>
   <g id="patch_24">
    <path d="M 165.59841 176.510548 
L 173.293979 186.811657 
L 178.575419 183.320911 
z
" clip-path="url(#p7a6f576de7)" style="fill: #d62728; fill-opacity: 0.18"/>
   </g>
   <g id="patch_25">
    <path d="M 161.931742 208.604525 
L 159.924126 203.24866 
L 150.103837 209.94599 
L 151.378827 215.330447 
L 160.601804 214.63834 
L 160.72591 211.405984 
z
" clip-path="url(#p7a6f576de7)" style="fill: #d62728; fill-opacity: 0.18"/>
   </g>
   <g id="patch_26">
    <path d="M 163.01517 199.826095 
L 162.854447 195.2366 
L 151.955522 195.161848 
L 149.774712 197.17334 
L 150.917452 205.85624 
L 156.25396 204.124778 
L 158.868717 205.496988 
z
" clip-path="url(#p7a6f576de7)" style="fill: #d62728; fill-opacity: 0.18"/>
   </g>
   <g id="patch_27">
    <path d="M 161.233738 176.813798 
L 151.119093 175.072274 
L 149.99593 186.991149 
L 156.518374 182.418705 
z
" clip-path="url(#p7a6f576de7)" style="fill: #d62728; fill-opacity: 0.18"/>
   </g>
   <g id="patch_28">
    <path d="M 149.437144 199.303605 
L 145.490033 198.961216 
L 141.720756 204.476596 
z
" clip-path="url(#p7a6f576de7)" style="fill: #d62728; fill-opacity: 0.18"/>
   </g>
   <g id="patch_29">
    <path d="M 151.178338 181.439405 
L 150.16373 177.852696 
L 141.044828 177.514905 
L 141.009354 180.864869 
L 138.351735 185.405849 
L 141.338095 189.075464 
L 152.928912 189.682628 
z
" clip-path="url(#p7a6f576de7)" style="fill: #d62728; fill-opacity: 0.18"/>
   </g>
   <g id="patch_30">
    <path d="M 134.804343 204.21725 
L 126.052584 205.133492 
L 122.702043 211.247855 
L 122.418717 215.02883 
L 133.803367 214.744594 
z
" clip-path="url(#p7a6f576de7)" style="fill: #d62728; fill-opacity: 0.18"/>
   </g>
   <g id="patch_31">
    <path d="M 135.033981 178.308667 
L 128.529044 177.462584 
L 122.137501 186.190266 
L 130.655629 189.916513 
L 133.878624 184.052969 
z
" clip-path="url(#p7a6f576de7)" style="fill: #d62728; fill-opacity: 0.18"/>
   </g>
   <g id="patch_32">
    <path d="M 77.776589 290.58146 
L 78.988854 286.069909 
L 68.57829 286.941838 
L 68.340066 292.76051 
L 73.395716 298.957233 
L 80.331485 294.736306 
z
" clip-path="url(#p7a6f576de7)" style="fill: #1f77b4; fill-opacity: 0.18"/>
   </g>
   <g id="patch_33">
    <path d="M 80.900596 263.862193 
L 73.805815 265.131264 
L 67.692119 270.961996 
z
" clip-path="url(#p7a6f576de7)" style="fill: #1f77b4; fill-opacity: 0.18"/>
   </g>
   <g id="patch_34">
    <path d="M 70.358173 260.248351 
L 67.414898 262.131203 
L 63.94811 261.011102 
L 57.135576 261.438221 
L 65.486876 271.959707 
L 68.600174 270.388411 
z
" clip-path="url(#p7a6f576de7)" style="fill: #1f77b4; fill-opacity: 0.18"/>
   </g>
   <g id="patch_35">
    <path d="M 63.259097 230.13726 
L 62.777474 237.560411 
L 67.874183 237.726895 
z
" clip-path="url(#p7a6f576de7)" style="fill: #1f77b4; fill-opacity: 0.18"/>
   </g>
   <g id="patch_36">
    <path d="M 47.339576 288.507678 
L 39.005813 287.262419 
L 47.125626 296.819132 
L 48.868375 299.748854 
L 52.71791 298.280868 
z
" clip-path="url(#p7a6f576de7)" style="fill: #1f77b4; fill-opacity: 0.18"/>
   </g>
   <g id="patch_37">
    <path d="M 52.942039 230.983921 
L 46.943497 231.998392 
L 40.788649 230.197946 
L 46.234962 237.560411 
L 51.097357 238.66146 
L 50.680647 234.402501 
z
" clip-path="url(#p7a6f576de7)" style="fill: #1f77b4; fill-opacity: 0.18"/>
   </g>
   <g id="patch_38">
    <path d="M 33.897767 258.234888 
L 25.698406 263.125782 
L 25.49008 268.106359 
L 35.593878 269.743422 
z
" clip-path="url(#p7a6f576de7)" style="fill: #1f77b4; fill-opacity: 0.18"/>
   </g>
   <g id="patch_39">
    <path d="M 22.647658 261.112559 
L 17.032767 259.551812 
L 11.490016 261.669998 
L 11.599944 268.691361 
L 14.550411 267.545585 
L 15.498968 271.545568 
L 25.95508 265.228429 
z
" clip-path="url(#p7a6f576de7)" style="fill: #1f77b4; fill-opacity: 0.18"/>
   </g>
   <g id="patch_40">
    <path d="M 24.411005 239.942324 
L 18.664109 237.560411 
L 11.450769 240.048464 
L 18.450363 242.426832 
z
" clip-path="url(#p7a6f576de7)" style="fill: #1f77b4; fill-opacity: 0.18"/>
   </g>
   <g id="patch_41">
    <path d="M 217.854368 312.876797 
L 208.835823 313.217713 
L 206.829431 317.680943 
L 211.66008 320.27297 
z
" clip-path="url(#p7a6f576de7)" style="fill: #aec7e8; fill-opacity: 0.18"/>
   </g>
   <g id="patch_42">
    <path d="M 217.287703 309.648826 
L 204.097197 303.526979 
L 204.593282 311.448496 
L 208.035426 316.318907 
L 217.368714 316.229347 
z
" clip-path="url(#p7a6f576de7)" style="fill: #aec7e8; fill-opacity: 0.18"/>
   </g>
   <g id="patch_43">
    <path d="M 202.788306 304.241086 
L 200.631739 309.244628 
L 207.156515 311.094152 
z
" clip-path="url(#p7a6f576de7)" style="fill: #aec7e8; fill-opacity: 0.18"/>
   </g>
   <g id="patch_44">
    <path d="M 206.389131 285.888612 
L 198.960707 285.335407 
L 196.553488 292.218333 
L 202.152732 298.325875 
z
" clip-path="url(#p7a6f576de7)" style="fill: #aec7e8; fill-opacity: 0.18"/>
   </g>
   <g id="patch_45">
    <path d="M 201.492586 315.669532 
L 188.729335 318.98553 
L 192.931131 325.650733 
L 201.261231 327.663881 
L 199.315927 323.919696 
z
" clip-path="url(#p7a6f576de7)" style="fill: #aec7e8; fill-opacity: 0.18"/>
   </g>
   <g id="patch_46">
    <path d="M 188.297761 320.116002 
L 186.878069 314.502166 
L 177.175978 326.04134 
z
" clip-path="url(#p7a6f576de7)" style="fill: #aec7e8; fill-opacity: 0.18"/>
   </g>
   <g id="patch_47">
    <path d="M 182.17308 301.920305 
L 176.559844 302.942971 
L 178.11607 309.267132 
L 177.74144 312.240276 
L 181.675649 316.596583 
L 187.53776 313.146327 
L 190.398554 314.195871 
L 190.254919 311.216696 
z
" clip-path="url(#p7a6f576de7)" style="fill: #aec7e8; fill-opacity: 0.18"/>
   </g>
   <g id="patch_48">
    <path d="M 184.089227 292.702117 
L 180.968381 299.527979 
L 187.684103 299.656813 
z
" clip-path="url(#p7a6f576de7)" style="fill: #aec7e8; fill-opacity: 0.18"/>
   </g>
   <g id="patch_49">
    <path d="M 180.507613 317.233661 
L 179.087796 313.724451 
L 175.006783 314.048729 
L 167.013889 314.800738 
L 167.762512 319.546644 
L 168.034421 325.222093 
L 177.619151 325.170712 
L 177.304754 319.119318 
z
" clip-path="url(#p7a6f576de7)" style="fill: #aec7e8; fill-opacity: 0.18"/>
   </g>
   <g id="patch_50">
    <path d="M 180.23085 289.561606 
L 178.705183 286.478468 
L 172.223718 286.384458 
L 169.619587 288.833891 
L 167.36622 294.18465 
L 172.268219 298.523532 
L 177.60565 296.493112 
L 177.429495 292.829954 
z
" clip-path="url(#p7a6f576de7)" style="fill: #aec7e8; fill-opacity: 0.18"/>
   </g>
   <g id="patch_51">
    <path d="M 163.29379 302.411517 
L 156.449061 311.873672 
L 166.512227 312.351632 
z
" clip-path="url(#p7a6f576de7)" style="fill: #aec7e8; fill-opacity: 0.18"/>
   </g>
   <g id="patch_52">
    <path d="M 163.835719 317.955453 
L 159.179764 313.169458 
L 152.502477 320.710944 
L 153.08655 324.379349 
L 155.504914 327.792343 
z
" clip-path="url(#p7a6f576de7)" style="fill: #aec7e8; fill-opacity: 0.18"/>
   </g>
   <g id="patch_53">
    <path d="M 160.679412 285.131848 
L 151.188618 287.355736 
L 153.308866 299.920049 
L 162.725339 300.271345 
z
" clip-path="url(#p7a6f576de7)" style="fill: #aec7e8; fill-opacity: 0.18"/>
   </g>
   <g id="patch_54">
    <path d="M 266.577913 457.788455 
L 267.857951 454.341193 
L 258.669581 451.042648 
L 255.442941 457.356066 
L 255.417451 460.128163 
L 256.98014 464.233504 
L 259.73516 464.448962 
L 263.571167 462.315022 
z
" clip-path="url(#p7a6f576de7)" style="fill: #ff7f0e; fill-opacity: 0.18"/>
   </g>
   <g id="patch_55">
    <path d="M 256.82581 429.82536 
L 250.429748 423.291102 
L 243.04703 429.827671 
L 244.008094 436.44926 
L 253.722113 437.249025 
z
" clip-path="url(#p7a6f576de7)" style="fill: #ff7f0e; fill-opacity: 0.18"/>
   </g>
   <g id="patch_56">
    <path d="M 251.212998 396.156418 
L 245.435575 405.201468 
L 253.217366 410.513818 
L 255.669644 406.398962 
z
" clip-path="url(#p7a6f576de7)" style="fill: #ff7f0e; fill-opacity: 0.18"/>
   </g>
   <g id="patch_57">
    <path d="M 246.110504 455.935035 
L 243.983302 453.845533 
L 246.419197 451.451019 
L 242.771475 450.997789 
L 234.980242 452.35354 
L 233.455944 456.675542 
L 239.39698 464.453911 
L 241.911365 465.407132 
z
" clip-path="url(#p7a6f576de7)" style="fill: #ff7f0e; fill-opacity: 0.18"/>
   </g>
   <g id="patch_58">
    <path d="M 242.297382 398.328405 
L 238.889441 396.26556 
L 233.118839 397.08355 
L 232.439304 401.695917 
L 231.737947 408.221953 
L 236.319185 407.04218 
L 238.951202 407.155565 
L 243.874971 410.453799 
z
" clip-path="url(#p7a6f576de7)" style="fill: #ff7f0e; fill-opacity: 0.18"/>
   </g>
   <g id="patch_59">
    <path d="M 230.277776 452.798279 
L 222.266913 451.518071 
L 228.202592 458.127235 
z
" clip-path="url(#p7a6f576de7)" style="fill: #ff7f0e; fill-opacity: 0.18"/>
   </g>
   <g id="patch_60">
    <path d="M 235.4713 397.216481 
L 231.399442 395.691053 
L 224.749798 409.899916 
L 233.717752 408.565048 
z
" clip-path="url(#p7a6f576de7)" style="fill: #ff7f0e; fill-opacity: 0.18"/>
   </g>
   <g id="patch_61">
    <path d="M 217.249756 457.841618 
L 216.913533 453.765521 
L 207.123577 452.311742 
L 206.870538 463.928228 
L 217.426808 461.619486 
z
" clip-path="url(#p7a6f576de7)" style="fill: #ff7f0e; fill-opacity: 0.18"/>
   </g>
   <g id="patch_62">
    <path d="M 294.372639 320.27297 
L 286.981532 315.797878 
L 289.783915 325.662491 
L 298.54204 324.164256 
z
" clip-path="url(#p7a6f576de7)" style="fill: #9467bd; fill-opacity: 0.18"/>
   </g>
   <g id="patch_63">
    <path d="M 301.577076 287.83429 
L 298.301004 288.87647 
L 289.197589 286.681024 
L 289.681799 296.574847 
L 293.359271 298.682816 
L 298.514259 292.250158 
z
" clip-path="url(#p7a6f576de7)" style="fill: #ff9896; fill-opacity: 0.18"/>
   </g>
   <g id="patch_64">
    <path d="M 299.160968 264.530904 
L 301.234334 259.363295 
L 289.428823 264.34773 
L 291.700403 272.112349 
L 298.929892 271.845819 
z
" clip-path="url(#p7a6f576de7)" style="fill: #ff9896; fill-opacity: 0.18"/>
   </g>
   <g id="patch_65">
    <path d="M 290.287142 318.764246 
L 283.344298 320.27297 
L 279.418733 322.65982 
L 288.444376 324.62892 
z
" clip-path="url(#p7a6f576de7)" style="fill: #9467bd; fill-opacity: 0.18"/>
   </g>
   <g id="patch_66">
    <path d="M 287.520473 261.579639 
L 289.051038 258.347449 
L 279.129674 261.245993 
L 275.772143 263.220302 
L 277.493867 269.893871 
L 282.021561 271.752071 
L 289.399661 266.812254 
z
" clip-path="url(#p7a6f576de7)" style="fill: #ff9896; fill-opacity: 0.18"/>
   </g>
   <g id="patch_67">
    <path d="M 284.75681 289.182512 
L 282.712879 286.106074 
L 270.683881 292.456592 
L 281.840265 297.865495 
L 285.332326 299.859656 
z
" clip-path="url(#p7a6f576de7)" style="fill: #ff9896; fill-opacity: 0.18"/>
   </g>
   <g id="patch_68">
    <path d="M 285.304097 260.28441 
L 281.241323 258.102334 
L 274.247902 258.384336 
L 276.471833 261.312365 
L 273.958188 263.117309 
L 271.382882 267.55185 
L 282.037624 267.201564 
z
" clip-path="url(#p7a6f576de7)" style="fill: #ff9896; fill-opacity: 0.18"/>
   </g>
   <g id="patch_69">
    <path d="M 273.989775 318.213132 
L 269.3808 314.317622 
L 260.171285 316.771659 
L 260.111962 325.711153 
L 262.984474 327.423398 
L 272.330481 326.393402 
z
" clip-path="url(#p7a6f576de7)" style="fill: #9467bd; fill-opacity: 0.18"/>
   </g>
   <g id="patch_70">
    <path d="M 268.97926 285.965603 
L 265.723131 286.24799 
L 261.690839 288.612306 
L 260.641389 292.959956 
L 263.274053 297.398019 
L 269.83599 297.936157 
z
" clip-path="url(#p7a6f576de7)" style="fill: #9467bd; fill-opacity: 0.18"/>
   </g>
   <g id="patch_71">
    <path d="M 541.730918 315.907034 
L 537.875247 314.099442 
L 537.014896 317.374704 
L 539.474654 324.362444 
L 547.989231 326.965508 
z
" clip-path="url(#p7a6f576de7)" style="fill: #9467bd; fill-opacity: 0.18"/>
   </g>
   <g id="patch_72">
    <path d="M 535.777776 286.406724 
L 537.434204 296.000936 
L 546.595729 294.435394 
z
" clip-path="url(#p7a6f576de7)" style="fill: #9467bd; fill-opacity: 0.18"/>
   </g>
   <g id="patch_73">
    <path d="M 317.381411 317.504929 
L 307.06501 316.735337 
L 303.719834 323.879173 
L 318.127323 322.213299 
z
" clip-path="url(#p7a6f576de7)" style="fill: #9467bd; fill-opacity: 0.18"/>
   </g>
   <g id="patch_74">
    <path d="M 530.079683 318.040993 
L 532.362869 313.173688 
L 526.863677 312.851399 
L 520.580256 313.358076 
L 521.453511 321.231333 
L 532.72655 326.987847 
L 531.360153 322.534703 
z
" clip-path="url(#p7a6f576de7)" style="fill: #9467bd; fill-opacity: 0.18"/>
   </g>
   <g id="patch_75">
    <path d="M 318.188124 291.2564 
L 313.719282 288.378243 
L 309.092922 287.849873 
L 304.446581 288.69591 
L 306.418127 292.22617 
L 303.79413 294.140618 
L 307.331253 298.860257 
z
" clip-path="url(#p7a6f576de7)" style="fill: #ff9896; fill-opacity: 0.18"/>
   </g>
   <g id="patch_76">
    <path d="M 273.685087 123.207609 
L 270.512262 121.947696 
L 266.670183 119.716386 
L 261.503803 119.988734 
L 259.648185 129.045045 
L 266.824962 133.000643 
L 272.618169 132.295941 
z
" clip-path="url(#p7a6f576de7)" style="fill: #2ca02c; fill-opacity: 0.18"/>
   </g>
   <g id="patch_77">
    <path d="M 520.514104 286.678581 
L 515.202183 285.621151 
L 509.495756 287.151309 
L 510.384558 292.156357 
L 510.698208 295.565823 
L 512.634454 299.525148 
L 521.849595 293.734403 
z
" clip-path="url(#p7a6f576de7)" style="fill: #9467bd; fill-opacity: 0.18"/>
   </g>
   <g id="patch_78">
    <path d="M 510.72859 312.946784 
L 496.452642 323.228142 
L 499.697677 326.97512 
L 510.497247 324.746731 
z
" clip-path="url(#p7a6f576de7)" style="fill: #9467bd; fill-opacity: 0.18"/>
   </g>
   <g id="patch_79">
    <path d="M 510.925681 286.798462 
L 497.509343 291.055554 
L 502.70337 297.363376 
L 510.825482 298.677463 
z
" clip-path="url(#p7a6f576de7)" style="fill: #9467bd; fill-opacity: 0.18"/>
   </g>
   <g id="patch_80">
    <path d="M 505.325584 314.394414 
L 498.288662 316.111572 
L 493.528577 313.27692 
L 493.962043 324.726614 
L 500.481537 324.156173 
L 501.10272 327.371044 
L 503.949096 327.515003 
L 503.678107 321.566175 
z
" clip-path="url(#p7a6f576de7)" style="fill: #9467bd; fill-opacity: 0.18"/>
   </g>
   <g id="patch_81">
    <path d="M 494.448897 346.959902 
L 481.27801 345.536491 
L 480.177695 353.484797 
L 487.615246 352.648722 
L 491.539751 352.894776 
z
" clip-path="url(#p7a6f576de7)" style="fill: #9467bd; fill-opacity: 0.18"/>
   </g>
   <g id="patch_82">
    <path d="M 492.89812 285.120106 
L 488.53474 288.314047 
L 483.083505 287.680399 
L 481.818871 290.656395 
L 483.892461 296.904832 
L 483.175931 300.024101 
L 491.551732 294.003906 
z
" clip-path="url(#p7a6f576de7)" style="fill: #9467bd; fill-opacity: 0.18"/>
   </g>
   <g id="patch_83">
    <path d="M 432.226904 182.418705 
L 427.086694 183.70439 
L 424.745604 188.877716 
z
" clip-path="url(#p7a6f576de7)" style="fill: #ffbb78; fill-opacity: 0.18"/>
   </g>
   <g id="patch_84">
    <path d="M 421.521958 181.070333 
L 419.538623 178.04616 
L 412.03779 178.33653 
L 408.233874 188.36634 
L 414.043307 188.592485 
L 416.586798 186.806406 
L 422.291354 186.314244 
z
" clip-path="url(#p7a6f576de7)" style="fill: #ffbb78; fill-opacity: 0.18"/>
   </g>
   <g id="patch_85">
    <path d="M 404.765765 161.308821 
L 401.776648 158.365117 
L 400.803164 162.881492 
L 409.890766 172.424589 
z
" clip-path="url(#p7a6f576de7)" style="fill: #ffbb78; fill-opacity: 0.18"/>
   </g>
   <g id="patch_86">
    <path d="M 398.92829 148.905797 
L 387.757107 149.009886 
L 386.500447 154.792272 
L 390.759218 161.571407 
L 400.466167 159.594665 
z
" clip-path="url(#p7a6f576de7)" style="fill: #ffbb78; fill-opacity: 0.18"/>
   </g>
   <g id="patch_87">
    <path d="M 388.200228 176.583252 
L 377.463149 177.439248 
L 375.762464 181.995043 
L 375.951954 189.560926 
L 389.686577 186.820188 
z
" clip-path="url(#p7a6f576de7)" style="fill: #ffbb78; fill-opacity: 0.18"/>
   </g>
   <g id="patch_88">
    <path d="M 383.463907 176.572677 
L 370.690008 176.443461 
L 372.848655 182.087143 
L 371.311765 185.212593 
L 375.059824 186.691216 
L 377.701802 186.59067 
L 380.966876 187.983026 
L 381.774723 185.461481 
z
" clip-path="url(#p7a6f576de7)" style="fill: #ffbb78; fill-opacity: 0.18"/>
   </g>
   <g id="patch_89">
    <path d="M 377.536847 149.544251 
L 370.513729 147.290877 
L 369.656797 153.913755 
L 372.993967 159.70804 
L 378.465125 159.937027 
L 382.255157 155.24308 
z
" clip-path="url(#p7a6f576de7)" style="fill: #ffbb78; fill-opacity: 0.18"/>
   </g>
   <g id="patch_90">
    <path d="M 368.170014 160.801611 
L 359.44367 160.20187 
L 358.821735 169.622019 
L 366.056857 165.876193 
z
" clip-path="url(#p7a6f576de7)" style="fill: #ffbb78; fill-opacity: 0.18"/>
   </g>
   <g id="patch_91">
    <path d="M 349.514345 182.418705 
L 344.742493 179.727927 
L 345.642967 186.173637 
L 357.068173 188.330792 
z
" clip-path="url(#p7a6f576de7)" style="fill: #ffbb78; fill-opacity: 0.18"/>
   </g>
   <g id="patch_92">
    <path d="M 353.98887 153.425087 
L 349.923414 150.719471 
L 343.233838 151.988673 
L 345.409743 156.413623 
L 354.352844 162.331265 
z
" clip-path="url(#p7a6f576de7)" style="fill: #ffbb78; fill-opacity: 0.18"/>
   </g>
   <g id="patch_93">
    <path d="M 394.506445 15.777346 
L 390.890548 12.48625 
L 386.577239 10.214737 
L 384.089465 18.062768 
L 383.419893 22.420992 
L 393.753402 24.506684 
z
" clip-path="url(#p7a6f576de7)" style="fill: #c5b0d5; fill-opacity: 0.18"/>
   </g>
   <g id="patch_94">
    <path d="M 383.300842 15.513575 
L 370.863713 10.240189 
L 370.57393 16.1523 
L 382.286427 23.885547 
z
" clip-path="url(#p7a6f576de7)" style="fill: #c5b0d5; fill-opacity: 0.18"/>
   </g>
   <g id="patch_95">
    <path d="M 384.169304 29.278311 
L 375.425839 27.603151 
L 370.158913 30.372292 
L 370.473377 35.318192 
L 372.423243 38.389092 
L 384.165174 37.877697 
z
" clip-path="url(#p7a6f576de7)" style="fill: #c5b0d5; fill-opacity: 0.18"/>
   </g>
   <g id="patch_96">
    <path d="M 363.579298 39.73557 
L 358.434681 39.076249 
L 354.908918 41.043136 
L 356.040228 44.221978 
L 360.542687 44.564439 
z
" clip-path="url(#p7a6f576de7)" style="fill: #c5b0d5; fill-opacity: 0.18"/>
   </g>
   <g id="patch_97">
    <path d="M 349.411675 37.181025 
L 345.636112 41.915387 
L 343.681883 51.370329 
L 354.364656 51.145349 
z
" clip-path="url(#p7a6f576de7)" style="fill: #c5b0d5; fill-opacity: 0.18"/>
   </g>
   <g id="patch_98">
    <path d="M 348.363374 9.831512 
L 344.240565 13.354519 
L 343.960757 18.820941 
L 345.399503 23.432616 
L 351.227067 22.966384 
L 355.538868 20.166407 
z
" clip-path="url(#p7a6f576de7)" style="fill: #c5b0d5; fill-opacity: 0.18"/>
   </g>
   <g id="patch_99">
    <path d="M 344.641206 67.995015 
L 339.56368 64.640782 
L 339.356399 67.277973 
L 333.382945 72.277164 
L 331.572859 76.159048 
L 338.989482 77.435822 
L 346.008279 76.306226 
L 342.79308 72.742652 
z
" clip-path="url(#p7a6f576de7)" style="fill: #c5b0d5; fill-opacity: 0.18"/>
   </g>
   <g id="patch_100">
    <path d="M 327.666288 41.555633 
L 321.737584 39.314296 
L 315.494946 38.444768 
L 315.369043 41.48756 
L 316.503754 48.312163 
L 326.223217 48.817829 
L 327.962688 46.055579 
z
" clip-path="url(#p7a6f576de7)" style="fill: #c5b0d5; fill-opacity: 0.18"/>
   </g>
   <g id="patch_101">
    <path d="M 326.120479 15.001357 
L 327.294691 11.581252 
L 322.014421 10.618751 
L 316.662664 10.208006 
L 317.299895 17.330778 
L 317.017306 23.930474 
L 325.398295 21.92442 
L 328.105382 22.064098 
z
" clip-path="url(#p7a6f576de7)" style="fill: #c5b0d5; fill-opacity: 0.18"/>
   </g>
   <g id="line2d_1">
    <path d="M 271.043075 107.311965 
L 271.746952 104.0437 
L 265.088224 103.702574 
L 260.229106 108.336148 
L 260.883633 113.591431 
L 261.164653 118.173245 
L 273.224211 115.035316 
L 273.204475 112.303499 
L 271.043075 107.311965 
" clip-path="url(#p7a6f576de7)" style="fill: none; stroke: #2ca02c; stroke-width: 0.6; stroke-linecap: square"/>
   </g>
   <g id="line2d_2">
    <path d="M 269.545421 93.642617 
L 264.966925 94.343347 
L 259.612032 101.029383 
L 270.791245 102.777403 
L 272.535264 99.57898 
L 269.545421 93.642617 
" clip-path="url(#p7a6f576de7)" style="fill: none; stroke: #2ca02c; stroke-width: 0.6; stroke-linecap: square"/>
   </g>
   <g id="line2d_3">
    <path d="M 250.72724 115.855802 
L 243.10881 116.409347 
L 243.487191 126.393263 
L 248.520544 127.291868 
L 254.300286 124.877703 
L 250.72724 115.855802 
" clip-path="url(#p7a6f576de7)" style="fill: none; stroke: #2ca02c; stroke-width: 0.6; stroke-linecap: square"/>
   </g>
   <g id="line2d_4">
    <path d="M 257.29649 104.08133 
L 247.491048 104.468431 
L 243.751638 109.652004 
L 242.850361 116.69637 
L 248.902332 114.593889 
L 252.101391 115.776933 
L 257.29649 104.08133 
" clip-path="url(#p7a6f576de7)" style="fill: none; stroke: #2ca02c; stroke-width: 0.6; stroke-linecap: square"/>
   </g>
   <g id="line2d_5">
    <path d="M 250.251445 122.053619 
L 246.732217 120.611721 
L 245.79984 133.501486 
L 257.216409 128.803114 
L 250.251445 122.053619 
" clip-path="url(#p7a6f576de7)" style="fill: none; stroke: #2ca02c; stroke-width: 0.6; stroke-linecap: square"/>
   </g>
   <g id="line2d_6">
    <path d="M 243.813173 102.418668 
L 242.325494 99.344939 
L 237.621277 100.015277 
L 232.231977 107.324562 
L 235.183883 112.394794 
L 241.564223 109.532583 
L 243.813173 102.418668 
" clip-path="url(#p7a6f576de7)" style="fill: none; stroke: #2ca02c; stroke-width: 0.6; stroke-linecap: square"/>
   </g>
   <g id="line2d_7">
    <path d="M 240.09947 117.732686 
L 234.077973 124.511477 
L 239.043299 128.618817 
L 246.66621 128.765288 
L 240.09947 117.732686 
" clip-path="url(#p7a6f576de7)" style="fill: none; stroke: #2ca02c; stroke-width: 0.6; stroke-linecap: square"/>
   </g>
   <g id="line2d_8">
    <path d="M 227.42063 103.862212 
L 221.041258 105.650239 
L 222.730985 118.043075 
L 229.383565 115.306236 
L 227.42063 103.862212 
" clip-path="url(#p7a6f576de7)" style="fill: none; stroke: #2ca02c; stroke-width: 0.6; stroke-linecap: square"/>
   </g>
   <g id="line2d_9">
    <path d="M 225.900185 93.201062 
L 220.654893 97.203599 
L 222.601191 99.437921 
L 221.395377 101.941591 
L 224.019201 102.932814 
L 226.145517 104.720582 
L 229.815734 107.134507 
L 235.221104 103.366807 
L 225.900185 93.201062 
" clip-path="url(#p7a6f576de7)" style="fill: none; stroke: #2ca02c; stroke-width: 0.6; stroke-linecap: square"/>
   </g>
   <g id="line2d_10">
    <path d="M 215.54151 116.286224 
L 205.01607 117.281952 
L 207.456797 124.876982 
L 210.898116 128.418449 
L 217.023321 126.783967 
L 218.616325 123.038724 
L 215.54151 116.286224 
" clip-path="url(#p7a6f576de7)" style="fill: none; stroke: #2ca02c; stroke-width: 0.6; stroke-linecap: square"/>
   </g>
   <g id="line2d_11">
    <path d="M 217.291271 106.450026 
L 216.837594 100.240162 
L 209.971844 98.166004 
L 208.800728 110.357928 
L 213.545491 112.291735 
L 217.986452 112.517725 
L 217.291271 106.450026 
" clip-path="url(#p7a6f576de7)" style="fill: none; stroke: #98df8a; stroke-width: 0.6; stroke-linecap: square"/>
   </g>
   <g id="line2d_12">
    <path d="M 154.210443 12.111289 
L 150.886022 20.073404 
L 155.489575 23.89289 
L 161.444003 19.42461 
L 154.210443 12.111289 
" clip-path="url(#p7a6f576de7)" style="fill: none; stroke: #98df8a; stroke-width: 0.6; stroke-linecap: square"/>
   </g>
   <g id="line2d_13">
    <path d="M 145.222247 64.968161 
L 133.466676 66.699083 
L 134.596207 69.365827 
L 133.036526 75.512087 
L 136.451629 78.812765 
L 139.334221 78.320786 
L 146.880548 73.491421 
L 145.222247 64.968161 
" clip-path="url(#p7a6f576de7)" style="fill: none; stroke: #98df8a; stroke-width: 0.6; stroke-linecap: square"/>
   </g>
   <g id="line2d_14">
    <path d="M 147.158537 13.055407 
L 141.5508 12.856105 
L 140.020606 9.865309 
L 132.495814 17.597495 
L 140.885449 22.302892 
L 144.698629 23.79343 
L 146.86958 20.271002 
L 147.158537 13.055407 
" clip-path="url(#p7a6f576de7)" style="fill: none; stroke: #98df8a; stroke-width: 0.6; stroke-linecap: square"/>
   </g>
   <g id="line2d_15">
    <path d="M 133.95673 40.811443 
L 136.52294 37.219266 
L 129.884851 39.639007 
L 123.218813 40.547053 
L 124.009911 45.879249 
L 134.457314 49.136258 
L 133.95673 40.811443 
" clip-path="url(#p7a6f576de7)" style="fill: none; stroke: #98df8a; stroke-width: 0.6; stroke-linecap: square"/>
   </g>
   <g id="line2d_16">
    <path d="M 131.670227 13.052069 
L 125.965866 10.262607 
L 124.721128 13.282469 
L 124.095668 21.136262 
L 128.162035 23.741603 
L 132.753114 24.387925 
L 135.956849 23.004115 
L 133.563836 19.142203 
L 131.670227 13.052069 
" clip-path="url(#p7a6f576de7)" style="fill: none; stroke: #98df8a; stroke-width: 0.6; stroke-linecap: square"/>
   </g>
   <g id="line2d_17">
    <path d="M 123.001452 71.719917 
L 114.283456 67.641119 
L 110.675265 71.651201 
L 114.602237 76.024003 
L 123.001452 71.719917 
" clip-path="url(#p7a6f576de7)" style="fill: none; stroke: #98df8a; stroke-width: 0.6; stroke-linecap: square"/>
   </g>
   <g id="line2d_18">
    <path d="M 105.697352 72.053864 
L 101.376668 72.135292 
L 106.990503 76.252208 
L 105.697352 72.053864 
" clip-path="url(#p7a6f576de7)" style="fill: none; stroke: #98df8a; stroke-width: 0.6; stroke-linecap: square"/>
   </g>
   <g id="line2d_19">
    <path d="M 106.706089 40.335996 
L 95.478497 46.015806 
L 104.018214 51.739491 
L 106.706089 40.335996 
" clip-path="url(#p7a6f576de7)" style="fill: none; stroke: #98df8a; stroke-width: 0.6; stroke-linecap: square"/>
   </g>
   <g id="line2d_20">
    <path d="M 187.698389 204.870135 
L 176.799324 207.143785 
L 179.728664 211.451971 
L 176.804463 211.991687 
L 180.581275 216.647523 
L 188.771257 217.375034 
L 189.00133 211.727264 
L 187.698389 204.870135 
" clip-path="url(#p7a6f576de7)" style="fill: none; stroke: #d62728; stroke-width: 0.6; stroke-linecap: square"/>
   </g>
   <g id="line2d_21">
    <path d="M 184.866441 194.441021 
L 181.027828 194.750453 
L 176.560706 193.366872 
L 176.6046 200.518591 
L 182.012295 203.271487 
L 186.842 206.541579 
L 191.312062 204.105245 
L 191.205504 201.252052 
L 184.866441 194.441021 
" clip-path="url(#p7a6f576de7)" style="fill: none; stroke: #d62728; stroke-width: 0.6; stroke-linecap: square"/>
   </g>
   <g id="line2d_22">
    <path d="M 176.079408 194.140036 
L 166.396811 197.276709 
L 174.854114 204.798149 
L 177.77038 200.799835 
L 176.079408 194.140036 
" clip-path="url(#p7a6f576de7)" style="fill: none; stroke: #d62728; stroke-width: 0.6; stroke-linecap: square"/>
   </g>
   <g id="line2d_23">
    <path d="M 165.59841 176.510548 
L 173.293979 186.811657 
L 178.575419 183.320911 
L 165.59841 176.510548 
" clip-path="url(#p7a6f576de7)" style="fill: none; stroke: #d62728; stroke-width: 0.6; stroke-linecap: square"/>
   </g>
   <g id="line2d_24">
    <path d="M 161.931742 208.604525 
L 159.924126 203.24866 
L 150.103837 209.94599 
L 151.378827 215.330447 
L 160.601804 214.63834 
L 160.72591 211.405984 
L 161.931742 208.604525 
" clip-path="url(#p7a6f576de7)" style="fill: none; stroke: #d62728; stroke-width: 0.6; stroke-linecap: square"/>
   </g>
   <g id="line2d_25">
    <path d="M 163.01517 199.826095 
L 162.854447 195.2366 
L 151.955522 195.161848 
L 149.774712 197.17334 
L 150.917452 205.85624 
L 156.25396 204.124778 
L 158.868717 205.496988 
L 163.01517 199.826095 
" clip-path="url(#p7a6f576de7)" style="fill: none; stroke: #d62728; stroke-width: 0.6; stroke-linecap: square"/>
   </g>
   <g id="line2d_26">
    <path d="M 161.233738 176.813798 
L 151.119093 175.072274 
L 149.99593 186.991149 
L 156.518374 182.418705 
L 161.233738 176.813798 
" clip-path="url(#p7a6f576de7)" style="fill: none; stroke: #d62728; stroke-width: 0.6; stroke-linecap: square"/>
   </g>
   <g id="line2d_27">
    <path d="M 149.437144 199.303605 
L 145.490033 198.961216 
L 141.720756 204.476596 
L 149.437144 199.303605 
" clip-path="url(#p7a6f576de7)" style="fill: none; stroke: #d62728; stroke-width: 0.6; stroke-linecap: square"/>
   </g>
   <g id="line2d_28">
    <path d="M 151.178338 181.439405 
L 150.16373 177.852696 
L 141.044828 177.514905 
L 141.009354 180.864869 
L 138.351735 185.405849 
L 141.338095 189.075464 
L 152.928912 189.682628 
L 151.178338 181.439405 
" clip-path="url(#p7a6f576de7)" style="fill: none; stroke: #d62728; stroke-width: 0.6; stroke-linecap: square"/>
   </g>
   <g id="line2d_29">
    <path d="M 134.804343 204.21725 
L 126.052584 205.133492 
L 122.702043 211.247855 
L 122.418717 215.02883 
L 133.803367 214.744594 
L 134.804343 204.21725 
" clip-path="url(#p7a6f576de7)" style="fill: none; stroke: #d62728; stroke-width: 0.6; stroke-linecap: square"/>
   </g>
   <g id="line2d_30">
    <path d="M 135.033981 178.308667 
L 128.529044 177.462584 
L 122.137501 186.190266 
L 130.655629 189.916513 
L 133.878624 184.052969 
L 135.033981 178.308667 
" clip-path="url(#p7a6f576de7)" style="fill: none; stroke: #d62728; stroke-width: 0.6; stroke-linecap: square"/>
   </g>
   <g id="line2d_31">
    <path d="M 77.776589 290.58146 
L 78.988854 286.069909 
L 68.57829 286.941838 
L 68.340066 292.76051 
L 73.395716 298.957233 
L 80.331485 294.736306 
L 77.776589 290.58146 
" clip-path="url(#p7a6f576de7)" style="fill: none; stroke: #1f77b4; stroke-width: 0.6; stroke-linecap: square"/>
   </g>
   <g id="line2d_32">
    <path d="M 80.900596 263.862193 
L 73.805815 265.131264 
L 67.692119 270.961996 
L 80.900596 263.862193 
" clip-path="url(#p7a6f576de7)" style="fill: none; stroke: #1f77b4; stroke-width: 0.6; stroke-linecap: square"/>
   </g>
   <g id="line2d_33">
    <path d="M 70.358173 260.248351 
L 67.414898 262.131203 
L 63.94811 261.011102 
L 57.135576 261.438221 
L 65.486876 271.959707 
L 68.600174 270.388411 
L 70.358173 260.248351 
" clip-path="url(#p7a6f576de7)" style="fill: none; stroke: #1f77b4; stroke-width: 0.6; stroke-linecap: square"/>
   </g>
   <g id="line2d_34">
    <path d="M 63.259097 230.13726 
L 62.777474 237.560411 
L 67.874183 237.726895 
L 63.259097 230.13726 
" clip-path="url(#p7a6f576de7)" style="fill: none; stroke: #1f77b4; stroke-width: 0.6; stroke-linecap: square"/>
   </g>
   <g id="line2d_35">
    <path d="M 47.339576 288.507678 
L 39.005813 287.262419 
L 47.125626 296.819132 
L 48.868375 299.748854 
L 52.71791 298.280868 
L 47.339576 288.507678 
" clip-path="url(#p7a6f576de7)" style="fill: none; stroke: #1f77b4; stroke-width: 0.6; stroke-linecap: square"/>
   </g>
   <g id="line2d_36">
    <path d="M 52.942039 230.983921 
L 46.943497 231.998392 
L 40.788649 230.197946 
L 46.234962 237.560411 
L 51.097357 238.66146 
L 50.680647 234.402501 
L 52.942039 230.983921 
" clip-path="url(#p7a6f576de7)" style="fill: none; stroke: #1f77b4; stroke-width: 0.6; stroke-linecap: square"/>
   </g>
   <g id="line2d_37">
    <path d="M 33.897767 258.234888 
L 25.698406 263.125782 
L 25.49008 268.106359 
L 35.593878 269.743422 
L 33.897767 258.234888 
" clip-path="url(#p7a6f576de7)" style="fill: none; stroke: #1f77b4; stroke-width: 0.6; stroke-linecap: square"/>
   </g>
   <g id="line2d_38">
    <path d="M 22.647658 261.112559 
L 17.032767 259.551812 
L 11.490016 261.669998 
L 11.599944 268.691361 
L 14.550411 267.545585 
L 15.498968 271.545568 
L 25.95508 265.228429 
L 22.647658 261.112559 
" clip-path="url(#p7a6f576de7)" style="fill: none; stroke: #1f77b4; stroke-width: 0.6; stroke-linecap: square"/>
   </g>
   <g id="line2d_39">
    <path d="M 24.411005 239.942324 
L 18.664109 237.560411 
L 11.450769 240.048464 
L 18.450363 242.426832 
L 24.411005 239.942324 
" clip-path="url(#p7a6f576de7)" style="fill: none; stroke: #1f77b4; stroke-width: 0.6; stroke-linecap: square"/>
   </g>
   <g id="line2d_40">
    <path d="M 217.854368 312.876797 
L 208.835823 313.217713 
L 206.829431 317.680943 
L 211.66008 320.27297 
L 217.854368 312.876797 
" clip-path="url(#p7a6f576de7)" style="fill: none; stroke: #aec7e8; stroke-width: 0.6; stroke-linecap: square"/>
   </g>
   <g id="line2d_41">
    <path d="M 217.287703 309.648826 
L 204.097197 303.526979 
L 204.593282 311.448496 
L 208.035426 316.318907 
L 217.368714 316.229347 
L 217.287703 309.648826 
" clip-path="url(#p7a6f576de7)" style="fill: none; stroke: #aec7e8; stroke-width: 0.6; stroke-linecap: square"/>
   </g>
   <g id="line2d_42">
    <path d="M 202.788306 304.241086 
L 200.631739 309.244628 
L 207.156515 311.094152 
L 202.788306 304.241086 
" clip-path="url(#p7a6f576de7)" style="fill: none; stroke: #aec7e8; stroke-width: 0.6; stroke-linecap: square"/>
   </g>
   <g id="line2d_43">
    <path d="M 206.389131 285.888612 
L 198.960707 285.335407 
L 196.553488 292.218333 
L 202.152732 298.325875 
L 206.389131 285.888612 
" clip-path="url(#p7a6f576de7)" style="fill: none; stroke: #aec7e8; stroke-width: 0.6; stroke-linecap: square"/>
   </g>
   <g id="line2d_44">
    <path d="M 201.492586 315.669532 
L 188.729335 318.98553 
L 192.931131 325.650733 
L 201.261231 327.663881 
L 199.315927 323.919696 
L 201.492586 315.669532 
" clip-path="url(#p7a6f576de7)" style="fill: none; stroke: #aec7e8; stroke-width: 0.6; stroke-linecap: square"/>
   </g>
   <g id="line2d_45">
    <path d="M 188.297761 320.116002 
L 186.878069 314.502166 
L 177.175978 326.04134 
L 188.297761 320.116002 
" clip-path="url(#p7a6f576de7)" style="fill: none; stroke: #aec7e8; stroke-width: 0.6; stroke-linecap: square"/>
   </g>
   <g id="line2d_46">
    <path d="M 182.17308 301.920305 
L 176.559844 302.942971 
L 178.11607 309.267132 
L 177.74144 312.240276 
L 181.675649 316.596583 
L 187.53776 313.146327 
L 190.398554 314.195871 
L 190.254919 311.216696 
L 182.17308 301.920305 
" clip-path="url(#p7a6f576de7)" style="fill: none; stroke: #aec7e8; stroke-width: 0.6; stroke-linecap: square"/>
   </g>
   <g id="line2d_47">
    <path d="M 184.089227 292.702117 
L 180.968381 299.527979 
L 187.684103 299.656813 
L 184.089227 292.702117 
" clip-path="url(#p7a6f576de7)" style="fill: none; stroke: #aec7e8; stroke-width: 0.6; stroke-linecap: square"/>
   </g>
   <g id="line2d_48">
    <path d="M 180.507613 317.233661 
L 179.087796 313.724451 
L 175.006783 314.048729 
L 167.013889 314.800738 
L 167.762512 319.546644 
L 168.034421 325.222093 
L 177.619151 325.170712 
L 177.304754 319.119318 
L 180.507613 317.233661 
" clip-path="url(#p7a6f576de7)" style="fill: none; stroke: #aec7e8; stroke-width: 0.6; stroke-linecap: square"/>
   </g>
   <g id="line2d_49">
    <path d="M 180.23085 289.561606 
L 178.705183 286.478468 
L 172.223718 286.384458 
L 169.619587 288.833891 
L 167.36622 294.18465 
L 172.268219 298.523532 
L 177.60565 296.493112 
L 177.429495 292.829954 
L 180.23085 289.561606 
" clip-path="url(#p7a6f576de7)" style="fill: none; stroke: #aec7e8; stroke-width: 0.6; stroke-linecap: square"/>
   </g>
   <g id="line2d_50">
    <path d="M 163.29379 302.411517 
L 156.449061 311.873672 
L 166.512227 312.351632 
L 163.29379 302.411517 
" clip-path="url(#p7a6f576de7)" style="fill: none; stroke: #aec7e8; stroke-width: 0.6; stroke-linecap: square"/>
   </g>
   <g id="line2d_51">
    <path d="M 163.835719 317.955453 
L 159.179764 313.169458 
L 152.502477 320.710944 
L 153.08655 324.379349 
L 155.504914 327.792343 
L 163.835719 317.955453 
" clip-path="url(#p7a6f576de7)" style="fill: none; stroke: #aec7e8; stroke-width: 0.6; stroke-linecap: square"/>
   </g>
   <g id="line2d_52">
    <path d="M 160.679412 285.131848 
L 151.188618 287.355736 
L 153.308866 299.920049 
L 162.725339 300.271345 
L 160.679412 285.131848 
" clip-path="url(#p7a6f576de7)" style="fill: none; stroke: #aec7e8; stroke-width: 0.6; stroke-linecap: square"/>
   </g>
   <g id="line2d_53">
    <path d="M 266.577913 457.788455 
L 267.857951 454.341193 
L 258.669581 451.042648 
L 255.442941 457.356066 
L 255.417451 460.128163 
L 256.98014 464.233504 
L 259.73516 464.448962 
L 263.571167 462.315022 
L 266.577913 457.788455 
" clip-path="url(#p7a6f576de7)" style="fill: none; stroke: #ff7f0e; stroke-width: 0.6; stroke-linecap: square"/>
   </g>
   <g id="line2d_54">
    <path d="M 256.82581 429.82536 
L 250.429748 423.291102 
L 243.04703 429.827671 
L 244.008094 436.44926 
L 253.722113 437.249025 
L 256.82581 429.82536 
" clip-path="url(#p7a6f576de7)" style="fill: none; stroke: #ff7f0e; stroke-width: 0.6; stroke-linecap: square"/>
   </g>
   <g id="line2d_55">
    <path d="M 251.212998 396.156418 
L 245.435575 405.201468 
L 253.217366 410.513818 
L 255.669644 406.398962 
L 251.212998 396.156418 
" clip-path="url(#p7a6f576de7)" style="fill: none; stroke: #ff7f0e; stroke-width: 0.6; stroke-linecap: square"/>
   </g>
   <g id="line2d_56">
    <path d="M 246.110504 455.935035 
L 243.983302 453.845533 
L 246.419197 451.451019 
L 242.771475 450.997789 
L 234.980242 452.35354 
L 233.455944 456.675542 
L 239.39698 464.453911 
L 241.911365 465.407132 
L 246.110504 455.935035 
" clip-path="url(#p7a6f576de7)" style="fill: none; stroke: #ff7f0e; stroke-width: 0.6; stroke-linecap: square"/>
   </g>
   <g id="line2d_57">
    <path d="M 242.297382 398.328405 
L 238.889441 396.26556 
L 233.118839 397.08355 
L 232.439304 401.695917 
L 231.737947 408.221953 
L 236.319185 407.04218 
L 238.951202 407.155565 
L 243.874971 410.453799 
L 242.297382 398.328405 
" clip-path="url(#p7a6f576de7)" style="fill: none; stroke: #ff7f0e; stroke-width: 0.6; stroke-linecap: square"/>
   </g>
   <g id="line2d_58">
    <path d="M 230.277776 452.798279 
L 222.266913 451.518071 
L 228.202592 458.127235 
L 230.277776 452.798279 
" clip-path="url(#p7a6f576de7)" style="fill: none; stroke: #ff7f0e; stroke-width: 0.6; stroke-linecap: square"/>
   </g>
   <g id="line2d_59">
    <path d="M 235.4713 397.216481 
L 231.399442 395.691053 
L 224.749798 409.899916 
L 233.717752 408.565048 
L 235.4713 397.216481 
" clip-path="url(#p7a6f576de7)" style="fill: none; stroke: #ff7f0e; stroke-width: 0.6; stroke-linecap: square"/>
   </g>
   <g id="line2d_60">
    <path d="M 217.249756 457.841618 
L 216.913533 453.765521 
L 207.123577 452.311742 
L 206.870538 463.928228 
L 217.426808 461.619486 
L 217.249756 457.841618 
" clip-path="url(#p7a6f576de7)" style="fill: none; stroke: #ff7f0e; stroke-width: 0.6; stroke-linecap: square"/>
   </g>
   <g id="line2d_61">
    <path d="M 294.372639 320.27297 
L 286.981532 315.797878 
L 289.783915 325.662491 
L 298.54204 324.164256 
L 294.372639 320.27297 
" clip-path="url(#p7a6f576de7)" style="fill: none; stroke: #9467bd; stroke-width: 0.6; stroke-linecap: square"/>
   </g>
   <g id="line2d_62">
    <path d="M 301.577076 287.83429 
L 298.301004 288.87647 
L 289.197589 286.681024 
L 289.681799 296.574847 
L 293.359271 298.682816 
L 298.514259 292.250158 
L 301.577076 287.83429 
" clip-path="url(#p7a6f576de7)" style="fill: none; stroke: #ff9896; stroke-width: 0.6; stroke-linecap: square"/>
   </g>
   <g id="line2d_63">
    <path d="M 299.160968 264.530904 
L 301.234334 259.363295 
L 289.428823 264.34773 
L 291.700403 272.112349 
L 298.929892 271.845819 
L 299.160968 264.530904 
" clip-path="url(#p7a6f576de7)" style="fill: none; stroke: #ff9896; stroke-width: 0.6; stroke-linecap: square"/>
   </g>
   <g id="line2d_64">
    <path d="M 290.287142 318.764246 
L 283.344298 320.27297 
L 279.418733 322.65982 
L 288.444376 324.62892 
L 290.287142 318.764246 
" clip-path="url(#p7a6f576de7)" style="fill: none; stroke: #9467bd; stroke-width: 0.6; stroke-linecap: square"/>
   </g>
   <g id="line2d_65">
    <path d="M 287.520473 261.579639 
L 289.051038 258.347449 
L 279.129674 261.245993 
L 275.772143 263.220302 
L 277.493867 269.893871 
L 282.021561 271.752071 
L 289.399661 266.812254 
L 287.520473 261.579639 
" clip-path="url(#p7a6f576de7)" style="fill: none; stroke: #ff9896; stroke-width: 0.6; stroke-linecap: square"/>
   </g>
   <g id="line2d_66">
    <path d="M 284.75681 289.182512 
L 282.712879 286.106074 
L 270.683881 292.456592 
L 281.840265 297.865495 
L 285.332326 299.859656 
L 284.75681 289.182512 
" clip-path="url(#p7a6f576de7)" style="fill: none; stroke: #ff9896; stroke-width: 0.6; stroke-linecap: square"/>
   </g>
   <g id="line2d_67">
    <path d="M 285.304097 260.28441 
L 281.241323 258.102334 
L 274.247902 258.384336 
L 276.471833 261.312365 
L 273.958188 263.117309 
L 271.382882 267.55185 
L 282.037624 267.201564 
L 285.304097 260.28441 
" clip-path="url(#p7a6f576de7)" style="fill: none; stroke: #ff9896; stroke-width: 0.6; stroke-linecap: square"/>
   </g>
   <g id="line2d_68">
    <path d="M 273.989775 318.213132 
L 269.3808 314.317622 
L 260.171285 316.771659 
L 260.111962 325.711153 
L 262.984474 327.423398 
L 272.330481 326.393402 
L 273.989775 318.213132 
" clip-path="url(#p7a6f576de7)" style="fill: none; stroke: #9467bd; stroke-width: 0.6; stroke-linecap: square"/>
   </g>
   <g id="line2d_69">
    <path d="M 268.97926 285.965603 
L 265.723131 286.24799 
L 261.690839 288.612306 
L 260.641389 292.959956 
L 263.274053 297.398019 
L 269.83599 297.936157 
L 268.97926 285.965603 
" clip-path="url(#p7a6f576de7)" style="fill: none; stroke: #9467bd; stroke-width: 0.6; stroke-linecap: square"/>
   </g>
   <g id="line2d_70">
    <path d="M 541.730918 315.907034 
L 537.875247 314.099442 
L 537.014896 317.374704 
L 539.474654 324.362444 
L 547.989231 326.965508 
L 541.730918 315.907034 
" clip-path="url(#p7a6f576de7)" style="fill: none; stroke: #9467bd; stroke-width: 0.6; stroke-linecap: square"/>
   </g>
   <g id="line2d_71">
    <path d="M 535.777776 286.406724 
L 537.434204 296.000936 
L 546.595729 294.435394 
L 535.777776 286.406724 
" clip-path="url(#p7a6f576de7)" style="fill: none; stroke: #9467bd; stroke-width: 0.6; stroke-linecap: square"/>
   </g>
   <g id="line2d_72">
    <path d="M 317.381411 317.504929 
L 307.06501 316.735337 
L 303.719834 323.879173 
L 318.127323 322.213299 
L 317.381411 317.504929 
" clip-path="url(#p7a6f576de7)" style="fill: none; stroke: #9467bd; stroke-width: 0.6; stroke-linecap: square"/>
   </g>
   <g id="line2d_73">
    <path d="M 530.079683 318.040993 
L 532.362869 313.173688 
L 526.863677 312.851399 
L 520.580256 313.358076 
L 521.453511 321.231333 
L 532.72655 326.987847 
L 531.360153 322.534703 
L 530.079683 318.040993 
" clip-path="url(#p7a6f576de7)" style="fill: none; stroke: #9467bd; stroke-width: 0.6; stroke-linecap: square"/>
   </g>
   <g id="line2d_74">
    <path d="M 318.188124 291.2564 
L 313.719282 288.378243 
L 309.092922 287.849873 
L 304.446581 288.69591 
L 306.418127 292.22617 
L 303.79413 294.140618 
L 307.331253 298.860257 
L 318.188124 291.2564 
" clip-path="url(#p7a6f576de7)" style="fill: none; stroke: #ff9896; stroke-width: 0.6; stroke-linecap: square"/>
   </g>
   <g id="line2d_75">
    <path d="M 273.685087 123.207609 
L 270.512262 121.947696 
L 266.670183 119.716386 
L 261.503803 119.988734 
L 259.648185 129.045045 
L 266.824962 133.000643 
L 272.618169 132.295941 
L 273.685087 123.207609 
" clip-path="url(#p7a6f576de7)" style="fill: none; stroke: #2ca02c; stroke-width: 0.6; stroke-linecap: square"/>
   </g>
   <g id="line2d_76">
    <path d="M 520.514104 286.678581 
L 515.202183 285.621151 
L 509.495756 287.151309 
L 510.384558 292.156357 
L 510.698208 295.565823 
L 512.634454 299.525148 
L 521.849595 293.734403 
L 520.514104 286.678581 
" clip-path="url(#p7a6f576de7)" style="fill: none; stroke: #9467bd; stroke-width: 0.6; stroke-linecap: square"/>
   </g>
   <g id="line2d_77">
    <path d="M 510.72859 312.946784 
L 496.452642 323.228142 
L 499.697677 326.97512 
L 510.497247 324.746731 
L 510.72859 312.946784 
" clip-path="url(#p7a6f576de7)" style="fill: none; stroke: #9467bd; stroke-width: 0.6; stroke-linecap: square"/>
   </g>
   <g id="line2d_78">
    <path d="M 510.925681 286.798462 
L 497.509343 291.055554 
L 502.70337 297.363376 
L 510.825482 298.677463 
L 510.925681 286.798462 
" clip-path="url(#p7a6f576de7)" style="fill: none; stroke: #9467bd; stroke-width: 0.6; stroke-linecap: square"/>
   </g>
   <g id="line2d_79">
    <path d="M 505.325584 314.394414 
L 498.288662 316.111572 
L 493.528577 313.27692 
L 493.962043 324.726614 
L 500.481537 324.156173 
L 501.10272 327.371044 
L 503.949096 327.515003 
L 503.678107 321.566175 
L 505.325584 314.394414 
" clip-path="url(#p7a6f576de7)" style="fill: none; stroke: #9467bd; stroke-width: 0.6; stroke-linecap: square"/>
   </g>
   <g id="line2d_80">
    <path d="M 494.448897 346.959902 
L 481.27801 345.536491 
L 480.177695 353.484797 
L 487.615246 352.648722 
L 491.539751 352.894776 
L 494.448897 346.959902 
" clip-path="url(#p7a6f576de7)" style="fill: none; stroke: #9467bd; stroke-width: 0.6; stroke-linecap: square"/>
   </g>
   <g id="line2d_81">
    <path d="M 492.89812 285.120106 
L 488.53474 288.314047 
L 483.083505 287.680399 
L 481.818871 290.656395 
L 483.892461 296.904832 
L 483.175931 300.024101 
L 491.551732 294.003906 
L 492.89812 285.120106 
" clip-path="url(#p7a6f576de7)" style="fill: none; stroke: #9467bd; stroke-width: 0.6; stroke-linecap: square"/>
   </g>
   <g id="line2d_82">
    <path d="M 432.226904 182.418705 
L 427.086694 183.70439 
L 424.745604 188.877716 
L 432.226904 182.418705 
" clip-path="url(#p7a6f576de7)" style="fill: none; stroke: #ffbb78; stroke-width: 0.6; stroke-linecap: square"/>
   </g>
   <g id="line2d_83">
    <path d="M 421.521958 181.070333 
L 419.538623 178.04616 
L 412.03779 178.33653 
L 408.233874 188.36634 
L 414.043307 188.592485 
L 416.586798 186.806406 
L 422.291354 186.314244 
L 421.521958 181.070333 
" clip-path="url(#p7a6f576de7)" style="fill: none; stroke: #ffbb78; stroke-width: 0.6; stroke-linecap: square"/>
   </g>
   <g id="line2d_84">
    <path d="M 404.765765 161.308821 
L 401.776648 158.365117 
L 400.803164 162.881492 
L 409.890766 172.424589 
L 404.765765 161.308821 
" clip-path="url(#p7a6f576de7)" style="fill: none; stroke: #ffbb78; stroke-width: 0.6; stroke-linecap: square"/>
   </g>
   <g id="line2d_85">
    <path d="M 398.92829 148.905797 
L 387.757107 149.009886 
L 386.500447 154.792272 
L 390.759218 161.571407 
L 400.466167 159.594665 
L 398.92829 148.905797 
" clip-path="url(#p7a6f576de7)" style="fill: none; stroke: #ffbb78; stroke-width: 0.6; stroke-linecap: square"/>
   </g>
   <g id="line2d_86">
    <path d="M 388.200228 176.583252 
L 377.463149 177.439248 
L 375.762464 181.995043 
L 375.951954 189.560926 
L 389.686577 186.820188 
L 388.200228 176.583252 
" clip-path="url(#p7a6f576de7)" style="fill: none; stroke: #ffbb78; stroke-width: 0.6; stroke-linecap: square"/>
   </g>
   <g id="line2d_87">
    <path d="M 383.463907 176.572677 
L 370.690008 176.443461 
L 372.848655 182.087143 
L 371.311765 185.212593 
L 375.059824 186.691216 
L 377.701802 186.59067 
L 380.966876 187.983026 
L 381.774723 185.461481 
L 383.463907 176.572677 
" clip-path="url(#p7a6f576de7)" style="fill: none; stroke: #ffbb78; stroke-width: 0.6; stroke-linecap: square"/>
   </g>
   <g id="line2d_88">
    <path d="M 377.536847 149.544251 
L 370.513729 147.290877 
L 369.656797 153.913755 
L 372.993967 159.70804 
L 378.465125 159.937027 
L 382.255157 155.24308 
L 377.536847 149.544251 
" clip-path="url(#p7a6f576de7)" style="fill: none; stroke: #ffbb78; stroke-width: 0.6; stroke-linecap: square"/>
   </g>
   <g id="line2d_89">
    <path d="M 368.170014 160.801611 
L 359.44367 160.20187 
L 358.821735 169.622019 
L 366.056857 165.876193 
L 368.170014 160.801611 
" clip-path="url(#p7a6f576de7)" style="fill: none; stroke: #ffbb78; stroke-width: 0.6; stroke-linecap: square"/>
   </g>
   <g id="line2d_90">
    <path d="M 349.514345 182.418705 
L 344.742493 179.727927 
L 345.642967 186.173637 
L 357.068173 188.330792 
L 349.514345 182.418705 
" clip-path="url(#p7a6f576de7)" style="fill: none; stroke: #ffbb78; stroke-width: 0.6; stroke-linecap: square"/>
   </g>
   <g id="line2d_91">
    <path d="M 353.98887 153.425087 
L 349.923414 150.719471 
L 343.233838 151.988673 
L 345.409743 156.413623 
L 354.352844 162.331265 
L 353.98887 153.425087 
" clip-path="url(#p7a6f576de7)" style="fill: none; stroke: #ffbb78; stroke-width: 0.6; stroke-linecap: square"/>
   </g>
   <g id="line2d_92">
    <path d="M 394.506445 15.777346 
L 390.890548 12.48625 
L 386.577239 10.214737 
L 384.089465 18.062768 
L 383.419893 22.420992 
L 393.753402 24.506684 
L 394.506445 15.777346 
" clip-path="url(#p7a6f576de7)" style="fill: none; stroke: #c5b0d5; stroke-width: 0.6; stroke-linecap: square"/>
   </g>
   <g id="line2d_93">
    <path d="M 383.300842 15.513575 
L 370.863713 10.240189 
L 370.57393 16.1523 
L 382.286427 23.885547 
L 383.300842 15.513575 
" clip-path="url(#p7a6f576de7)" style="fill: none; stroke: #c5b0d5; stroke-width: 0.6; stroke-linecap: square"/>
   </g>
   <g id="line2d_94">
    <path d="M 384.169304 29.278311 
L 375.425839 27.603151 
L 370.158913 30.372292 
L 370.473377 35.318192 
L 372.423243 38.389092 
L 384.165174 37.877697 
L 384.169304 29.278311 
" clip-path="url(#p7a6f576de7)" style="fill: none; stroke: #c5b0d5; stroke-width: 0.6; stroke-linecap: square"/>
   </g>
   <g id="line2d_95">
    <path d="M 363.579298 39.73557 
L 358.434681 39.076249 
L 354.908918 41.043136 
L 356.040228 44.221978 
L 360.542687 44.564439 
L 363.579298 39.73557 
" clip-path="url(#p7a6f576de7)" style="fill: none; stroke: #c5b0d5; stroke-width: 0.6; stroke-linecap: square"/>
   </g>
   <g id="line2d_96">
    <path d="M 349.411675 37.181025 
L 345.636112 41.915387 
L 343.681883 51.370329 
L 354.364656 51.145349 
L 349.411675 37.181025 
" clip-path="url(#p7a6f576de7)" style="fill: none; stroke: #c5b0d5; stroke-width: 0.6; stroke-linecap: square"/>
   </g>
   <g id="line2d_97">
    <path d="M 348.363374 9.831512 
L 344.240565 13.354519 
L 343.960757 18.820941 
L 345.399503 23.432616 
L 351.227067 22.966384 
L 355.538868 20.166407 
L 348.363374 9.831512 
" clip-path="url(#p7a6f576de7)" style="fill: none; stroke: #c5b0d5; stroke-width: 0.6; stroke-linecap: square"/>
   </g>
   <g id="line2d_98">
    <path d="M 344.641206 67.995015 
L 339.56368 64.640782 
L 339.356399 67.277973 
L 333.382945 72.277164 
L 331.572859 76.159048 
L 338.989482 77.435822 
L 346.008279 76.306226 
L 342.79308 72.742652 
L 344.641206 67.995015 
" clip-path="url(#p7a6f576de7)" style="fill: none; stroke: #c5b0d5; stroke-width: 0.6; stroke-linecap: square"/>
   </g>
   <g id="line2d_99">
    <path d="M 327.666288 41.555633 
L 321.737584 39.314296 
L 315.494946 38.444768 
L 315.369043 41.48756 
L 316.503754 48.312163 
L 326.223217 48.817829 
L 327.962688 46.055579 
L 327.666288 41.555633 
" clip-path="url(#p7a6f576de7)" style="fill: none; stroke: #c5b0d5; stroke-width: 0.6; stroke-linecap: square"/>
   </g>
   <g id="line2d_100">
    <path d="M 326.120479 15.001357 
L 327.294691 11.581252 
L 322.014421 10.618751 
L 316.662664 10.208006 
L 317.299895 17.330778 
L 317.017306 23.930474 
L 325.398295 21.92442 
L 328.105382 22.064098 
L 326.120479 15.001357 
" clip-path="url(#p7a6f576de7)" style="fill: none; stroke: #c5b0d5; stroke-width: 0.6; stroke-linecap: square"/>
   </g>
   <g id="line2d_101">
    <path d="M 239.230933 209.989558 
L 62.970998 234.577657 
L 45.796082 236.967121 
L 24.411005 239.942324 
L 25.822175 263.051954 
L 25.95508 265.228429 
L 47.339576 288.507678 
L 68.57829 286.941838 
L 68.600174 270.388411 
L 69.065937 270.223543 
L 239.230933 209.989558 
" clip-path="url(#p7a6f576de7)" style="fill: none; stroke: #1f77b4; stroke-width: 0.6; stroke-linecap: square"/>
   </g>
   <g id="line2d_102">
    <path d="M 239.230933 209.989558 
L 206.389131 285.888612 
L 207.156515 311.094152 
L 207.856363 312.466932 
L 208.556827 313.838342 
L 201.492586 315.669532 
L 187.219877 315.853767 
L 181.075851 315.932433 
L 179.98653 315.945755 
L 162.093231 316.164298 
L 162.602193 303.367581 
L 162.725339 300.271345 
L 170.950487 297.357174 
L 184.089227 292.702117 
L 239.230933 209.989558 
" clip-path="url(#p7a6f576de7)" style="fill: none; stroke: #aec7e8; stroke-width: 0.6; stroke-linecap: square"/>
   </g>
   <g id="line2d_103">
    <path d="M 239.230933 209.989558 
L 233.142992 396.344234 
L 233.118839 397.08355 
L 216.913533 453.765521 
L 223.877505 453.311407 
L 245.993762 451.869227 
L 258.669581 451.042648 
L 256.82581 429.82536 
L 255.035949 407.462285 
L 239.230933 209.989558 
" clip-path="url(#p7a6f576de7)" style="fill: none; stroke: #ff7f0e; stroke-width: 0.6; stroke-linecap: square"/>
   </g>
   <g id="line2d_104">
    <path d="M 239.230933 209.989558 
L 357.068173 188.330792 
L 380.966876 187.983026 
L 383.619331 188.030904 
L 424.791671 188.775917 
L 415.167874 178.215359 
L 409.890766 172.424589 
L 390.759218 161.571407 
L 378.465125 159.937027 
L 359.33575 161.836485 
L 354.352844 162.331265 
L 239.230933 209.989558 
" clip-path="url(#p7a6f576de7)" style="fill: none; stroke: #ffbb78; stroke-width: 0.6; stroke-linecap: square"/>
   </g>
   <g id="line2d_105">
    <path d="M 239.230933 209.989558 
L 218.616325 123.038724 
L 222.634169 117.333006 
L 229.815734 107.134507 
L 232.691991 106.700664 
L 247.491048 104.468431 
L 259.612032 101.029383 
L 260.331373 108.238628 
L 261.503803 119.988734 
L 250.68704 126.386935 
L 246.66621 128.765288 
L 246.249601 133.316391 
L 239.230933 209.989558 
" clip-path="url(#p7a6f576de7)" style="fill: none; stroke: #2ca02c; stroke-width: 0.6; stroke-linecap: square"/>
   </g>
   <g id="line2d_106">
    <path d="M 239.230933 209.989558 
L 136.451629 78.812765 
L 112.349838 73.515888 
L 105.697352 72.053864 
L 104.018214 51.739491 
L 123.218813 40.547053 
L 135.956849 23.004115 
L 143.564985 23.350299 
L 155.489575 23.89289 
L 208.800728 110.357928 
L 239.230933 209.989558 
" clip-path="url(#p7a6f576de7)" style="fill: none; stroke: #98df8a; stroke-width: 0.6; stroke-linecap: square"/>
   </g>
   <g id="line2d_107">
    <path d="M 239.230933 209.989558 
L 173.293979 186.811657 
L 149.99593 186.991149 
L 140.7767 188.385626 
L 130.655629 189.916513 
L 134.804343 204.21725 
L 141.82837 204.31913 
L 150.732152 204.448274 
L 160.426502 204.588885 
L 174.854114 204.798149 
L 184.403546 205.557471 
L 185.522081 205.64789 
L 239.230933 209.989558 
" clip-path="url(#p7a6f576de7)" style="fill: none; stroke: #d62728; stroke-width: 0.6; stroke-linecap: square"/>
   </g>
   <g id="line2d_108">
    <path d="M 239.230933 209.989558 
L 279.928161 258.155286 
L 281.861805 260.447796 
L 291.700403 272.112349 
L 304.446581 288.69591 
L 300.388632 288.212356 
L 282.712879 286.106074 
L 239.230933 209.989558 
" clip-path="url(#p7a6f576de7)" style="fill: none; stroke: #ff9896; stroke-width: 0.6; stroke-linecap: square"/>
   </g>
   <g id="line2d_109">
    <path d="M 239.230933 209.989558 
L 263.473146 287.567258 
L 272.70677 317.128735 
L 287.949337 319.204629 
L 288.140666 319.230689 
L 304.831991 321.50409 
L 481.27801 345.536491 
L 503.949096 327.515003 
L 510.497247 324.746731 
L 530.60172 316.928112 
L 537.875247 314.099442 
L 537.434204 296.000936 
L 509.871453 289.266946 
L 506.071793 288.338632 
L 492.89812 285.120106 
L 239.230933 209.989558 
" clip-path="url(#p7a6f576de7)" style="fill: none; stroke: #9467bd; stroke-width: 0.6; stroke-linecap: square"/>
   </g>
   <g id="line2d_110">
    <path d="M 239.230933 209.989558 
L 320.05799 39.080348 
L 328.105382 22.064098 
L 345.006575 22.173146 
L 383.419893 22.420992 
L 382.060901 23.736642 
L 377.629939 28.025435 
L 360.542687 44.564439 
L 354.364656 51.145349 
L 342.957733 66.882906 
L 239.230933 209.989558 
" clip-path="url(#p7a6f576de7)" style="fill: none; stroke: #c5b0d5; stroke-width: 0.6; stroke-linecap: square"/>
   </g>
   <g id="PathCollection_1">
    <defs>
     <path id="C0_0_77d7d66648" d="M 0 1.322876 
C 0.350831 1.322876 0.68734 1.183489 0.935414 0.935414 
C 1.183489 0.68734 1.322876 0.350831 1.322876 -0 
C 1.322876 -0.350831 1.183489 -0.68734 0.935414 -0.935414 
C 0.68734 -1.183489 0.350831 -1.322876 0 -1.322876 
C -0.350831 -1.322876 -0.68734 -1.183489 -0.935414 -0.935414 
C -1.183489 -0.68734 -1.322876 -0.350831 -1.322876 0 
C -1.322876 0.350831 -1.183489 0.68734 -0.935414 0.935414 
C -0.68734 1.183489 -0.350831 1.322876 0 1.322876 
z
"/>
    </defs>
    <g clip-path="url(#p7a6f576de7)">
     <use xlink:href="#C0_0_77d7d66648" x="62.970998" y="234.577657" style="fill: #1f77b4"/>
    </g>
    <g clip-path="url(#p7a6f576de7)">
     <use xlink:href="#C0_0_77d7d66648" x="45.796082" y="236.967121" style="fill: #1f77b4"/>
    </g>
    <g clip-path="url(#p7a6f576de7)">
     <use xlink:href="#C0_0_77d7d66648" x="24.411005" y="239.942324" style="fill: #1f77b4"/>
    </g>
    <g clip-path="url(#p7a6f576de7)">
     <use xlink:href="#C0_0_77d7d66648" x="25.822175" y="263.051954" style="fill: #1f77b4"/>
    </g>
    <g clip-path="url(#p7a6f576de7)">
     <use xlink:href="#C0_0_77d7d66648" x="25.95508" y="265.228429" style="fill: #1f77b4"/>
    </g>
    <g clip-path="url(#p7a6f576de7)">
     <use xlink:href="#C0_0_77d7d66648" x="47.339576" y="288.507678" style="fill: #1f77b4"/>
    </g>
    <g clip-path="url(#p7a6f576de7)">
     <use xlink:href="#C0_0_77d7d66648" x="68.57829" y="286.941838" style="fill: #1f77b4"/>
    </g>
    <g clip-path="url(#p7a6f576de7)">
     <use xlink:href="#C0_0_77d7d66648" x="68.600174" y="270.388411" style="fill: #1f77b4"/>
    </g>
    <g clip-path="url(#p7a6f576de7)">
     <use xlink:href="#C0_0_77d7d66648" x="69.065937" y="270.223543" style="fill: #1f77b4"/>
    </g>
   </g>
   <g id="PathCollection_2">
    <defs>
     <path id="C1_0_ad0d79b2fc" d="M 0 1.322876 
C 0.350831 1.322876 0.68734 1.183489 0.935414 0.935414 
C 1.183489 0.68734 1.322876 0.350831 1.322876 -0 
C 1.322876 -0.350831 1.183489 -0.68734 0.935414 -0.935414 
C 0.68734 -1.183489 0.350831 -1.322876 0 -1.322876 
C -0.350831 -1.322876 -0.68734 -1.183489 -0.935414 -0.935414 
C -1.183489 -0.68734 -1.322876 -0.350831 -1.322876 0 
C -1.322876 0.350831 -1.183489 0.68734 -0.935414 0.935414 
C -0.68734 1.183489 -0.350831 1.322876 0 1.322876 
z
"/>
    </defs>
    <g clip-path="url(#p7a6f576de7)">
     <use xlink:href="#C1_0_ad0d79b2fc" x="206.389131" y="285.888612" style="fill: #aec7e8"/>
    </g>
    <g clip-path="url(#p7a6f576de7)">
     <use xlink:href="#C1_0_ad0d79b2fc" x="207.156515" y="311.094152" style="fill: #aec7e8"/>
    </g>
    <g clip-path="url(#p7a6f576de7)">
     <use xlink:href="#C1_0_ad0d79b2fc" x="207.856363" y="312.466932" style="fill: #aec7e8"/>
    </g>
    <g clip-path="url(#p7a6f576de7)">
     <use xlink:href="#C1_0_ad0d79b2fc" x="208.556827" y="313.838342" style="fill: #aec7e8"/>
    </g>
    <g clip-path="url(#p7a6f576de7)">
     <use xlink:href="#C1_0_ad0d79b2fc" x="201.492586" y="315.669532" style="fill: #aec7e8"/>
    </g>
    <g clip-path="url(#p7a6f576de7)">
     <use xlink:href="#C1_0_ad0d79b2fc" x="187.219877" y="315.853767" style="fill: #aec7e8"/>
    </g>
    <g clip-path="url(#p7a6f576de7)">
     <use xlink:href="#C1_0_ad0d79b2fc" x="181.075851" y="315.932433" style="fill: #aec7e8"/>
    </g>
    <g clip-path="url(#p7a6f576de7)">
     <use xlink:href="#C1_0_ad0d79b2fc" x="179.98653" y="315.945755" style="fill: #aec7e8"/>
    </g>
    <g clip-path="url(#p7a6f576de7)">
     <use xlink:href="#C1_0_ad0d79b2fc" x="162.093231" y="316.164298" style="fill: #aec7e8"/>
    </g>
    <g clip-path="url(#p7a6f576de7)">
     <use xlink:href="#C1_0_ad0d79b2fc" x="162.602193" y="303.367581" style="fill: #aec7e8"/>
    </g>
    <g clip-path="url(#p7a6f576de7)">
     <use xlink:href="#C1_0_ad0d79b2fc" x="162.725339" y="300.271345" style="fill: #aec7e8"/>
    </g>
    <g clip-path="url(#p7a6f576de7)">
     <use xlink:href="#C1_0_ad0d79b2fc" x="170.950487" y="297.357174" style="fill: #aec7e8"/>
    </g>
    <g clip-path="url(#p7a6f576de7)">
     <use xlink:href="#C1_0_ad0d79b2fc" x="184.089227" y="292.702117" style="fill: #aec7e8"/>
    </g>
   </g>
   <g id="PathCollection_3">
    <defs>
     <path id="C2_0_60237ca1bf" d="M 0 1.322876 
C 0.350831 1.322876 0.68734 1.183489 0.935414 0.935414 
C 1.183489 0.68734 1.322876 0.350831 1.322876 -0 
C 1.322876 -0.350831 1.183489 -0.68734 0.935414 -0.935414 
C 0.68734 -1.183489 0.350831 -1.322876 0 -1.322876 
C -0.350831 -1.322876 -0.68734 -1.183489 -0.935414 -0.935414 
C -1.183489 -0.68734 -1.322876 -0.350831 -1.322876 0 
C -1.322876 0.350831 -1.183489 0.68734 -0.935414 0.935414 
C -0.68734 1.183489 -0.350831 1.322876 0 1.322876 
z
"/>
    </defs>
    <g clip-path="url(#p7a6f576de7)">
     <use xlink:href="#C2_0_60237ca1bf" x="233.142992" y="396.344234" style="fill: #ff7f0e"/>
    </g>
    <g clip-path="url(#p7a6f576de7)">
     <use xlink:href="#C2_0_60237ca1bf" x="233.118839" y="397.08355" style="fill: #ff7f0e"/>
    </g>
    <g clip-path="url(#p7a6f576de7)">
     <use xlink:href="#C2_0_60237ca1bf" x="216.913533" y="453.765521" style="fill: #ff7f0e"/>
    </g>
    <g clip-path="url(#p7a6f576de7)">
     <use xlink:href="#C2_0_60237ca1bf" x="223.877505" y="453.311407" style="fill: #ff7f0e"/>
    </g>
    <g clip-path="url(#p7a6f576de7)">
     <use xlink:href="#C2_0_60237ca1bf" x="245.993762" y="451.869227" style="fill: #ff7f0e"/>
    </g>
    <g clip-path="url(#p7a6f576de7)">
     <use xlink:href="#C2_0_60237ca1bf" x="258.669581" y="451.042648" style="fill: #ff7f0e"/>
    </g>
    <g clip-path="url(#p7a6f576de7)">
     <use xlink:href="#C2_0_60237ca1bf" x="256.82581" y="429.82536" style="fill: #ff7f0e"/>
    </g>
    <g clip-path="url(#p7a6f576de7)">
     <use xlink:href="#C2_0_60237ca1bf" x="255.035949" y="407.462285" style="fill: #ff7f0e"/>
    </g>
   </g>
   <g id="PathCollection_4">
    <defs>
     <path id="C3_0_718a588800" d="M 0 1.322876 
C 0.350831 1.322876 0.68734 1.183489 0.935414 0.935414 
C 1.183489 0.68734 1.322876 0.350831 1.322876 -0 
C 1.322876 -0.350831 1.183489 -0.68734 0.935414 -0.935414 
C 0.68734 -1.183489 0.350831 -1.322876 0 -1.322876 
C -0.350831 -1.322876 -0.68734 -1.183489 -0.935414 -0.935414 
C -1.183489 -0.68734 -1.322876 -0.350831 -1.322876 0 
C -1.322876 0.350831 -1.183489 0.68734 -0.935414 0.935414 
C -0.68734 1.183489 -0.350831 1.322876 0 1.322876 
z
"/>
    </defs>
    <g clip-path="url(#p7a6f576de7)">
     <use xlink:href="#C3_0_718a588800" x="357.068173" y="188.330792" style="fill: #ffbb78"/>
    </g>
    <g clip-path="url(#p7a6f576de7)">
     <use xlink:href="#C3_0_718a588800" x="380.966876" y="187.983026" style="fill: #ffbb78"/>
    </g>
    <g clip-path="url(#p7a6f576de7)">
     <use xlink:href="#C3_0_718a588800" x="383.619331" y="188.030904" style="fill: #ffbb78"/>
    </g>
    <g clip-path="url(#p7a6f576de7)">
     <use xlink:href="#C3_0_718a588800" x="424.791671" y="188.775917" style="fill: #ffbb78"/>
    </g>
    <g clip-path="url(#p7a6f576de7)">
     <use xlink:href="#C3_0_718a588800" x="415.167874" y="178.215359" style="fill: #ffbb78"/>
    </g>
    <g clip-path="url(#p7a6f576de7)">
     <use xlink:href="#C3_0_718a588800" x="409.890766" y="172.424589" style="fill: #ffbb78"/>
    </g>
    <g clip-path="url(#p7a6f576de7)">
     <use xlink:href="#C3_0_718a588800" x="390.759218" y="161.571407" style="fill: #ffbb78"/>
    </g>
    <g clip-path="url(#p7a6f576de7)">
     <use xlink:href="#C3_0_718a588800" x="378.465125" y="159.937027" style="fill: #ffbb78"/>
    </g>
    <g clip-path="url(#p7a6f576de7)">
     <use xlink:href="#C3_0_718a588800" x="359.33575" y="161.836485" style="fill: #ffbb78"/>
    </g>
    <g clip-path="url(#p7a6f576de7)">
     <use xlink:href="#C3_0_718a588800" x="354.352844" y="162.331265" style="fill: #ffbb78"/>
    </g>
   </g>
   <g id="PathCollection_5">
    <defs>
     <path id="C4_0_1df88412d9" d="M 0 1.322876 
C 0.350831 1.322876 0.68734 1.183489 0.935414 0.935414 
C 1.183489 0.68734 1.322876 0.350831 1.322876 -0 
C 1.322876 -0.350831 1.183489 -0.68734 0.935414 -0.935414 
C 0.68734 -1.183489 0.350831 -1.322876 0 -1.322876 
C -0.350831 -1.322876 -0.68734 -1.183489 -0.935414 -0.935414 
C -1.183489 -0.68734 -1.322876 -0.350831 -1.322876 0 
C -1.322876 0.350831 -1.183489 0.68734 -0.935414 0.935414 
C -0.68734 1.183489 -0.350831 1.322876 0 1.322876 
z
"/>
    </defs>
    <g clip-path="url(#p7a6f576de7)">
     <use xlink:href="#C4_0_1df88412d9" x="218.616325" y="123.038724" style="fill: #2ca02c"/>
    </g>
    <g clip-path="url(#p7a6f576de7)">
     <use xlink:href="#C4_0_1df88412d9" x="222.634169" y="117.333006" style="fill: #2ca02c"/>
    </g>
    <g clip-path="url(#p7a6f576de7)">
     <use xlink:href="#C4_0_1df88412d9" x="229.815734" y="107.134507" style="fill: #2ca02c"/>
    </g>
    <g clip-path="url(#p7a6f576de7)">
     <use xlink:href="#C4_0_1df88412d9" x="232.691991" y="106.700664" style="fill: #2ca02c"/>
    </g>
    <g clip-path="url(#p7a6f576de7)">
     <use xlink:href="#C4_0_1df88412d9" x="247.491048" y="104.468431" style="fill: #2ca02c"/>
    </g>
    <g clip-path="url(#p7a6f576de7)">
     <use xlink:href="#C4_0_1df88412d9" x="259.612032" y="101.029383" style="fill: #2ca02c"/>
    </g>
    <g clip-path="url(#p7a6f576de7)">
     <use xlink:href="#C4_0_1df88412d9" x="260.331373" y="108.238628" style="fill: #2ca02c"/>
    </g>
    <g clip-path="url(#p7a6f576de7)">
     <use xlink:href="#C4_0_1df88412d9" x="261.503803" y="119.988734" style="fill: #2ca02c"/>
    </g>
    <g clip-path="url(#p7a6f576de7)">
     <use xlink:href="#C4_0_1df88412d9" x="250.68704" y="126.386935" style="fill: #2ca02c"/>
    </g>
    <g clip-path="url(#p7a6f576de7)">
     <use xlink:href="#C4_0_1df88412d9" x="246.66621" y="128.765288" style="fill: #2ca02c"/>
    </g>
    <g clip-path="url(#p7a6f576de7)">
     <use xlink:href="#C4_0_1df88412d9" x="246.249601" y="133.316391" style="fill: #2ca02c"/>
    </g>
   </g>
   <g id="PathCollection_6">
    <defs>
     <path id="C5_0_a569854fdb" d="M 0 1.322876 
C 0.350831 1.322876 0.68734 1.183489 0.935414 0.935414 
C 1.183489 0.68734 1.322876 0.350831 1.322876 -0 
C 1.322876 -0.350831 1.183489 -0.68734 0.935414 -0.935414 
C 0.68734 -1.183489 0.350831 -1.322876 0 -1.322876 
C -0.350831 -1.322876 -0.68734 -1.183489 -0.935414 -0.935414 
C -1.183489 -0.68734 -1.322876 -0.350831 -1.322876 0 
C -1.322876 0.350831 -1.183489 0.68734 -0.935414 0.935414 
C -0.68734 1.183489 -0.350831 1.322876 0 1.322876 
z
"/>
    </defs>
    <g clip-path="url(#p7a6f576de7)">
     <use xlink:href="#C5_0_a569854fdb" x="136.451629" y="78.812765" style="fill: #98df8a"/>
    </g>
    <g clip-path="url(#p7a6f576de7)">
     <use xlink:href="#C5_0_a569854fdb" x="112.349838" y="73.515888" style="fill: #98df8a"/>
    </g>
    <g clip-path="url(#p7a6f576de7)">
     <use xlink:href="#C5_0_a569854fdb" x="105.697352" y="72.053864" style="fill: #98df8a"/>
    </g>
    <g clip-path="url(#p7a6f576de7)">
     <use xlink:href="#C5_0_a569854fdb" x="104.018214" y="51.739491" style="fill: #98df8a"/>
    </g>
    <g clip-path="url(#p7a6f576de7)">
     <use xlink:href="#C5_0_a569854fdb" x="123.218813" y="40.547053" style="fill: #98df8a"/>
    </g>
    <g clip-path="url(#p7a6f576de7)">
     <use xlink:href="#C5_0_a569854fdb" x="135.956849" y="23.004115" style="fill: #98df8a"/>
    </g>
    <g clip-path="url(#p7a6f576de7)">
     <use xlink:href="#C5_0_a569854fdb" x="143.564985" y="23.350299" style="fill: #98df8a"/>
    </g>
    <g clip-path="url(#p7a6f576de7)">
     <use xlink:href="#C5_0_a569854fdb" x="155.489575" y="23.89289" style="fill: #98df8a"/>
    </g>
    <g clip-path="url(#p7a6f576de7)">
     <use xlink:href="#C5_0_a569854fdb" x="208.800728" y="110.357928" style="fill: #98df8a"/>
    </g>
   </g>
   <g id="PathCollection_7">
    <defs>
     <path id="C6_0_9f8fcc7521" d="M 0 1.322876 
C 0.350831 1.322876 0.68734 1.183489 0.935414 0.935414 
C 1.183489 0.68734 1.322876 0.350831 1.322876 -0 
C 1.322876 -0.350831 1.183489 -0.68734 0.935414 -0.935414 
C 0.68734 -1.183489 0.350831 -1.322876 0 -1.322876 
C -0.350831 -1.322876 -0.68734 -1.183489 -0.935414 -0.935414 
C -1.183489 -0.68734 -1.322876 -0.350831 -1.322876 0 
C -1.322876 0.350831 -1.183489 0.68734 -0.935414 0.935414 
C -0.68734 1.183489 -0.350831 1.322876 0 1.322876 
z
"/>
    </defs>
    <g clip-path="url(#p7a6f576de7)">
     <use xlink:href="#C6_0_9f8fcc7521" x="173.293979" y="186.811657" style="fill: #d62728"/>
    </g>
    <g clip-path="url(#p7a6f576de7)">
     <use xlink:href="#C6_0_9f8fcc7521" x="149.99593" y="186.991149" style="fill: #d62728"/>
    </g>
    <g clip-path="url(#p7a6f576de7)">
     <use xlink:href="#C6_0_9f8fcc7521" x="140.7767" y="188.385626" style="fill: #d62728"/>
    </g>
    <g clip-path="url(#p7a6f576de7)">
     <use xlink:href="#C6_0_9f8fcc7521" x="130.655629" y="189.916513" style="fill: #d62728"/>
    </g>
    <g clip-path="url(#p7a6f576de7)">
     <use xlink:href="#C6_0_9f8fcc7521" x="134.804343" y="204.21725" style="fill: #d62728"/>
    </g>
    <g clip-path="url(#p7a6f576de7)">
     <use xlink:href="#C6_0_9f8fcc7521" x="141.82837" y="204.31913" style="fill: #d62728"/>
    </g>
    <g clip-path="url(#p7a6f576de7)">
     <use xlink:href="#C6_0_9f8fcc7521" x="150.732152" y="204.448274" style="fill: #d62728"/>
    </g>
    <g clip-path="url(#p7a6f576de7)">
     <use xlink:href="#C6_0_9f8fcc7521" x="160.426502" y="204.588885" style="fill: #d62728"/>
    </g>
    <g clip-path="url(#p7a6f576de7)">
     <use xlink:href="#C6_0_9f8fcc7521" x="174.854114" y="204.798149" style="fill: #d62728"/>
    </g>
    <g clip-path="url(#p7a6f576de7)">
     <use xlink:href="#C6_0_9f8fcc7521" x="184.403546" y="205.557471" style="fill: #d62728"/>
    </g>
    <g clip-path="url(#p7a6f576de7)">
     <use xlink:href="#C6_0_9f8fcc7521" x="185.522081" y="205.64789" style="fill: #d62728"/>
    </g>
   </g>
   <g id="PathCollection_8">
    <defs>
     <path id="C7_0_689a844779" d="M 0 1.322876 
C 0.350831 1.322876 0.68734 1.183489 0.935414 0.935414 
C 1.183489 0.68734 1.322876 0.350831 1.322876 -0 
C 1.322876 -0.350831 1.183489 -0.68734 0.935414 -0.935414 
C 0.68734 -1.183489 0.350831 -1.322876 0 -1.322876 
C -0.350831 -1.322876 -0.68734 -1.183489 -0.935414 -0.935414 
C -1.183489 -0.68734 -1.322876 -0.350831 -1.322876 0 
C -1.322876 0.350831 -1.183489 0.68734 -0.935414 0.935414 
C -0.68734 1.183489 -0.350831 1.322876 0 1.322876 
z
"/>
    </defs>
    <g clip-path="url(#p7a6f576de7)">
     <use xlink:href="#C7_0_689a844779" x="279.928161" y="258.155286" style="fill: #ff9896"/>
    </g>
    <g clip-path="url(#p7a6f576de7)">
     <use xlink:href="#C7_0_689a844779" x="281.861805" y="260.447796" style="fill: #ff9896"/>
    </g>
    <g clip-path="url(#p7a6f576de7)">
     <use xlink:href="#C7_0_689a844779" x="291.700403" y="272.112349" style="fill: #ff9896"/>
    </g>
    <g clip-path="url(#p7a6f576de7)">
     <use xlink:href="#C7_0_689a844779" x="304.446581" y="288.69591" style="fill: #ff9896"/>
    </g>
    <g clip-path="url(#p7a6f576de7)">
     <use xlink:href="#C7_0_689a844779" x="300.388632" y="288.212356" style="fill: #ff9896"/>
    </g>
    <g clip-path="url(#p7a6f576de7)">
     <use xlink:href="#C7_0_689a844779" x="282.712879" y="286.106074" style="fill: #ff9896"/>
    </g>
   </g>
   <g id="PathCollection_9">
    <defs>
     <path id="C8_0_0ce7eee04d" d="M 0 1.322876 
C 0.350831 1.322876 0.68734 1.183489 0.935414 0.935414 
C 1.183489 0.68734 1.322876 0.350831 1.322876 -0 
C 1.322876 -0.350831 1.183489 -0.68734 0.935414 -0.935414 
C 0.68734 -1.183489 0.350831 -1.322876 0 -1.322876 
C -0.350831 -1.322876 -0.68734 -1.183489 -0.935414 -0.935414 
C -1.183489 -0.68734 -1.322876 -0.350831 -1.322876 0 
C -1.322876 0.350831 -1.183489 0.68734 -0.935414 0.935414 
C -0.68734 1.183489 -0.350831 1.322876 0 1.322876 
z
"/>
    </defs>
    <g clip-path="url(#p7a6f576de7)">
     <use xlink:href="#C8_0_0ce7eee04d" x="263.473146" y="287.567258" style="fill: #9467bd"/>
    </g>
    <g clip-path="url(#p7a6f576de7)">
     <use xlink:href="#C8_0_0ce7eee04d" x="272.70677" y="317.128735" style="fill: #9467bd"/>
    </g>
    <g clip-path="url(#p7a6f576de7)">
     <use xlink:href="#C8_0_0ce7eee04d" x="287.949337" y="319.204629" style="fill: #9467bd"/>
    </g>
    <g clip-path="url(#p7a6f576de7)">
     <use xlink:href="#C8_0_0ce7eee04d" x="288.140666" y="319.230689" style="fill: #9467bd"/>
    </g>
    <g clip-path="url(#p7a6f576de7)">
     <use xlink:href="#C8_0_0ce7eee04d" x="304.831991" y="321.50409" style="fill: #9467bd"/>
    </g>
    <g clip-path="url(#p7a6f576de7)">
     <use xlink:href="#C8_0_0ce7eee04d" x="481.27801" y="345.536491" style="fill: #9467bd"/>
    </g>
    <g clip-path="url(#p7a6f576de7)">
     <use xlink:href="#C8_0_0ce7eee04d" x="503.949096" y="327.515003" style="fill: #9467bd"/>
    </g>
    <g clip-path="url(#p7a6f576de7)">
     <use xlink:href="#C8_0_0ce7eee04d" x="510.497247" y="324.746731" style="fill: #9467bd"/>
    </g>
    <g clip-path="url(#p7a6f576de7)">
     <use xlink:href="#C8_0_0ce7eee04d" x="530.60172" y="316.928112" style="fill: #9467bd"/>
    </g>
    <g clip-path="url(#p7a6f576de7)">
     <use xlink:href="#C8_0_0ce7eee04d" x="537.875247" y="314.099442" style="fill: #9467bd"/>
    </g>
    <g clip-path="url(#p7a6f576de7)">
     <use xlink:href="#C8_0_0ce7eee04d" x="537.434204" y="296.000936" style="fill: #9467bd"/>
    </g>
    <g clip-path="url(#p7a6f576de7)">
     <use xlink:href="#C8_0_0ce7eee04d" x="509.871453" y="289.266946" style="fill: #9467bd"/>
    </g>
    <g clip-path="url(#p7a6f576de7)">
     <use xlink:href="#C8_0_0ce7eee04d" x="506.071793" y="288.338632" style="fill: #9467bd"/>
    </g>
    <g clip-path="url(#p7a6f576de7)">
     <use xlink:href="#C8_0_0ce7eee04d" x="492.89812" y="285.120106" style="fill: #9467bd"/>
    </g>
   </g>
   <g id="PathCollection_10">
    <defs>
     <path id="C9_0_0544df0682" d="M 0 1.322876 
C 0.350831 1.322876 0.68734 1.183489 0.935414 0.935414 
C 1.183489 0.68734 1.322876 0.350831 1.322876 -0 
C 1.322876 -0.350831 1.183489 -0.68734 0.935414 -0.935414 
C 0.68734 -1.183489 0.350831 -1.322876 0 -1.322876 
C -0.350831 -1.322876 -0.68734 -1.183489 -0.935414 -0.935414 
C -1.183489 -0.68734 -1.322876 -0.350831 -1.322876 0 
C -1.322876 0.350831 -1.183489 0.68734 -0.935414 0.935414 
C -0.68734 1.183489 -0.350831 1.322876 0 1.322876 
z
"/>
    </defs>
    <g clip-path="url(#p7a6f576de7)">
     <use xlink:href="#C9_0_0544df0682" x="320.05799" y="39.080348" style="fill: #c5b0d5"/>
    </g>
    <g clip-path="url(#p7a6f576de7)">
     <use xlink:href="#C9_0_0544df0682" x="328.105382" y="22.064098" style="fill: #c5b0d5"/>
    </g>
    <g clip-path="url(#p7a6f576de7)">
     <use xlink:href="#C9_0_0544df0682" x="345.006575" y="22.173146" style="fill: #c5b0d5"/>
    </g>
    <g clip-path="url(#p7a6f576de7)">
     <use xlink:href="#C9_0_0544df0682" x="383.419893" y="22.420992" style="fill: #c5b0d5"/>
    </g>
    <g clip-path="url(#p7a6f576de7)">
     <use xlink:href="#C9_0_0544df0682" x="382.060901" y="23.736642" style="fill: #c5b0d5"/>
    </g>
    <g clip-path="url(#p7a6f576de7)">
     <use xlink:href="#C9_0_0544df0682" x="377.629939" y="28.025435" style="fill: #c5b0d5"/>
    </g>
    <g clip-path="url(#p7a6f576de7)">
     <use xlink:href="#C9_0_0544df0682" x="360.542687" y="44.564439" style="fill: #c5b0d5"/>
    </g>
    <g clip-path="url(#p7a6f576de7)">
     <use xlink:href="#C9_0_0544df0682" x="354.364656" y="51.145349" style="fill: #c5b0d5"/>
    </g>
    <g clip-path="url(#p7a6f576de7)">
     <use xlink:href="#C9_0_0544df0682" x="342.957733" y="66.882906" style="fill: #c5b0d5"/>
    </g>
   </g>
   <g id="PathCollection_11">
    <defs>
     <path id="m952f46f59e" d="M 0 1.414214 
C 0.375054 1.414214 0.734797 1.265203 1 1 
C 1.265203 0.734797 1.414214 0.375054 1.414214 0 
C 1.414214 -0.375054 1.265203 -0.734797 1 -1 
C 0.734797 -1.265203 0.375054 -1.414214 0 -1.414214 
C -0.375054 -1.414214 -0.734797 -1.265203 -1 -1 
C -1.265203 -0.734797 -1.414214 -0.375054 -1.414214 0 
C -1.414214 0.375054 -1.265203 0.734797 -1 1 
C -0.734797 1.265203 -0.375054 1.414214 0 1.414214 
z
" style="stroke: #000000"/>
    </defs>
    <g clip-path="url(#p7a6f576de7)">
     <use xlink:href="#m952f46f59e" x="239.230933" y="209.989558" style="stroke: #000000"/>
    </g>
   </g>
  </g>
 </g>
 <defs>
  <clipPath id="p7a6f576de7">
   <rect x="0.72" y="0.72" width="558" height="473.798644"/>
  </clipPath>
 </defs>
</svg>
